<mxfile host="app.diagrams.net" modified="2022-08-19T05:39:23.829Z" agent="5.0 (X11)" etag="ee-Qi-Grt910xnsaOmCt" version="20.2.3" type="github" pages="8">
  <diagram id="bvR2yVWTvsSqrx0DSxDH" name="heap">
    <mxGraphModel dx="1350" dy="764" grid="1" gridSize="10" guides="1" tooltips="1" connect="1" arrows="1" fold="1" page="1" pageScale="1" pageWidth="827" pageHeight="1169" math="0" shadow="0">
      <root>
        <mxCell id="0" />
        <mxCell id="1" parent="0" />
        <mxCell id="hBtrJWqsvsgfqbguajvN-1" value="Interface" style="rounded=0;whiteSpace=wrap;html=1;fillColor=#dae8fc;strokeColor=#6c8ebf;" vertex="1" parent="1">
          <mxGeometry x="360" y="80" width="80" height="40" as="geometry" />
        </mxCell>
        <mxCell id="hBtrJWqsvsgfqbguajvN-2" value="Init" style="rounded=0;whiteSpace=wrap;html=1;fillColor=#d5e8d4;strokeColor=#82b366;" vertex="1" parent="1">
          <mxGeometry x="120" y="240" width="80" height="40" as="geometry" />
        </mxCell>
        <mxCell id="hBtrJWqsvsgfqbguajvN-3" value="Push" style="rounded=0;whiteSpace=wrap;html=1;fillColor=#d5e8d4;strokeColor=#82b366;" vertex="1" parent="1">
          <mxGeometry x="240" y="240" width="80" height="40" as="geometry" />
        </mxCell>
        <mxCell id="hBtrJWqsvsgfqbguajvN-4" value="Pop" style="rounded=0;whiteSpace=wrap;html=1;fillColor=#d5e8d4;strokeColor=#82b366;" vertex="1" parent="1">
          <mxGeometry x="360" y="240" width="80" height="40" as="geometry" />
        </mxCell>
        <mxCell id="hBtrJWqsvsgfqbguajvN-5" value="Remove" style="rounded=0;whiteSpace=wrap;html=1;fillColor=#d5e8d4;strokeColor=#82b366;" vertex="1" parent="1">
          <mxGeometry x="480" y="240" width="80" height="40" as="geometry" />
        </mxCell>
        <mxCell id="hBtrJWqsvsgfqbguajvN-6" value="Fix" style="rounded=0;whiteSpace=wrap;html=1;fillColor=#d5e8d4;strokeColor=#82b366;" vertex="1" parent="1">
          <mxGeometry x="600" y="240" width="80" height="40" as="geometry" />
        </mxCell>
        <mxCell id="hBtrJWqsvsgfqbguajvN-7" style="rounded=0;orthogonalLoop=1;jettySize=auto;html=1;entryX=0.5;entryY=1;entryDx=0;entryDy=0;dashed=1;endArrow=open;endFill=0;exitX=0.5;exitY=0;exitDx=0;exitDy=0;" edge="1" parent="1" source="hBtrJWqsvsgfqbguajvN-11" target="hBtrJWqsvsgfqbguajvN-2">
          <mxGeometry relative="1" as="geometry" />
        </mxCell>
        <mxCell id="hBtrJWqsvsgfqbguajvN-8" style="rounded=0;orthogonalLoop=1;jettySize=auto;html=1;dashed=1;endArrow=open;endFill=0;entryX=0.5;entryY=1;entryDx=0;entryDy=0;exitX=0.5;exitY=0;exitDx=0;exitDy=0;" edge="1" parent="1" source="hBtrJWqsvsgfqbguajvN-11" target="hBtrJWqsvsgfqbguajvN-4">
          <mxGeometry relative="1" as="geometry" />
        </mxCell>
        <mxCell id="hBtrJWqsvsgfqbguajvN-9" style="rounded=0;orthogonalLoop=1;jettySize=auto;html=1;dashed=1;endArrow=open;endFill=0;exitX=0.5;exitY=0;exitDx=0;exitDy=0;entryX=0.5;entryY=1;entryDx=0;entryDy=0;" edge="1" parent="1" source="hBtrJWqsvsgfqbguajvN-11" target="hBtrJWqsvsgfqbguajvN-5">
          <mxGeometry relative="1" as="geometry">
            <mxPoint x="520" y="280" as="targetPoint" />
          </mxGeometry>
        </mxCell>
        <mxCell id="hBtrJWqsvsgfqbguajvN-10" style="edgeStyle=none;rounded=0;orthogonalLoop=1;jettySize=auto;html=1;entryX=0.5;entryY=1;entryDx=0;entryDy=0;dashed=1;endArrow=open;endFill=0;exitX=0.5;exitY=0;exitDx=0;exitDy=0;" edge="1" parent="1" source="hBtrJWqsvsgfqbguajvN-11" target="hBtrJWqsvsgfqbguajvN-6">
          <mxGeometry relative="1" as="geometry" />
        </mxCell>
        <mxCell id="hBtrJWqsvsgfqbguajvN-11" value="down" style="rounded=0;whiteSpace=wrap;html=1;fillColor=none;strokeColor=#82b366;" vertex="1" parent="1">
          <mxGeometry x="300" y="360" width="80" height="40" as="geometry" />
        </mxCell>
        <mxCell id="hBtrJWqsvsgfqbguajvN-12" style="edgeStyle=none;rounded=0;orthogonalLoop=1;jettySize=auto;html=1;entryX=0.5;entryY=1;entryDx=0;entryDy=0;dashed=1;endArrow=open;endFill=0;exitX=0.5;exitY=0;exitDx=0;exitDy=0;" edge="1" parent="1" source="hBtrJWqsvsgfqbguajvN-15" target="hBtrJWqsvsgfqbguajvN-3">
          <mxGeometry relative="1" as="geometry" />
        </mxCell>
        <mxCell id="hBtrJWqsvsgfqbguajvN-13" style="edgeStyle=none;rounded=0;orthogonalLoop=1;jettySize=auto;html=1;entryX=0.5;entryY=1;entryDx=0;entryDy=0;dashed=1;endArrow=open;endFill=0;exitX=0.5;exitY=0;exitDx=0;exitDy=0;" edge="1" parent="1" source="hBtrJWqsvsgfqbguajvN-15" target="hBtrJWqsvsgfqbguajvN-5">
          <mxGeometry relative="1" as="geometry" />
        </mxCell>
        <mxCell id="hBtrJWqsvsgfqbguajvN-14" style="edgeStyle=none;rounded=0;orthogonalLoop=1;jettySize=auto;html=1;entryX=0.5;entryY=1;entryDx=0;entryDy=0;dashed=1;endArrow=open;endFill=0;exitX=0.5;exitY=0;exitDx=0;exitDy=0;" edge="1" parent="1" source="hBtrJWqsvsgfqbguajvN-15" target="hBtrJWqsvsgfqbguajvN-6">
          <mxGeometry relative="1" as="geometry" />
        </mxCell>
        <mxCell id="hBtrJWqsvsgfqbguajvN-15" value="up" style="rounded=0;whiteSpace=wrap;html=1;fillColor=none;strokeColor=#82b366;" vertex="1" parent="1">
          <mxGeometry x="420" y="360" width="80" height="40" as="geometry" />
        </mxCell>
        <mxCell id="hBtrJWqsvsgfqbguajvN-16" style="edgeStyle=none;rounded=0;orthogonalLoop=1;jettySize=auto;html=1;exitX=0.5;exitY=1;exitDx=0;exitDy=0;entryX=0.5;entryY=0;entryDx=0;entryDy=0;dashed=1;endArrow=open;endFill=0;" edge="1" parent="1" source="hBtrJWqsvsgfqbguajvN-18" target="hBtrJWqsvsgfqbguajvN-3">
          <mxGeometry relative="1" as="geometry" />
        </mxCell>
        <mxCell id="hBtrJWqsvsgfqbguajvN-17" style="edgeStyle=none;rounded=0;orthogonalLoop=1;jettySize=auto;html=1;exitX=0.5;exitY=0;exitDx=0;exitDy=0;entryX=0.5;entryY=1;entryDx=0;entryDy=0;dashed=1;endArrow=open;endFill=0;" edge="1" parent="1" source="hBtrJWqsvsgfqbguajvN-18" target="hBtrJWqsvsgfqbguajvN-1">
          <mxGeometry relative="1" as="geometry" />
        </mxCell>
        <mxCell id="hBtrJWqsvsgfqbguajvN-18" value="push" style="rounded=0;whiteSpace=wrap;html=1;fillColor=none;strokeColor=#6c8ebf;" vertex="1" parent="1">
          <mxGeometry x="240" y="160" width="80" height="40" as="geometry" />
        </mxCell>
        <mxCell id="hBtrJWqsvsgfqbguajvN-19" style="edgeStyle=none;rounded=0;orthogonalLoop=1;jettySize=auto;html=1;exitX=0.5;exitY=1;exitDx=0;exitDy=0;entryX=0.5;entryY=0;entryDx=0;entryDy=0;dashed=1;endArrow=open;endFill=0;" edge="1" parent="1" source="hBtrJWqsvsgfqbguajvN-21" target="hBtrJWqsvsgfqbguajvN-4">
          <mxGeometry relative="1" as="geometry" />
        </mxCell>
        <mxCell id="hBtrJWqsvsgfqbguajvN-20" style="edgeStyle=none;rounded=0;orthogonalLoop=1;jettySize=auto;html=1;exitX=0.5;exitY=0;exitDx=0;exitDy=0;entryX=0.5;entryY=1;entryDx=0;entryDy=0;dashed=1;endArrow=open;endFill=0;" edge="1" parent="1" source="hBtrJWqsvsgfqbguajvN-21" target="hBtrJWqsvsgfqbguajvN-1">
          <mxGeometry relative="1" as="geometry" />
        </mxCell>
        <mxCell id="hBtrJWqsvsgfqbguajvN-21" value="pop" style="rounded=0;whiteSpace=wrap;html=1;fillColor=none;strokeColor=#6c8ebf;" vertex="1" parent="1">
          <mxGeometry x="360" y="160" width="80" height="40" as="geometry" />
        </mxCell>
        <mxCell id="hBtrJWqsvsgfqbguajvN-22" style="edgeStyle=none;rounded=0;orthogonalLoop=1;jettySize=auto;html=1;exitX=0.5;exitY=0;exitDx=0;exitDy=0;entryX=0.5;entryY=1;entryDx=0;entryDy=0;dashed=1;endArrow=open;endFill=0;" edge="1" parent="1" source="hBtrJWqsvsgfqbguajvN-23" target="hBtrJWqsvsgfqbguajvN-1">
          <mxGeometry relative="1" as="geometry" />
        </mxCell>
        <mxCell id="hBtrJWqsvsgfqbguajvN-23" value="sort.Interface" style="rounded=0;whiteSpace=wrap;html=1;fillColor=#f8cecc;strokeColor=#b85450;" vertex="1" parent="1">
          <mxGeometry x="480" y="160" width="80" height="40" as="geometry" />
        </mxCell>
      </root>
    </mxGraphModel>
  </diagram>
  <diagram id="x_QNIjoPYXJ_Wp9KL8Dw" name="down">
    <mxGraphModel dx="1350" dy="764" grid="1" gridSize="10" guides="1" tooltips="1" connect="1" arrows="1" fold="1" page="1" pageScale="1" pageWidth="827" pageHeight="1169" math="0" shadow="0">
      <root>
        <mxCell id="0" />
        <mxCell id="1" parent="0" />
        <mxCell id="w_a_GNxl6Uwmn0ABlDO--1" style="edgeStyle=none;rounded=0;orthogonalLoop=1;jettySize=auto;html=1;exitX=0.5;exitY=1;exitDx=0;exitDy=0;dashed=1;startArrow=none;startFill=0;endArrow=open;endFill=0;strokeColor=#1A1A1A;" edge="1" parent="1" source="w_a_GNxl6Uwmn0ABlDO--3">
          <mxGeometry relative="1" as="geometry">
            <mxPoint x="110" y="159.99999999999955" as="targetPoint" />
          </mxGeometry>
        </mxCell>
        <mxCell id="w_a_GNxl6Uwmn0ABlDO--2" style="edgeStyle=none;rounded=0;orthogonalLoop=1;jettySize=auto;html=1;exitX=0.5;exitY=1;exitDx=0;exitDy=0;entryX=0.5;entryY=0;entryDx=0;entryDy=0;dashed=1;startArrow=none;startFill=0;endArrow=open;endFill=0;strokeColor=#1A1A1A;" edge="1" parent="1" source="w_a_GNxl6Uwmn0ABlDO--3" target="w_a_GNxl6Uwmn0ABlDO--5">
          <mxGeometry relative="1" as="geometry" />
        </mxCell>
        <mxCell id="w_a_GNxl6Uwmn0ABlDO--3" value="4" style="ellipse;whiteSpace=wrap;html=1;aspect=fixed;" vertex="1" parent="1">
          <mxGeometry x="130" y="40" width="40" height="40" as="geometry" />
        </mxCell>
        <mxCell id="w_a_GNxl6Uwmn0ABlDO--4" value="6" style="ellipse;whiteSpace=wrap;html=1;aspect=fixed;fillColor=default;strokeColor=default;" vertex="1" parent="1">
          <mxGeometry x="90" y="160" width="40" height="40" as="geometry" />
        </mxCell>
        <mxCell id="w_a_GNxl6Uwmn0ABlDO--5" value="3" style="ellipse;whiteSpace=wrap;html=1;aspect=fixed;" vertex="1" parent="1">
          <mxGeometry x="170" y="160" width="40" height="40" as="geometry" />
        </mxCell>
        <mxCell id="w_a_GNxl6Uwmn0ABlDO--6" value="4" style="text;html=1;strokeColor=none;fillColor=none;align=center;verticalAlign=middle;whiteSpace=wrap;rounded=0;dashed=1;labelBackgroundColor=none;fontSize=12;fontColor=#1A1A1A;" vertex="1" parent="1">
          <mxGeometry x="100" y="50" width="30" height="20" as="geometry" />
        </mxCell>
        <mxCell id="w_a_GNxl6Uwmn0ABlDO--7" value="9" style="text;html=1;strokeColor=none;fillColor=none;align=center;verticalAlign=middle;whiteSpace=wrap;rounded=0;dashed=1;labelBackgroundColor=none;fontSize=12;fontColor=#1A1A1A;" vertex="1" parent="1">
          <mxGeometry x="95" y="200" width="30" height="20" as="geometry" />
        </mxCell>
        <mxCell id="w_a_GNxl6Uwmn0ABlDO--8" value="10" style="text;html=1;strokeColor=none;fillColor=none;align=center;verticalAlign=middle;whiteSpace=wrap;rounded=0;dashed=1;labelBackgroundColor=none;fontSize=12;fontColor=#1A1A1A;" vertex="1" parent="1">
          <mxGeometry x="175" y="200" width="30" height="20" as="geometry" />
        </mxCell>
        <mxCell id="w_a_GNxl6Uwmn0ABlDO--9" style="edgeStyle=orthogonalEdgeStyle;curved=1;rounded=0;orthogonalLoop=1;jettySize=auto;html=1;entryX=1;entryY=0.5;entryDx=0;entryDy=0;dashed=1;fontSize=12;fontColor=#66B2FF;startArrow=none;startFill=0;endArrow=open;endFill=0;strokeColor=#66B2FF;" edge="1" parent="1" source="w_a_GNxl6Uwmn0ABlDO--10" target="w_a_GNxl6Uwmn0ABlDO--3">
          <mxGeometry relative="1" as="geometry" />
        </mxCell>
        <mxCell id="w_a_GNxl6Uwmn0ABlDO--10" value="i" style="text;html=1;align=center;verticalAlign=middle;whiteSpace=wrap;rounded=0;labelBackgroundColor=none;fontSize=12;" vertex="1" parent="1">
          <mxGeometry x="250" y="50" width="30" height="20" as="geometry" />
        </mxCell>
        <mxCell id="w_a_GNxl6Uwmn0ABlDO--11" style="edgeStyle=orthogonalEdgeStyle;curved=1;rounded=0;orthogonalLoop=1;jettySize=auto;html=1;entryX=0;entryY=0.5;entryDx=0;entryDy=0;dashed=1;fontSize=12;fontColor=#66B2FF;startArrow=none;startFill=0;endArrow=open;endFill=0;strokeColor=#66B2FF;" edge="1" parent="1" source="w_a_GNxl6Uwmn0ABlDO--13" target="w_a_GNxl6Uwmn0ABlDO--4">
          <mxGeometry relative="1" as="geometry" />
        </mxCell>
        <mxCell id="w_a_GNxl6Uwmn0ABlDO--12" style="edgeStyle=orthogonalEdgeStyle;rounded=0;orthogonalLoop=1;jettySize=auto;html=1;exitX=0.5;exitY=1;exitDx=0;exitDy=0;entryX=0.5;entryY=1;entryDx=0;entryDy=0;dashed=1;fontSize=12;fontColor=#66B2FF;startArrow=open;startFill=0;endArrow=open;endFill=0;strokeColor=#1A1A1A;" edge="1" parent="1" source="w_a_GNxl6Uwmn0ABlDO--13" target="w_a_GNxl6Uwmn0ABlDO--15">
          <mxGeometry relative="1" as="geometry">
            <Array as="points">
              <mxPoint x="28" y="280" />
              <mxPoint x="278" y="280" />
              <mxPoint x="278" y="190" />
            </Array>
          </mxGeometry>
        </mxCell>
        <mxCell id="w_a_GNxl6Uwmn0ABlDO--13" value="j1" style="text;html=1;align=center;verticalAlign=middle;whiteSpace=wrap;rounded=0;labelBackgroundColor=none;fontSize=12;" vertex="1" parent="1">
          <mxGeometry x="10" y="170" width="35" height="20" as="geometry" />
        </mxCell>
        <mxCell id="w_a_GNxl6Uwmn0ABlDO--14" style="edgeStyle=orthogonalEdgeStyle;curved=1;rounded=0;orthogonalLoop=1;jettySize=auto;html=1;exitX=0;exitY=0.5;exitDx=0;exitDy=0;entryX=1;entryY=0.5;entryDx=0;entryDy=0;dashed=1;fontSize=12;fontColor=#66B2FF;startArrow=none;startFill=0;endArrow=open;endFill=0;strokeColor=#66B2FF;" edge="1" parent="1" source="w_a_GNxl6Uwmn0ABlDO--15" target="w_a_GNxl6Uwmn0ABlDO--5">
          <mxGeometry relative="1" as="geometry" />
        </mxCell>
        <mxCell id="w_a_GNxl6Uwmn0ABlDO--15" value="j2" style="text;html=1;align=center;verticalAlign=middle;whiteSpace=wrap;rounded=0;labelBackgroundColor=none;fontSize=12;" vertex="1" parent="1">
          <mxGeometry x="250" y="170" width="55" height="20" as="geometry" />
        </mxCell>
        <mxCell id="w_a_GNxl6Uwmn0ABlDO--16" value="6 &amp;gt; 3" style="text;html=1;align=center;verticalAlign=middle;whiteSpace=wrap;rounded=0;labelBackgroundColor=none;fontSize=12;" vertex="1" parent="1">
          <mxGeometry x="130" y="260" width="40" height="20" as="geometry" />
        </mxCell>
        <mxCell id="w_a_GNxl6Uwmn0ABlDO--17" value="j = j2" style="text;html=1;align=center;verticalAlign=middle;whiteSpace=wrap;rounded=0;labelBackgroundColor=none;fontSize=12;" vertex="1" parent="1">
          <mxGeometry x="130" y="280" width="40" height="20" as="geometry" />
        </mxCell>
        <mxCell id="w_a_GNxl6Uwmn0ABlDO--18" style="edgeStyle=none;rounded=0;orthogonalLoop=1;jettySize=auto;html=1;exitX=0.5;exitY=1;exitDx=0;exitDy=0;dashed=1;startArrow=none;startFill=0;endArrow=open;endFill=0;strokeColor=#1A1A1A;" edge="1" parent="1" source="w_a_GNxl6Uwmn0ABlDO--20">
          <mxGeometry relative="1" as="geometry">
            <mxPoint x="369.5" y="159.99999999999955" as="targetPoint" />
          </mxGeometry>
        </mxCell>
        <mxCell id="w_a_GNxl6Uwmn0ABlDO--19" style="edgeStyle=none;rounded=0;orthogonalLoop=1;jettySize=auto;html=1;exitX=0.5;exitY=1;exitDx=0;exitDy=0;entryX=0.5;entryY=0;entryDx=0;entryDy=0;dashed=1;startArrow=none;startFill=0;endArrow=open;endFill=0;strokeColor=#1A1A1A;" edge="1" parent="1" source="w_a_GNxl6Uwmn0ABlDO--20" target="w_a_GNxl6Uwmn0ABlDO--22">
          <mxGeometry relative="1" as="geometry" />
        </mxCell>
        <mxCell id="w_a_GNxl6Uwmn0ABlDO--20" value="4" style="ellipse;whiteSpace=wrap;html=1;aspect=fixed;" vertex="1" parent="1">
          <mxGeometry x="389.5" y="40" width="40" height="40" as="geometry" />
        </mxCell>
        <mxCell id="w_a_GNxl6Uwmn0ABlDO--21" value="6" style="ellipse;whiteSpace=wrap;html=1;aspect=fixed;fillColor=default;strokeColor=default;" vertex="1" parent="1">
          <mxGeometry x="349.5" y="160" width="40" height="40" as="geometry" />
        </mxCell>
        <mxCell id="w_a_GNxl6Uwmn0ABlDO--22" value="3" style="ellipse;whiteSpace=wrap;html=1;aspect=fixed;" vertex="1" parent="1">
          <mxGeometry x="429.5" y="160" width="40" height="40" as="geometry" />
        </mxCell>
        <mxCell id="w_a_GNxl6Uwmn0ABlDO--23" value="4" style="text;html=1;strokeColor=none;fillColor=none;align=center;verticalAlign=middle;whiteSpace=wrap;rounded=0;dashed=1;labelBackgroundColor=none;fontSize=12;fontColor=#1A1A1A;" vertex="1" parent="1">
          <mxGeometry x="359.5" y="50" width="30" height="20" as="geometry" />
        </mxCell>
        <mxCell id="w_a_GNxl6Uwmn0ABlDO--24" value="9" style="text;html=1;strokeColor=none;fillColor=none;align=center;verticalAlign=middle;whiteSpace=wrap;rounded=0;dashed=1;labelBackgroundColor=none;fontSize=12;fontColor=#1A1A1A;" vertex="1" parent="1">
          <mxGeometry x="354.5" y="200" width="30" height="20" as="geometry" />
        </mxCell>
        <mxCell id="w_a_GNxl6Uwmn0ABlDO--25" value="10" style="text;html=1;strokeColor=none;fillColor=none;align=center;verticalAlign=middle;whiteSpace=wrap;rounded=0;dashed=1;labelBackgroundColor=none;fontSize=12;fontColor=#1A1A1A;" vertex="1" parent="1">
          <mxGeometry x="434.5" y="200" width="30" height="20" as="geometry" />
        </mxCell>
        <mxCell id="w_a_GNxl6Uwmn0ABlDO--26" style="edgeStyle=orthogonalEdgeStyle;curved=1;rounded=0;orthogonalLoop=1;jettySize=auto;html=1;entryX=1;entryY=0.5;entryDx=0;entryDy=0;dashed=1;fontSize=12;fontColor=#66B2FF;startArrow=none;startFill=0;endArrow=open;endFill=0;strokeColor=#66B2FF;" edge="1" parent="1" source="w_a_GNxl6Uwmn0ABlDO--28" target="w_a_GNxl6Uwmn0ABlDO--20">
          <mxGeometry relative="1" as="geometry" />
        </mxCell>
        <mxCell id="w_a_GNxl6Uwmn0ABlDO--27" style="edgeStyle=orthogonalEdgeStyle;rounded=0;orthogonalLoop=1;jettySize=auto;html=1;exitX=1;exitY=0.5;exitDx=0;exitDy=0;entryX=1;entryY=0.5;entryDx=0;entryDy=0;dashed=1;fontSize=12;fontColor=#66B2FF;startArrow=open;startFill=0;endArrow=open;endFill=0;strokeColor=#1A1A1A;" edge="1" parent="1" source="w_a_GNxl6Uwmn0ABlDO--28" target="w_a_GNxl6Uwmn0ABlDO--30">
          <mxGeometry relative="1" as="geometry" />
        </mxCell>
        <mxCell id="w_a_GNxl6Uwmn0ABlDO--28" value="i" style="text;html=1;align=center;verticalAlign=middle;whiteSpace=wrap;rounded=0;labelBackgroundColor=none;fontSize=12;" vertex="1" parent="1">
          <mxGeometry x="509.5" y="50" width="40" height="20" as="geometry" />
        </mxCell>
        <mxCell id="w_a_GNxl6Uwmn0ABlDO--29" style="edgeStyle=orthogonalEdgeStyle;curved=1;rounded=0;orthogonalLoop=1;jettySize=auto;html=1;exitX=0;exitY=0.5;exitDx=0;exitDy=0;entryX=1;entryY=0.5;entryDx=0;entryDy=0;dashed=1;fontSize=12;fontColor=#66B2FF;startArrow=none;startFill=0;endArrow=open;endFill=0;strokeColor=#66B2FF;" edge="1" parent="1" source="w_a_GNxl6Uwmn0ABlDO--30" target="w_a_GNxl6Uwmn0ABlDO--22">
          <mxGeometry relative="1" as="geometry" />
        </mxCell>
        <mxCell id="w_a_GNxl6Uwmn0ABlDO--30" value="j" style="text;html=1;align=center;verticalAlign=middle;whiteSpace=wrap;rounded=0;labelBackgroundColor=none;fontSize=12;" vertex="1" parent="1">
          <mxGeometry x="509.5" y="170" width="40" height="20" as="geometry" />
        </mxCell>
        <mxCell id="w_a_GNxl6Uwmn0ABlDO--31" value="4 &amp;gt; 3" style="text;html=1;strokeColor=none;fillColor=none;align=center;verticalAlign=middle;whiteSpace=wrap;rounded=0;dashed=1;labelBackgroundColor=none;fontSize=12;fontColor=#1A1A1A;" vertex="1" parent="1">
          <mxGeometry x="529.5" y="110" width="40" height="20" as="geometry" />
        </mxCell>
        <mxCell id="w_a_GNxl6Uwmn0ABlDO--32" value="swap" style="text;html=1;strokeColor=none;fillColor=none;align=center;verticalAlign=middle;whiteSpace=wrap;rounded=0;dashed=1;labelBackgroundColor=none;fontSize=12;fontColor=#1A1A1A;" vertex="1" parent="1">
          <mxGeometry x="569.5" y="110" width="40" height="20" as="geometry" />
        </mxCell>
        <mxCell id="w_a_GNxl6Uwmn0ABlDO--33" style="edgeStyle=none;rounded=0;orthogonalLoop=1;jettySize=auto;html=1;exitX=0.5;exitY=1;exitDx=0;exitDy=0;dashed=1;startArrow=none;startFill=0;endArrow=open;endFill=0;strokeColor=#1A1A1A;" edge="1" parent="1" source="w_a_GNxl6Uwmn0ABlDO--35">
          <mxGeometry relative="1" as="geometry">
            <mxPoint x="649.5" y="159.99999999999955" as="targetPoint" />
          </mxGeometry>
        </mxCell>
        <mxCell id="w_a_GNxl6Uwmn0ABlDO--34" style="edgeStyle=none;rounded=0;orthogonalLoop=1;jettySize=auto;html=1;exitX=0.5;exitY=1;exitDx=0;exitDy=0;entryX=0.5;entryY=0;entryDx=0;entryDy=0;dashed=1;startArrow=none;startFill=0;endArrow=open;endFill=0;strokeColor=#1A1A1A;" edge="1" parent="1" source="w_a_GNxl6Uwmn0ABlDO--35" target="w_a_GNxl6Uwmn0ABlDO--37">
          <mxGeometry relative="1" as="geometry" />
        </mxCell>
        <mxCell id="w_a_GNxl6Uwmn0ABlDO--35" value="" style="ellipse;whiteSpace=wrap;html=1;aspect=fixed;" vertex="1" parent="1">
          <mxGeometry x="669.5" y="40" width="40" height="40" as="geometry" />
        </mxCell>
        <mxCell id="w_a_GNxl6Uwmn0ABlDO--36" value="" style="ellipse;whiteSpace=wrap;html=1;aspect=fixed;fillColor=default;strokeColor=default;" vertex="1" parent="1">
          <mxGeometry x="629.5" y="160" width="40" height="40" as="geometry" />
        </mxCell>
        <mxCell id="w_a_GNxl6Uwmn0ABlDO--37" value="" style="ellipse;whiteSpace=wrap;html=1;aspect=fixed;" vertex="1" parent="1">
          <mxGeometry x="709.5" y="160" width="40" height="40" as="geometry" />
        </mxCell>
        <mxCell id="w_a_GNxl6Uwmn0ABlDO--38" value="4" style="text;html=1;strokeColor=none;fillColor=none;align=center;verticalAlign=middle;whiteSpace=wrap;rounded=0;dashed=1;labelBackgroundColor=none;fontSize=12;fontColor=#1A1A1A;" vertex="1" parent="1">
          <mxGeometry x="639.5" y="50" width="30" height="20" as="geometry" />
        </mxCell>
        <mxCell id="w_a_GNxl6Uwmn0ABlDO--39" value="9" style="text;html=1;strokeColor=none;fillColor=none;align=center;verticalAlign=middle;whiteSpace=wrap;rounded=0;dashed=1;labelBackgroundColor=none;fontSize=12;fontColor=#1A1A1A;" vertex="1" parent="1">
          <mxGeometry x="634.5" y="200" width="30" height="20" as="geometry" />
        </mxCell>
        <mxCell id="w_a_GNxl6Uwmn0ABlDO--40" value="10" style="text;html=1;strokeColor=none;fillColor=none;align=center;verticalAlign=middle;whiteSpace=wrap;rounded=0;dashed=1;labelBackgroundColor=none;fontSize=12;fontColor=#1A1A1A;" vertex="1" parent="1">
          <mxGeometry x="714.5" y="200" width="30" height="20" as="geometry" />
        </mxCell>
        <mxCell id="w_a_GNxl6Uwmn0ABlDO--41" value="3" style="text;html=1;strokeColor=none;fillColor=none;align=center;verticalAlign=middle;whiteSpace=wrap;rounded=0;dashed=1;labelBackgroundColor=none;fontSize=12;fontColor=#1A1A1A;" vertex="1" parent="1">
          <mxGeometry x="674.5" y="45" width="30" height="30" as="geometry" />
        </mxCell>
        <mxCell id="w_a_GNxl6Uwmn0ABlDO--42" value="6" style="text;html=1;strokeColor=none;fillColor=none;align=center;verticalAlign=middle;whiteSpace=wrap;rounded=0;dashed=1;labelBackgroundColor=none;fontSize=12;fontColor=#1A1A1A;" vertex="1" parent="1">
          <mxGeometry x="634.5" y="165" width="30" height="30" as="geometry" />
        </mxCell>
        <mxCell id="w_a_GNxl6Uwmn0ABlDO--43" value="4" style="text;html=1;strokeColor=none;fillColor=none;align=center;verticalAlign=middle;whiteSpace=wrap;rounded=0;dashed=1;labelBackgroundColor=none;fontSize=12;fontColor=#1A1A1A;" vertex="1" parent="1">
          <mxGeometry x="714.5" y="165" width="30" height="30" as="geometry" />
        </mxCell>
        <mxCell id="w_a_GNxl6Uwmn0ABlDO--44" style="edgeStyle=orthogonalEdgeStyle;curved=1;rounded=0;orthogonalLoop=1;jettySize=auto;html=1;exitX=0;exitY=0.5;exitDx=0;exitDy=0;entryX=1;entryY=0.5;entryDx=0;entryDy=0;dashed=1;fontSize=12;fontColor=#66B2FF;startArrow=none;startFill=0;endArrow=open;endFill=0;strokeColor=#66B2FF;" edge="1" parent="1" source="w_a_GNxl6Uwmn0ABlDO--45" target="w_a_GNxl6Uwmn0ABlDO--37">
          <mxGeometry relative="1" as="geometry" />
        </mxCell>
        <mxCell id="w_a_GNxl6Uwmn0ABlDO--45" value="i" style="text;html=1;align=center;verticalAlign=middle;whiteSpace=wrap;rounded=0;labelBackgroundColor=none;fontSize=12;" vertex="1" parent="1">
          <mxGeometry x="786.5" y="170" width="30" height="20" as="geometry" />
        </mxCell>
        <mxCell id="w_a_GNxl6Uwmn0ABlDO--46" style="edgeStyle=orthogonalEdgeStyle;curved=1;rounded=0;orthogonalLoop=1;jettySize=auto;html=1;exitX=1;exitY=0.5;exitDx=0;exitDy=0;entryX=0;entryY=0.5;entryDx=0;entryDy=0;dashed=1;startArrow=none;startFill=0;endArrow=open;endFill=0;strokeColor=#66B2FF;" edge="1" parent="1" source="w_a_GNxl6Uwmn0ABlDO--47" target="w_a_GNxl6Uwmn0ABlDO--48">
          <mxGeometry relative="1" as="geometry" />
        </mxCell>
        <mxCell id="w_a_GNxl6Uwmn0ABlDO--47" value="2 * i + 1 &amp;gt; n" style="text;html=1;strokeColor=none;fillColor=none;align=center;verticalAlign=middle;whiteSpace=wrap;rounded=0;dashed=1;labelBackgroundColor=none;fontSize=12;fontColor=#1A1A1A;" vertex="1" parent="1">
          <mxGeometry x="610" y="250" width="70" height="20" as="geometry" />
        </mxCell>
        <mxCell id="w_a_GNxl6Uwmn0ABlDO--48" value="break" style="text;html=1;strokeColor=#b85450;fillColor=#f8cecc;align=center;verticalAlign=middle;whiteSpace=wrap;rounded=0;labelBackgroundColor=none;fontSize=12;" vertex="1" parent="1">
          <mxGeometry x="719.5" y="250" width="40.5" height="20" as="geometry" />
        </mxCell>
      </root>
    </mxGraphModel>
  </diagram>
  <diagram id="PxQiEteKlAs_LEH8G5Vk" name="up">
    <mxGraphModel dx="1350" dy="764" grid="1" gridSize="10" guides="1" tooltips="1" connect="1" arrows="1" fold="1" page="1" pageScale="1" pageWidth="827" pageHeight="1169" math="0" shadow="0">
      <root>
        <mxCell id="0" />
        <mxCell id="1" parent="0" />
        <mxCell id="Vj-U8vJRpZduBcO-_pfV-1" style="rounded=0;orthogonalLoop=1;jettySize=auto;html=1;exitX=0.5;exitY=1;exitDx=0;exitDy=0;dashed=1;startArrow=none;startFill=0;endArrow=open;endFill=0;strokeColor=#1A1A1A;entryX=0.5;entryY=0;entryDx=0;entryDy=0;" edge="1" parent="1" source="Vj-U8vJRpZduBcO-_pfV-2" target="Vj-U8vJRpZduBcO-_pfV-4">
          <mxGeometry relative="1" as="geometry" />
        </mxCell>
        <mxCell id="Vj-U8vJRpZduBcO-_pfV-2" value="5" style="ellipse;whiteSpace=wrap;html=1;aspect=fixed;" vertex="1" parent="1">
          <mxGeometry x="280.86" y="40" width="40" height="40" as="geometry" />
        </mxCell>
        <mxCell id="Vj-U8vJRpZduBcO-_pfV-3" value="5" style="text;html=1;strokeColor=none;fillColor=none;align=center;verticalAlign=middle;whiteSpace=wrap;rounded=0;" vertex="1" parent="1">
          <mxGeometry x="320.86" y="50" width="20" height="20" as="geometry" />
        </mxCell>
        <mxCell id="Vj-U8vJRpZduBcO-_pfV-4" value="4" style="ellipse;whiteSpace=wrap;html=1;aspect=fixed;fillColor=default;strokeColor=default;" vertex="1" parent="1">
          <mxGeometry x="240.86" y="160" width="40" height="40" as="geometry" />
        </mxCell>
        <mxCell id="Vj-U8vJRpZduBcO-_pfV-5" value="11" style="text;html=1;strokeColor=none;fillColor=none;align=center;verticalAlign=middle;whiteSpace=wrap;rounded=0;" vertex="1" parent="1">
          <mxGeometry x="280.86" y="170" width="20" height="20" as="geometry" />
        </mxCell>
        <mxCell id="Vj-U8vJRpZduBcO-_pfV-6" style="edgeStyle=none;rounded=0;orthogonalLoop=1;jettySize=auto;html=1;exitX=0;exitY=0.5;exitDx=0;exitDy=0;entryX=1;entryY=0.5;entryDx=0;entryDy=0;dashed=1;startArrow=none;startFill=0;endArrow=open;endFill=0;strokeColor=#66B2FF;" edge="1" parent="1" source="Vj-U8vJRpZduBcO-_pfV-7" target="Vj-U8vJRpZduBcO-_pfV-5">
          <mxGeometry relative="1" as="geometry" />
        </mxCell>
        <mxCell id="Vj-U8vJRpZduBcO-_pfV-7" value="j" style="text;html=1;strokeColor=none;fillColor=none;align=center;verticalAlign=middle;whiteSpace=wrap;rounded=0;" vertex="1" parent="1">
          <mxGeometry x="360.86" y="170" width="20" height="20" as="geometry" />
        </mxCell>
        <mxCell id="Vj-U8vJRpZduBcO-_pfV-8" style="edgeStyle=none;rounded=0;orthogonalLoop=1;jettySize=auto;html=1;exitX=0;exitY=0.5;exitDx=0;exitDy=0;entryX=1;entryY=0.5;entryDx=0;entryDy=0;dashed=1;startArrow=none;startFill=0;endArrow=open;endFill=0;strokeColor=#66B2FF;" edge="1" parent="1" source="Vj-U8vJRpZduBcO-_pfV-10" target="Vj-U8vJRpZduBcO-_pfV-3">
          <mxGeometry relative="1" as="geometry" />
        </mxCell>
        <mxCell id="Vj-U8vJRpZduBcO-_pfV-9" style="edgeStyle=orthogonalEdgeStyle;rounded=0;orthogonalLoop=1;jettySize=auto;html=1;exitX=1;exitY=0.5;exitDx=0;exitDy=0;entryX=1;entryY=0.5;entryDx=0;entryDy=0;dashed=1;startArrow=open;startFill=0;endArrow=open;endFill=0;strokeColor=#1A1A1A;" edge="1" parent="1" source="Vj-U8vJRpZduBcO-_pfV-10" target="Vj-U8vJRpZduBcO-_pfV-7">
          <mxGeometry relative="1" as="geometry" />
        </mxCell>
        <mxCell id="Vj-U8vJRpZduBcO-_pfV-10" value="i" style="text;html=1;strokeColor=none;fillColor=none;align=center;verticalAlign=middle;whiteSpace=wrap;rounded=0;" vertex="1" parent="1">
          <mxGeometry x="360.86" y="50" width="20" height="20" as="geometry" />
        </mxCell>
        <mxCell id="Vj-U8vJRpZduBcO-_pfV-11" value="4 &amp;lt; 5" style="text;html=1;strokeColor=none;fillColor=none;align=center;verticalAlign=middle;whiteSpace=wrap;rounded=0;" vertex="1" parent="1">
          <mxGeometry x="360.86" y="110" width="35" height="20" as="geometry" />
        </mxCell>
        <mxCell id="Vj-U8vJRpZduBcO-_pfV-12" value="swap" style="text;html=1;strokeColor=none;fillColor=none;align=center;verticalAlign=middle;whiteSpace=wrap;rounded=0;" vertex="1" parent="1">
          <mxGeometry x="405.86" y="110" width="35" height="20" as="geometry" />
        </mxCell>
        <mxCell id="Vj-U8vJRpZduBcO-_pfV-13" style="rounded=0;orthogonalLoop=1;jettySize=auto;html=1;exitX=0.5;exitY=1;exitDx=0;exitDy=0;dashed=1;startArrow=none;startFill=0;endArrow=open;endFill=0;strokeColor=#1A1A1A;entryX=0.5;entryY=0;entryDx=0;entryDy=0;" edge="1" parent="1" source="Vj-U8vJRpZduBcO-_pfV-14" target="Vj-U8vJRpZduBcO-_pfV-16">
          <mxGeometry relative="1" as="geometry" />
        </mxCell>
        <mxCell id="Vj-U8vJRpZduBcO-_pfV-14" value="4" style="ellipse;whiteSpace=wrap;html=1;aspect=fixed;" vertex="1" parent="1">
          <mxGeometry x="520.86" y="40" width="40" height="40" as="geometry" />
        </mxCell>
        <mxCell id="Vj-U8vJRpZduBcO-_pfV-15" value="5" style="text;html=1;strokeColor=none;fillColor=none;align=center;verticalAlign=middle;whiteSpace=wrap;rounded=0;" vertex="1" parent="1">
          <mxGeometry x="560.86" y="50" width="20" height="20" as="geometry" />
        </mxCell>
        <mxCell id="Vj-U8vJRpZduBcO-_pfV-16" value="5" style="ellipse;whiteSpace=wrap;html=1;aspect=fixed;fillColor=default;strokeColor=default;" vertex="1" parent="1">
          <mxGeometry x="480.86" y="160" width="40" height="40" as="geometry" />
        </mxCell>
        <mxCell id="Vj-U8vJRpZduBcO-_pfV-17" value="11" style="text;html=1;strokeColor=none;fillColor=none;align=center;verticalAlign=middle;whiteSpace=wrap;rounded=0;" vertex="1" parent="1">
          <mxGeometry x="520.86" y="170" width="20" height="20" as="geometry" />
        </mxCell>
        <mxCell id="Vj-U8vJRpZduBcO-_pfV-18" style="edgeStyle=none;rounded=0;orthogonalLoop=1;jettySize=auto;html=1;exitX=0;exitY=0.5;exitDx=0;exitDy=0;entryX=1;entryY=0.5;entryDx=0;entryDy=0;dashed=1;startArrow=none;startFill=0;endArrow=open;endFill=0;strokeColor=#66B2FF;" edge="1" parent="1" source="Vj-U8vJRpZduBcO-_pfV-19">
          <mxGeometry relative="1" as="geometry">
            <mxPoint x="580.8600000000001" y="60" as="targetPoint" />
          </mxGeometry>
        </mxCell>
        <mxCell id="Vj-U8vJRpZduBcO-_pfV-19" value="j" style="text;html=1;strokeColor=none;fillColor=none;align=center;verticalAlign=middle;whiteSpace=wrap;rounded=0;" vertex="1" parent="1">
          <mxGeometry x="600.86" y="50" width="20" height="20" as="geometry" />
        </mxCell>
      </root>
    </mxGraphModel>
  </diagram>
  <diagram id="AGwvnDwRDPHdJ7Os9kv5" name="Init">
    <mxGraphModel dx="1350" dy="764" grid="1" gridSize="10" guides="1" tooltips="1" connect="1" arrows="1" fold="1" page="1" pageScale="1" pageWidth="827" pageHeight="1169" math="0" shadow="0">
      <root>
        <mxCell id="0" />
        <mxCell id="1" parent="0" />
        <mxCell id="475mnNqVJ4nLoMuvFyL2-1" value="" style="rounded=0;whiteSpace=wrap;html=1;strokeColor=#6c8ebf;fillColor=none;" vertex="1" parent="1">
          <mxGeometry x="121.25" y="980" width="600" height="480" as="geometry" />
        </mxCell>
        <mxCell id="475mnNqVJ4nLoMuvFyL2-2" value="" style="rounded=0;whiteSpace=wrap;html=1;strokeColor=#6c8ebf;fillColor=none;" vertex="1" parent="1">
          <mxGeometry x="280" y="720" width="160" height="200" as="geometry" />
        </mxCell>
        <mxCell id="475mnNqVJ4nLoMuvFyL2-3" style="edgeStyle=none;rounded=0;orthogonalLoop=1;jettySize=auto;html=1;entryX=0.5;entryY=0;entryDx=0;entryDy=0;dashed=1;startArrow=none;startFill=0;endArrow=open;endFill=0;strokeColor=#1A1A1A;" edge="1" parent="1" source="475mnNqVJ4nLoMuvFyL2-5" target="475mnNqVJ4nLoMuvFyL2-14">
          <mxGeometry relative="1" as="geometry" />
        </mxCell>
        <mxCell id="475mnNqVJ4nLoMuvFyL2-4" style="edgeStyle=none;rounded=0;orthogonalLoop=1;jettySize=auto;html=1;dashed=1;startArrow=none;startFill=0;endArrow=open;endFill=0;strokeColor=#1A1A1A;entryX=0.5;entryY=0;entryDx=0;entryDy=0;" edge="1" parent="1" source="475mnNqVJ4nLoMuvFyL2-5" target="475mnNqVJ4nLoMuvFyL2-18">
          <mxGeometry relative="1" as="geometry" />
        </mxCell>
        <mxCell id="475mnNqVJ4nLoMuvFyL2-5" value="7" style="ellipse;whiteSpace=wrap;html=1;aspect=fixed;strokeColor=#1A1A1A;" vertex="1" parent="1">
          <mxGeometry x="260" y="620" width="40" height="40" as="geometry" />
        </mxCell>
        <mxCell id="475mnNqVJ4nLoMuvFyL2-6" style="edgeStyle=none;rounded=0;orthogonalLoop=1;jettySize=auto;html=1;dashed=1;startArrow=none;startFill=0;endArrow=open;endFill=0;strokeColor=#1A1A1A;entryX=0.5;entryY=0;entryDx=0;entryDy=0;" edge="1" parent="1" source="475mnNqVJ4nLoMuvFyL2-8" target="475mnNqVJ4nLoMuvFyL2-15">
          <mxGeometry relative="1" as="geometry">
            <mxPoint x="440" y="740" as="targetPoint" />
          </mxGeometry>
        </mxCell>
        <mxCell id="475mnNqVJ4nLoMuvFyL2-7" style="edgeStyle=none;rounded=0;orthogonalLoop=1;jettySize=auto;html=1;dashed=1;startArrow=none;startFill=0;endArrow=open;endFill=0;strokeColor=#1A1A1A;entryX=0.5;entryY=0;entryDx=0;entryDy=0;" edge="1" parent="1" source="475mnNqVJ4nLoMuvFyL2-8" target="475mnNqVJ4nLoMuvFyL2-19">
          <mxGeometry relative="1" as="geometry" />
        </mxCell>
        <mxCell id="475mnNqVJ4nLoMuvFyL2-8" value="5" style="ellipse;whiteSpace=wrap;html=1;aspect=fixed;" vertex="1" parent="1">
          <mxGeometry x="540" y="620" width="40" height="40" as="geometry" />
        </mxCell>
        <mxCell id="475mnNqVJ4nLoMuvFyL2-9" style="rounded=0;orthogonalLoop=1;jettySize=auto;html=1;entryX=0.5;entryY=0;entryDx=0;entryDy=0;dashed=1;startArrow=none;startFill=0;endArrow=open;endFill=0;strokeColor=#1A1A1A;" edge="1" parent="1" source="475mnNqVJ4nLoMuvFyL2-11" target="475mnNqVJ4nLoMuvFyL2-5">
          <mxGeometry relative="1" as="geometry" />
        </mxCell>
        <mxCell id="475mnNqVJ4nLoMuvFyL2-10" style="edgeStyle=none;rounded=0;orthogonalLoop=1;jettySize=auto;html=1;entryX=0.5;entryY=0;entryDx=0;entryDy=0;dashed=1;startArrow=none;startFill=0;endArrow=open;endFill=0;strokeColor=#1A1A1A;" edge="1" parent="1" source="475mnNqVJ4nLoMuvFyL2-11" target="475mnNqVJ4nLoMuvFyL2-8">
          <mxGeometry relative="1" as="geometry" />
        </mxCell>
        <mxCell id="475mnNqVJ4nLoMuvFyL2-11" value="8" style="ellipse;whiteSpace=wrap;html=1;aspect=fixed;" vertex="1" parent="1">
          <mxGeometry x="400" y="500" width="40" height="40" as="geometry" />
        </mxCell>
        <mxCell id="475mnNqVJ4nLoMuvFyL2-12" style="rounded=0;orthogonalLoop=1;jettySize=auto;html=1;entryX=0.5;entryY=0;entryDx=0;entryDy=0;dashed=1;startArrow=none;startFill=0;endArrow=open;endFill=0;strokeColor=#1A1A1A;" edge="1" parent="1" source="475mnNqVJ4nLoMuvFyL2-14" target="475mnNqVJ4nLoMuvFyL2-20">
          <mxGeometry relative="1" as="geometry" />
        </mxCell>
        <mxCell id="475mnNqVJ4nLoMuvFyL2-13" style="edgeStyle=none;rounded=0;orthogonalLoop=1;jettySize=auto;html=1;dashed=1;startArrow=none;startFill=0;endArrow=open;endFill=0;strokeColor=#1A1A1A;entryX=0.5;entryY=0;entryDx=0;entryDy=0;" edge="1" parent="1" source="475mnNqVJ4nLoMuvFyL2-14" target="475mnNqVJ4nLoMuvFyL2-21">
          <mxGeometry relative="1" as="geometry">
            <mxPoint x="280" y="860" as="targetPoint" />
          </mxGeometry>
        </mxCell>
        <mxCell id="475mnNqVJ4nLoMuvFyL2-14" value="12" style="ellipse;whiteSpace=wrap;html=1;aspect=fixed;fillColor=default;strokeColor=default;" vertex="1" parent="1">
          <mxGeometry x="180" y="740" width="40" height="40" as="geometry" />
        </mxCell>
        <mxCell id="475mnNqVJ4nLoMuvFyL2-15" value="2" style="ellipse;whiteSpace=wrap;html=1;aspect=fixed;" vertex="1" parent="1">
          <mxGeometry x="460" y="740" width="40" height="40" as="geometry" />
        </mxCell>
        <mxCell id="475mnNqVJ4nLoMuvFyL2-16" style="edgeStyle=none;rounded=0;orthogonalLoop=1;jettySize=auto;html=1;exitX=0.5;exitY=1;exitDx=0;exitDy=0;dashed=1;startArrow=none;startFill=0;endArrow=open;endFill=0;strokeColor=#1A1A1A;" edge="1" parent="1" source="475mnNqVJ4nLoMuvFyL2-18">
          <mxGeometry relative="1" as="geometry">
            <mxPoint x="320" y="860" as="targetPoint" />
          </mxGeometry>
        </mxCell>
        <mxCell id="475mnNqVJ4nLoMuvFyL2-17" style="edgeStyle=none;rounded=0;orthogonalLoop=1;jettySize=auto;html=1;exitX=0.5;exitY=1;exitDx=0;exitDy=0;entryX=0.5;entryY=0;entryDx=0;entryDy=0;dashed=1;startArrow=none;startFill=0;endArrow=open;endFill=0;strokeColor=#1A1A1A;" edge="1" parent="1" source="475mnNqVJ4nLoMuvFyL2-18" target="475mnNqVJ4nLoMuvFyL2-24">
          <mxGeometry relative="1" as="geometry" />
        </mxCell>
        <mxCell id="475mnNqVJ4nLoMuvFyL2-18" value="4" style="ellipse;whiteSpace=wrap;html=1;aspect=fixed;" vertex="1" parent="1">
          <mxGeometry x="340" y="740" width="40" height="40" as="geometry" />
        </mxCell>
        <mxCell id="475mnNqVJ4nLoMuvFyL2-19" value="11" style="ellipse;whiteSpace=wrap;html=1;aspect=fixed;" vertex="1" parent="1">
          <mxGeometry x="620" y="740" width="40" height="40" as="geometry" />
        </mxCell>
        <mxCell id="475mnNqVJ4nLoMuvFyL2-20" value="10" style="ellipse;whiteSpace=wrap;html=1;aspect=fixed;fillColor=default;strokeColor=default;" vertex="1" parent="1">
          <mxGeometry x="140" y="860" width="40" height="40" as="geometry" />
        </mxCell>
        <mxCell id="475mnNqVJ4nLoMuvFyL2-21" value="1" style="ellipse;whiteSpace=wrap;html=1;aspect=fixed;" vertex="1" parent="1">
          <mxGeometry x="220" y="860" width="40" height="40" as="geometry" />
        </mxCell>
        <mxCell id="475mnNqVJ4nLoMuvFyL2-22" value="6" style="ellipse;whiteSpace=wrap;html=1;aspect=fixed;fillColor=default;strokeColor=default;" vertex="1" parent="1">
          <mxGeometry x="300" y="860" width="40" height="40" as="geometry" />
        </mxCell>
        <mxCell id="475mnNqVJ4nLoMuvFyL2-23" style="edgeStyle=orthogonalEdgeStyle;curved=1;rounded=0;orthogonalLoop=1;jettySize=auto;html=1;exitX=1;exitY=0;exitDx=0;exitDy=0;entryX=1;entryY=1;entryDx=0;entryDy=0;dashed=1;startArrow=open;startFill=0;endArrow=open;endFill=0;strokeColor=#66B2FF;" edge="1" parent="1" source="475mnNqVJ4nLoMuvFyL2-24" target="475mnNqVJ4nLoMuvFyL2-18">
          <mxGeometry relative="1" as="geometry">
            <Array as="points">
              <mxPoint x="414" y="820" />
              <mxPoint x="390" y="820" />
              <mxPoint x="390" y="774" />
            </Array>
          </mxGeometry>
        </mxCell>
        <mxCell id="475mnNqVJ4nLoMuvFyL2-24" value="3" style="ellipse;whiteSpace=wrap;html=1;aspect=fixed;" vertex="1" parent="1">
          <mxGeometry x="380" y="860" width="40" height="40" as="geometry" />
        </mxCell>
        <mxCell id="475mnNqVJ4nLoMuvFyL2-25" value="0" style="text;html=1;strokeColor=none;fillColor=none;align=center;verticalAlign=middle;whiteSpace=wrap;rounded=0;" vertex="1" parent="1">
          <mxGeometry x="410" y="480" width="20" height="20" as="geometry" />
        </mxCell>
        <mxCell id="475mnNqVJ4nLoMuvFyL2-26" value="1" style="text;html=1;strokeColor=none;fillColor=none;align=center;verticalAlign=middle;whiteSpace=wrap;rounded=0;" vertex="1" parent="1">
          <mxGeometry x="240" y="630" width="20" height="20" as="geometry" />
        </mxCell>
        <mxCell id="475mnNqVJ4nLoMuvFyL2-27" value="3" style="text;html=1;strokeColor=none;fillColor=none;align=center;verticalAlign=middle;whiteSpace=wrap;rounded=0;" vertex="1" parent="1">
          <mxGeometry x="160" y="750" width="20" height="20" as="geometry" />
        </mxCell>
        <mxCell id="475mnNqVJ4nLoMuvFyL2-28" value="4" style="text;html=1;strokeColor=none;fillColor=none;align=center;verticalAlign=middle;whiteSpace=wrap;rounded=0;" vertex="1" parent="1">
          <mxGeometry x="320" y="750" width="20" height="20" as="geometry" />
        </mxCell>
        <mxCell id="475mnNqVJ4nLoMuvFyL2-29" value="7" style="text;html=1;strokeColor=none;fillColor=none;align=center;verticalAlign=middle;whiteSpace=wrap;rounded=0;" vertex="1" parent="1">
          <mxGeometry x="120" y="870" width="20" height="20" as="geometry" />
        </mxCell>
        <mxCell id="475mnNqVJ4nLoMuvFyL2-30" value="8" style="text;html=1;strokeColor=none;fillColor=none;align=center;verticalAlign=middle;whiteSpace=wrap;rounded=0;" vertex="1" parent="1">
          <mxGeometry x="200" y="870" width="20" height="20" as="geometry" />
        </mxCell>
        <mxCell id="475mnNqVJ4nLoMuvFyL2-31" value="9" style="text;html=1;strokeColor=none;fillColor=none;align=center;verticalAlign=middle;whiteSpace=wrap;rounded=0;" vertex="1" parent="1">
          <mxGeometry x="280" y="870" width="20" height="20" as="geometry" />
        </mxCell>
        <mxCell id="475mnNqVJ4nLoMuvFyL2-32" value="10" style="text;html=1;strokeColor=none;fillColor=none;align=center;verticalAlign=middle;whiteSpace=wrap;rounded=0;" vertex="1" parent="1">
          <mxGeometry x="360" y="870" width="20" height="20" as="geometry" />
        </mxCell>
        <mxCell id="475mnNqVJ4nLoMuvFyL2-33" value="5" style="text;html=1;strokeColor=none;fillColor=none;align=center;verticalAlign=middle;whiteSpace=wrap;rounded=0;" vertex="1" parent="1">
          <mxGeometry x="500" y="750" width="20" height="20" as="geometry" />
        </mxCell>
        <mxCell id="475mnNqVJ4nLoMuvFyL2-34" value="6" style="text;html=1;strokeColor=none;fillColor=none;align=center;verticalAlign=middle;whiteSpace=wrap;rounded=0;" vertex="1" parent="1">
          <mxGeometry x="660" y="750" width="20" height="20" as="geometry" />
        </mxCell>
        <mxCell id="475mnNqVJ4nLoMuvFyL2-35" value="2" style="text;html=1;strokeColor=none;fillColor=none;align=center;verticalAlign=middle;whiteSpace=wrap;rounded=0;" vertex="1" parent="1">
          <mxGeometry x="580" y="630" width="20" height="20" as="geometry" />
        </mxCell>
        <mxCell id="475mnNqVJ4nLoMuvFyL2-36" style="edgeStyle=orthogonalEdgeStyle;curved=1;rounded=0;orthogonalLoop=1;jettySize=auto;html=1;exitX=0;exitY=0.5;exitDx=0;exitDy=0;entryX=1;entryY=0;entryDx=0;entryDy=0;dashed=1;startArrow=none;startFill=0;endArrow=open;endFill=0;strokeColor=#66B2FF;" edge="1" parent="1" source="475mnNqVJ4nLoMuvFyL2-37" target="475mnNqVJ4nLoMuvFyL2-18">
          <mxGeometry relative="1" as="geometry" />
        </mxCell>
        <mxCell id="475mnNqVJ4nLoMuvFyL2-37" value="n / 2 - 1" style="text;html=1;strokeColor=none;fillColor=none;align=center;verticalAlign=middle;whiteSpace=wrap;rounded=0;" vertex="1" parent="1">
          <mxGeometry x="421.25" y="680" width="50" height="20" as="geometry" />
        </mxCell>
        <mxCell id="475mnNqVJ4nLoMuvFyL2-38" value="down" style="text;html=1;strokeColor=none;fillColor=none;align=center;verticalAlign=middle;whiteSpace=wrap;rounded=0;" vertex="1" parent="1">
          <mxGeometry x="280" y="720" width="40" height="20" as="geometry" />
        </mxCell>
        <mxCell id="475mnNqVJ4nLoMuvFyL2-39" style="edgeStyle=none;rounded=0;orthogonalLoop=1;jettySize=auto;html=1;entryX=0.5;entryY=0;entryDx=0;entryDy=0;dashed=1;startArrow=none;startFill=0;endArrow=open;endFill=0;strokeColor=#1A1A1A;" edge="1" parent="1" source="475mnNqVJ4nLoMuvFyL2-41" target="475mnNqVJ4nLoMuvFyL2-50">
          <mxGeometry relative="1" as="geometry" />
        </mxCell>
        <mxCell id="475mnNqVJ4nLoMuvFyL2-40" style="edgeStyle=none;rounded=0;orthogonalLoop=1;jettySize=auto;html=1;dashed=1;startArrow=none;startFill=0;endArrow=open;endFill=0;strokeColor=#1A1A1A;entryX=0.5;entryY=0;entryDx=0;entryDy=0;" edge="1" parent="1" source="475mnNqVJ4nLoMuvFyL2-41" target="475mnNqVJ4nLoMuvFyL2-54">
          <mxGeometry relative="1" as="geometry" />
        </mxCell>
        <mxCell id="475mnNqVJ4nLoMuvFyL2-41" value="7" style="ellipse;whiteSpace=wrap;html=1;aspect=fixed;strokeColor=#1A1A1A;" vertex="1" parent="1">
          <mxGeometry x="260" y="160" width="40" height="40" as="geometry" />
        </mxCell>
        <mxCell id="475mnNqVJ4nLoMuvFyL2-42" style="edgeStyle=none;rounded=0;orthogonalLoop=1;jettySize=auto;html=1;dashed=1;startArrow=none;startFill=0;endArrow=open;endFill=0;strokeColor=#1A1A1A;entryX=0.5;entryY=0;entryDx=0;entryDy=0;" edge="1" parent="1" source="475mnNqVJ4nLoMuvFyL2-44" target="475mnNqVJ4nLoMuvFyL2-51">
          <mxGeometry relative="1" as="geometry">
            <mxPoint x="440" y="280" as="targetPoint" />
          </mxGeometry>
        </mxCell>
        <mxCell id="475mnNqVJ4nLoMuvFyL2-43" style="edgeStyle=none;rounded=0;orthogonalLoop=1;jettySize=auto;html=1;dashed=1;startArrow=none;startFill=0;endArrow=open;endFill=0;strokeColor=#1A1A1A;entryX=0.5;entryY=0;entryDx=0;entryDy=0;" edge="1" parent="1" source="475mnNqVJ4nLoMuvFyL2-44" target="475mnNqVJ4nLoMuvFyL2-55">
          <mxGeometry relative="1" as="geometry" />
        </mxCell>
        <mxCell id="475mnNqVJ4nLoMuvFyL2-44" value="5" style="ellipse;whiteSpace=wrap;html=1;aspect=fixed;" vertex="1" parent="1">
          <mxGeometry x="540" y="160" width="40" height="40" as="geometry" />
        </mxCell>
        <mxCell id="475mnNqVJ4nLoMuvFyL2-45" style="rounded=0;orthogonalLoop=1;jettySize=auto;html=1;entryX=0.5;entryY=0;entryDx=0;entryDy=0;dashed=1;startArrow=none;startFill=0;endArrow=open;endFill=0;strokeColor=#1A1A1A;" edge="1" parent="1" source="475mnNqVJ4nLoMuvFyL2-47" target="475mnNqVJ4nLoMuvFyL2-41">
          <mxGeometry relative="1" as="geometry" />
        </mxCell>
        <mxCell id="475mnNqVJ4nLoMuvFyL2-46" style="edgeStyle=none;rounded=0;orthogonalLoop=1;jettySize=auto;html=1;entryX=0.5;entryY=0;entryDx=0;entryDy=0;dashed=1;startArrow=none;startFill=0;endArrow=open;endFill=0;strokeColor=#1A1A1A;" edge="1" parent="1" source="475mnNqVJ4nLoMuvFyL2-47" target="475mnNqVJ4nLoMuvFyL2-44">
          <mxGeometry relative="1" as="geometry" />
        </mxCell>
        <mxCell id="475mnNqVJ4nLoMuvFyL2-47" value="8" style="ellipse;whiteSpace=wrap;html=1;aspect=fixed;" vertex="1" parent="1">
          <mxGeometry x="400" y="40" width="40" height="40" as="geometry" />
        </mxCell>
        <mxCell id="475mnNqVJ4nLoMuvFyL2-48" style="rounded=0;orthogonalLoop=1;jettySize=auto;html=1;entryX=0.5;entryY=0;entryDx=0;entryDy=0;dashed=1;startArrow=none;startFill=0;endArrow=open;endFill=0;strokeColor=#1A1A1A;" edge="1" parent="1" source="475mnNqVJ4nLoMuvFyL2-50" target="475mnNqVJ4nLoMuvFyL2-56">
          <mxGeometry relative="1" as="geometry" />
        </mxCell>
        <mxCell id="475mnNqVJ4nLoMuvFyL2-49" style="edgeStyle=none;rounded=0;orthogonalLoop=1;jettySize=auto;html=1;dashed=1;startArrow=none;startFill=0;endArrow=open;endFill=0;strokeColor=#1A1A1A;entryX=0.5;entryY=0;entryDx=0;entryDy=0;" edge="1" parent="1" source="475mnNqVJ4nLoMuvFyL2-50" target="475mnNqVJ4nLoMuvFyL2-57">
          <mxGeometry relative="1" as="geometry">
            <mxPoint x="280" y="400" as="targetPoint" />
          </mxGeometry>
        </mxCell>
        <mxCell id="475mnNqVJ4nLoMuvFyL2-50" value="12" style="ellipse;whiteSpace=wrap;html=1;aspect=fixed;fillColor=default;strokeColor=default;" vertex="1" parent="1">
          <mxGeometry x="180" y="280" width="40" height="40" as="geometry" />
        </mxCell>
        <mxCell id="475mnNqVJ4nLoMuvFyL2-51" value="2" style="ellipse;whiteSpace=wrap;html=1;aspect=fixed;" vertex="1" parent="1">
          <mxGeometry x="460" y="280" width="40" height="40" as="geometry" />
        </mxCell>
        <mxCell id="475mnNqVJ4nLoMuvFyL2-52" style="edgeStyle=none;rounded=0;orthogonalLoop=1;jettySize=auto;html=1;exitX=0.5;exitY=1;exitDx=0;exitDy=0;dashed=1;startArrow=none;startFill=0;endArrow=open;endFill=0;strokeColor=#1A1A1A;" edge="1" parent="1" source="475mnNqVJ4nLoMuvFyL2-54">
          <mxGeometry relative="1" as="geometry">
            <mxPoint x="320" y="400" as="targetPoint" />
          </mxGeometry>
        </mxCell>
        <mxCell id="475mnNqVJ4nLoMuvFyL2-53" style="edgeStyle=none;rounded=0;orthogonalLoop=1;jettySize=auto;html=1;exitX=0.5;exitY=1;exitDx=0;exitDy=0;entryX=0.5;entryY=0;entryDx=0;entryDy=0;dashed=1;startArrow=none;startFill=0;endArrow=open;endFill=0;strokeColor=#1A1A1A;" edge="1" parent="1" source="475mnNqVJ4nLoMuvFyL2-54" target="475mnNqVJ4nLoMuvFyL2-59">
          <mxGeometry relative="1" as="geometry" />
        </mxCell>
        <mxCell id="475mnNqVJ4nLoMuvFyL2-54" value="4" style="ellipse;whiteSpace=wrap;html=1;aspect=fixed;" vertex="1" parent="1">
          <mxGeometry x="340" y="280" width="40" height="40" as="geometry" />
        </mxCell>
        <mxCell id="475mnNqVJ4nLoMuvFyL2-55" value="11" style="ellipse;whiteSpace=wrap;html=1;aspect=fixed;" vertex="1" parent="1">
          <mxGeometry x="620" y="280" width="40" height="40" as="geometry" />
        </mxCell>
        <mxCell id="475mnNqVJ4nLoMuvFyL2-56" value="10" style="ellipse;whiteSpace=wrap;html=1;aspect=fixed;fillColor=default;strokeColor=default;" vertex="1" parent="1">
          <mxGeometry x="140" y="400" width="40" height="40" as="geometry" />
        </mxCell>
        <mxCell id="475mnNqVJ4nLoMuvFyL2-57" value="1" style="ellipse;whiteSpace=wrap;html=1;aspect=fixed;" vertex="1" parent="1">
          <mxGeometry x="220" y="400" width="40" height="40" as="geometry" />
        </mxCell>
        <mxCell id="475mnNqVJ4nLoMuvFyL2-58" value="6" style="ellipse;whiteSpace=wrap;html=1;aspect=fixed;fillColor=default;strokeColor=default;" vertex="1" parent="1">
          <mxGeometry x="300" y="400" width="40" height="40" as="geometry" />
        </mxCell>
        <mxCell id="475mnNqVJ4nLoMuvFyL2-59" value="3" style="ellipse;whiteSpace=wrap;html=1;aspect=fixed;" vertex="1" parent="1">
          <mxGeometry x="380" y="400" width="40" height="40" as="geometry" />
        </mxCell>
        <mxCell id="475mnNqVJ4nLoMuvFyL2-60" value="0" style="text;html=1;strokeColor=none;fillColor=none;align=center;verticalAlign=middle;whiteSpace=wrap;rounded=0;" vertex="1" parent="1">
          <mxGeometry x="410" y="20" width="20" height="20" as="geometry" />
        </mxCell>
        <mxCell id="475mnNqVJ4nLoMuvFyL2-61" value="1" style="text;html=1;strokeColor=none;fillColor=none;align=center;verticalAlign=middle;whiteSpace=wrap;rounded=0;" vertex="1" parent="1">
          <mxGeometry x="240" y="170" width="20" height="20" as="geometry" />
        </mxCell>
        <mxCell id="475mnNqVJ4nLoMuvFyL2-62" value="3" style="text;html=1;strokeColor=none;fillColor=none;align=center;verticalAlign=middle;whiteSpace=wrap;rounded=0;" vertex="1" parent="1">
          <mxGeometry x="160" y="290" width="20" height="20" as="geometry" />
        </mxCell>
        <mxCell id="475mnNqVJ4nLoMuvFyL2-63" value="4" style="text;html=1;strokeColor=none;fillColor=none;align=center;verticalAlign=middle;whiteSpace=wrap;rounded=0;" vertex="1" parent="1">
          <mxGeometry x="320" y="290" width="20" height="20" as="geometry" />
        </mxCell>
        <mxCell id="475mnNqVJ4nLoMuvFyL2-64" value="7" style="text;html=1;strokeColor=none;fillColor=none;align=center;verticalAlign=middle;whiteSpace=wrap;rounded=0;" vertex="1" parent="1">
          <mxGeometry x="120" y="410" width="20" height="20" as="geometry" />
        </mxCell>
        <mxCell id="475mnNqVJ4nLoMuvFyL2-65" value="8" style="text;html=1;strokeColor=none;fillColor=none;align=center;verticalAlign=middle;whiteSpace=wrap;rounded=0;" vertex="1" parent="1">
          <mxGeometry x="200" y="410" width="20" height="20" as="geometry" />
        </mxCell>
        <mxCell id="475mnNqVJ4nLoMuvFyL2-66" value="9" style="text;html=1;strokeColor=none;fillColor=none;align=center;verticalAlign=middle;whiteSpace=wrap;rounded=0;" vertex="1" parent="1">
          <mxGeometry x="280" y="410" width="20" height="20" as="geometry" />
        </mxCell>
        <mxCell id="475mnNqVJ4nLoMuvFyL2-67" value="10" style="text;html=1;strokeColor=none;fillColor=none;align=center;verticalAlign=middle;whiteSpace=wrap;rounded=0;" vertex="1" parent="1">
          <mxGeometry x="360" y="410" width="20" height="20" as="geometry" />
        </mxCell>
        <mxCell id="475mnNqVJ4nLoMuvFyL2-68" value="5" style="text;html=1;strokeColor=none;fillColor=none;align=center;verticalAlign=middle;whiteSpace=wrap;rounded=0;" vertex="1" parent="1">
          <mxGeometry x="500" y="290" width="20" height="20" as="geometry" />
        </mxCell>
        <mxCell id="475mnNqVJ4nLoMuvFyL2-69" value="6" style="text;html=1;strokeColor=none;fillColor=none;align=center;verticalAlign=middle;whiteSpace=wrap;rounded=0;" vertex="1" parent="1">
          <mxGeometry x="660" y="290" width="20" height="20" as="geometry" />
        </mxCell>
        <mxCell id="475mnNqVJ4nLoMuvFyL2-70" value="2" style="text;html=1;strokeColor=none;fillColor=none;align=center;verticalAlign=middle;whiteSpace=wrap;rounded=0;" vertex="1" parent="1">
          <mxGeometry x="580" y="170" width="20" height="20" as="geometry" />
        </mxCell>
        <mxCell id="475mnNqVJ4nLoMuvFyL2-71" value="i" style="text;html=1;strokeColor=none;fillColor=none;align=center;verticalAlign=middle;whiteSpace=wrap;rounded=0;" vertex="1" parent="1">
          <mxGeometry x="366.25" y="690" width="20" height="20" as="geometry" />
        </mxCell>
        <mxCell id="475mnNqVJ4nLoMuvFyL2-72" style="edgeStyle=none;rounded=0;orthogonalLoop=1;jettySize=auto;html=1;entryX=0.5;entryY=0;entryDx=0;entryDy=0;dashed=1;startArrow=none;startFill=0;endArrow=open;endFill=0;strokeColor=#1A1A1A;" edge="1" parent="1" source="475mnNqVJ4nLoMuvFyL2-76" target="475mnNqVJ4nLoMuvFyL2-87">
          <mxGeometry relative="1" as="geometry" />
        </mxCell>
        <mxCell id="475mnNqVJ4nLoMuvFyL2-73" style="edgeStyle=none;rounded=0;orthogonalLoop=1;jettySize=auto;html=1;dashed=1;startArrow=none;startFill=0;endArrow=open;endFill=0;strokeColor=#1A1A1A;entryX=0.5;entryY=0;entryDx=0;entryDy=0;" edge="1" parent="1" source="475mnNqVJ4nLoMuvFyL2-76" target="475mnNqVJ4nLoMuvFyL2-93">
          <mxGeometry relative="1" as="geometry" />
        </mxCell>
        <mxCell id="475mnNqVJ4nLoMuvFyL2-74" style="edgeStyle=orthogonalEdgeStyle;curved=1;rounded=0;orthogonalLoop=1;jettySize=auto;html=1;exitX=0.5;exitY=0;exitDx=0;exitDy=0;entryX=0;entryY=0.5;entryDx=0;entryDy=0;dashed=1;startArrow=none;startFill=0;endArrow=open;endFill=0;strokeColor=#66B2FF;" edge="1" parent="1" source="475mnNqVJ4nLoMuvFyL2-76" target="475mnNqVJ4nLoMuvFyL2-83">
          <mxGeometry relative="1" as="geometry" />
        </mxCell>
        <mxCell id="475mnNqVJ4nLoMuvFyL2-75" style="edgeStyle=orthogonalEdgeStyle;curved=1;rounded=0;orthogonalLoop=1;jettySize=auto;html=1;exitX=0.5;exitY=1;exitDx=0;exitDy=0;entryX=0;entryY=0;entryDx=0;entryDy=0;dashed=1;startArrow=none;startFill=0;endArrow=open;endFill=0;strokeColor=#FF3333;" edge="1" parent="1" source="475mnNqVJ4nLoMuvFyL2-76" target="475mnNqVJ4nLoMuvFyL2-93">
          <mxGeometry relative="1" as="geometry">
            <Array as="points">
              <mxPoint x="281.25" y="1220" />
              <mxPoint x="321.25" y="1220" />
              <mxPoint x="321.25" y="1266" />
            </Array>
          </mxGeometry>
        </mxCell>
        <mxCell id="475mnNqVJ4nLoMuvFyL2-76" value="3" style="ellipse;whiteSpace=wrap;html=1;aspect=fixed;strokeColor=#1A1A1A;" vertex="1" parent="1">
          <mxGeometry x="261.25" y="1140" width="40" height="40" as="geometry" />
        </mxCell>
        <mxCell id="475mnNqVJ4nLoMuvFyL2-77" style="edgeStyle=none;rounded=0;orthogonalLoop=1;jettySize=auto;html=1;dashed=1;startArrow=none;startFill=0;endArrow=open;endFill=0;strokeColor=#1A1A1A;entryX=0.5;entryY=0;entryDx=0;entryDy=0;" edge="1" parent="1" source="475mnNqVJ4nLoMuvFyL2-80" target="475mnNqVJ4nLoMuvFyL2-88">
          <mxGeometry relative="1" as="geometry">
            <mxPoint x="441.25" y="1260" as="targetPoint" />
          </mxGeometry>
        </mxCell>
        <mxCell id="475mnNqVJ4nLoMuvFyL2-78" style="edgeStyle=none;rounded=0;orthogonalLoop=1;jettySize=auto;html=1;dashed=1;startArrow=none;startFill=0;endArrow=open;endFill=0;strokeColor=#1A1A1A;entryX=0.5;entryY=0;entryDx=0;entryDy=0;" edge="1" parent="1" source="475mnNqVJ4nLoMuvFyL2-80" target="475mnNqVJ4nLoMuvFyL2-94">
          <mxGeometry relative="1" as="geometry" />
        </mxCell>
        <mxCell id="475mnNqVJ4nLoMuvFyL2-79" style="edgeStyle=orthogonalEdgeStyle;curved=1;rounded=0;orthogonalLoop=1;jettySize=auto;html=1;exitX=0;exitY=0.5;exitDx=0;exitDy=0;entryX=1;entryY=0.5;entryDx=0;entryDy=0;dashed=1;startArrow=none;startFill=0;endArrow=open;endFill=0;strokeColor=#66B2FF;" edge="1" parent="1" source="475mnNqVJ4nLoMuvFyL2-80" target="475mnNqVJ4nLoMuvFyL2-76">
          <mxGeometry relative="1" as="geometry" />
        </mxCell>
        <mxCell id="475mnNqVJ4nLoMuvFyL2-80" value="2" style="ellipse;whiteSpace=wrap;html=1;aspect=fixed;" vertex="1" parent="1">
          <mxGeometry x="541.25" y="1140" width="40" height="40" as="geometry" />
        </mxCell>
        <mxCell id="475mnNqVJ4nLoMuvFyL2-81" style="rounded=0;orthogonalLoop=1;jettySize=auto;html=1;entryX=0.5;entryY=0;entryDx=0;entryDy=0;dashed=1;startArrow=none;startFill=0;endArrow=open;endFill=0;strokeColor=#1A1A1A;" edge="1" parent="1" source="475mnNqVJ4nLoMuvFyL2-83" target="475mnNqVJ4nLoMuvFyL2-76">
          <mxGeometry relative="1" as="geometry" />
        </mxCell>
        <mxCell id="475mnNqVJ4nLoMuvFyL2-82" style="edgeStyle=none;rounded=0;orthogonalLoop=1;jettySize=auto;html=1;entryX=0.5;entryY=0;entryDx=0;entryDy=0;dashed=1;startArrow=none;startFill=0;endArrow=open;endFill=0;strokeColor=#1A1A1A;" edge="1" parent="1" source="475mnNqVJ4nLoMuvFyL2-83" target="475mnNqVJ4nLoMuvFyL2-80">
          <mxGeometry relative="1" as="geometry" />
        </mxCell>
        <mxCell id="475mnNqVJ4nLoMuvFyL2-83" value="1" style="ellipse;whiteSpace=wrap;html=1;aspect=fixed;" vertex="1" parent="1">
          <mxGeometry x="401.25" y="1020" width="40" height="40" as="geometry" />
        </mxCell>
        <mxCell id="475mnNqVJ4nLoMuvFyL2-84" style="rounded=0;orthogonalLoop=1;jettySize=auto;html=1;entryX=0.5;entryY=0;entryDx=0;entryDy=0;dashed=1;startArrow=none;startFill=0;endArrow=open;endFill=0;strokeColor=#1A1A1A;" edge="1" parent="1" source="475mnNqVJ4nLoMuvFyL2-87" target="475mnNqVJ4nLoMuvFyL2-95">
          <mxGeometry relative="1" as="geometry" />
        </mxCell>
        <mxCell id="475mnNqVJ4nLoMuvFyL2-85" style="edgeStyle=none;rounded=0;orthogonalLoop=1;jettySize=auto;html=1;dashed=1;startArrow=none;startFill=0;endArrow=open;endFill=0;strokeColor=#1A1A1A;entryX=0.5;entryY=0;entryDx=0;entryDy=0;" edge="1" parent="1" source="475mnNqVJ4nLoMuvFyL2-87" target="475mnNqVJ4nLoMuvFyL2-96">
          <mxGeometry relative="1" as="geometry">
            <mxPoint x="281.25" y="1380" as="targetPoint" />
          </mxGeometry>
        </mxCell>
        <mxCell id="475mnNqVJ4nLoMuvFyL2-86" style="edgeStyle=orthogonalEdgeStyle;curved=1;rounded=0;orthogonalLoop=1;jettySize=auto;html=1;exitX=1;exitY=0;exitDx=0;exitDy=0;entryX=0.5;entryY=1;entryDx=0;entryDy=0;dashed=1;startArrow=none;startFill=0;endArrow=open;endFill=0;strokeColor=#66B2FF;" edge="1" parent="1" source="475mnNqVJ4nLoMuvFyL2-87" target="475mnNqVJ4nLoMuvFyL2-80">
          <mxGeometry relative="1" as="geometry">
            <Array as="points">
              <mxPoint x="215.25" y="1210" />
              <mxPoint x="561.25" y="1210" />
            </Array>
          </mxGeometry>
        </mxCell>
        <mxCell id="475mnNqVJ4nLoMuvFyL2-87" value="7" style="ellipse;whiteSpace=wrap;html=1;aspect=fixed;fillColor=default;strokeColor=default;" vertex="1" parent="1">
          <mxGeometry x="181.25" y="1260" width="40" height="40" as="geometry" />
        </mxCell>
        <mxCell id="475mnNqVJ4nLoMuvFyL2-88" value="5" style="ellipse;whiteSpace=wrap;html=1;aspect=fixed;" vertex="1" parent="1">
          <mxGeometry x="461.25" y="1260" width="40" height="40" as="geometry" />
        </mxCell>
        <mxCell id="475mnNqVJ4nLoMuvFyL2-89" style="edgeStyle=none;rounded=0;orthogonalLoop=1;jettySize=auto;html=1;exitX=0.5;exitY=1;exitDx=0;exitDy=0;dashed=1;startArrow=none;startFill=0;endArrow=open;endFill=0;strokeColor=#1A1A1A;" edge="1" parent="1" source="475mnNqVJ4nLoMuvFyL2-93">
          <mxGeometry relative="1" as="geometry">
            <mxPoint x="321.25" y="1380" as="targetPoint" />
          </mxGeometry>
        </mxCell>
        <mxCell id="475mnNqVJ4nLoMuvFyL2-90" style="edgeStyle=none;rounded=0;orthogonalLoop=1;jettySize=auto;html=1;exitX=0.5;exitY=1;exitDx=0;exitDy=0;entryX=0.5;entryY=0;entryDx=0;entryDy=0;dashed=1;startArrow=none;startFill=0;endArrow=open;endFill=0;strokeColor=#1A1A1A;" edge="1" parent="1" source="475mnNqVJ4nLoMuvFyL2-93" target="475mnNqVJ4nLoMuvFyL2-98">
          <mxGeometry relative="1" as="geometry" />
        </mxCell>
        <mxCell id="475mnNqVJ4nLoMuvFyL2-91" style="edgeStyle=orthogonalEdgeStyle;curved=1;rounded=0;orthogonalLoop=1;jettySize=auto;html=1;exitX=0;exitY=0;exitDx=0;exitDy=0;entryX=1;entryY=0.5;entryDx=0;entryDy=0;dashed=1;startArrow=none;startFill=0;endArrow=open;endFill=0;strokeColor=#66B2FF;" edge="1" parent="1" source="475mnNqVJ4nLoMuvFyL2-93" target="475mnNqVJ4nLoMuvFyL2-87">
          <mxGeometry relative="1" as="geometry">
            <Array as="points">
              <mxPoint x="347.25" y="1280" />
            </Array>
          </mxGeometry>
        </mxCell>
        <mxCell id="475mnNqVJ4nLoMuvFyL2-92" style="edgeStyle=orthogonalEdgeStyle;curved=1;rounded=0;orthogonalLoop=1;jettySize=auto;html=1;exitX=1;exitY=1;exitDx=0;exitDy=0;entryX=1;entryY=0;entryDx=0;entryDy=0;dashed=1;startArrow=none;startFill=0;endArrow=open;endFill=0;strokeColor=#FF3333;" edge="1" parent="1" source="475mnNqVJ4nLoMuvFyL2-93" target="475mnNqVJ4nLoMuvFyL2-98">
          <mxGeometry relative="1" as="geometry">
            <Array as="points">
              <mxPoint x="391.25" y="1294" />
              <mxPoint x="391.25" y="1340" />
              <mxPoint x="415.25" y="1340" />
            </Array>
          </mxGeometry>
        </mxCell>
        <mxCell id="475mnNqVJ4nLoMuvFyL2-93" value="4" style="ellipse;whiteSpace=wrap;html=1;aspect=fixed;" vertex="1" parent="1">
          <mxGeometry x="341.25" y="1260" width="40" height="40" as="geometry" />
        </mxCell>
        <mxCell id="475mnNqVJ4nLoMuvFyL2-94" value="11" style="ellipse;whiteSpace=wrap;html=1;aspect=fixed;" vertex="1" parent="1">
          <mxGeometry x="621.25" y="1260" width="40" height="40" as="geometry" />
        </mxCell>
        <mxCell id="475mnNqVJ4nLoMuvFyL2-95" value="10" style="ellipse;whiteSpace=wrap;html=1;aspect=fixed;fillColor=default;strokeColor=default;" vertex="1" parent="1">
          <mxGeometry x="141.25" y="1380" width="40" height="40" as="geometry" />
        </mxCell>
        <mxCell id="475mnNqVJ4nLoMuvFyL2-96" value="12" style="ellipse;whiteSpace=wrap;html=1;aspect=fixed;" vertex="1" parent="1">
          <mxGeometry x="221.25" y="1380" width="40" height="40" as="geometry" />
        </mxCell>
        <mxCell id="475mnNqVJ4nLoMuvFyL2-97" value="6" style="ellipse;whiteSpace=wrap;html=1;aspect=fixed;fillColor=default;strokeColor=default;" vertex="1" parent="1">
          <mxGeometry x="301.25" y="1380" width="40" height="40" as="geometry" />
        </mxCell>
        <mxCell id="475mnNqVJ4nLoMuvFyL2-98" value="8" style="ellipse;whiteSpace=wrap;html=1;aspect=fixed;" vertex="1" parent="1">
          <mxGeometry x="381.25" y="1380" width="40" height="40" as="geometry" />
        </mxCell>
        <mxCell id="475mnNqVJ4nLoMuvFyL2-99" value="0" style="text;html=1;strokeColor=none;fillColor=none;align=center;verticalAlign=middle;whiteSpace=wrap;rounded=0;" vertex="1" parent="1">
          <mxGeometry x="411.25" y="1000" width="20" height="20" as="geometry" />
        </mxCell>
        <mxCell id="475mnNqVJ4nLoMuvFyL2-100" value="1" style="text;html=1;strokeColor=none;fillColor=none;align=center;verticalAlign=middle;whiteSpace=wrap;rounded=0;" vertex="1" parent="1">
          <mxGeometry x="241.25" y="1150" width="20" height="20" as="geometry" />
        </mxCell>
        <mxCell id="475mnNqVJ4nLoMuvFyL2-101" value="3" style="text;html=1;strokeColor=none;fillColor=none;align=center;verticalAlign=middle;whiteSpace=wrap;rounded=0;" vertex="1" parent="1">
          <mxGeometry x="161.25" y="1270" width="20" height="20" as="geometry" />
        </mxCell>
        <mxCell id="475mnNqVJ4nLoMuvFyL2-102" value="4" style="text;html=1;strokeColor=none;fillColor=none;align=center;verticalAlign=middle;whiteSpace=wrap;rounded=0;" vertex="1" parent="1">
          <mxGeometry x="321.25" y="1270" width="20" height="20" as="geometry" />
        </mxCell>
        <mxCell id="475mnNqVJ4nLoMuvFyL2-103" value="7" style="text;html=1;strokeColor=none;fillColor=none;align=center;verticalAlign=middle;whiteSpace=wrap;rounded=0;" vertex="1" parent="1">
          <mxGeometry x="121.25" y="1390" width="20" height="20" as="geometry" />
        </mxCell>
        <mxCell id="475mnNqVJ4nLoMuvFyL2-104" value="8" style="text;html=1;strokeColor=none;fillColor=none;align=center;verticalAlign=middle;whiteSpace=wrap;rounded=0;" vertex="1" parent="1">
          <mxGeometry x="201.25" y="1390" width="20" height="20" as="geometry" />
        </mxCell>
        <mxCell id="475mnNqVJ4nLoMuvFyL2-105" value="9" style="text;html=1;strokeColor=none;fillColor=none;align=center;verticalAlign=middle;whiteSpace=wrap;rounded=0;" vertex="1" parent="1">
          <mxGeometry x="281.25" y="1390" width="20" height="20" as="geometry" />
        </mxCell>
        <mxCell id="475mnNqVJ4nLoMuvFyL2-106" value="10" style="text;html=1;strokeColor=none;fillColor=none;align=center;verticalAlign=middle;whiteSpace=wrap;rounded=0;" vertex="1" parent="1">
          <mxGeometry x="361.25" y="1390" width="20" height="20" as="geometry" />
        </mxCell>
        <mxCell id="475mnNqVJ4nLoMuvFyL2-107" value="5" style="text;html=1;strokeColor=none;fillColor=none;align=center;verticalAlign=middle;whiteSpace=wrap;rounded=0;" vertex="1" parent="1">
          <mxGeometry x="501.25" y="1270" width="20" height="20" as="geometry" />
        </mxCell>
        <mxCell id="475mnNqVJ4nLoMuvFyL2-108" value="6" style="text;html=1;strokeColor=none;fillColor=none;align=center;verticalAlign=middle;whiteSpace=wrap;rounded=0;" vertex="1" parent="1">
          <mxGeometry x="661.25" y="1270" width="20" height="20" as="geometry" />
        </mxCell>
        <mxCell id="475mnNqVJ4nLoMuvFyL2-109" value="2" style="text;html=1;strokeColor=none;fillColor=none;align=center;verticalAlign=middle;whiteSpace=wrap;rounded=0;" vertex="1" parent="1">
          <mxGeometry x="581.25" y="1150" width="20" height="20" as="geometry" />
        </mxCell>
        <mxCell id="475mnNqVJ4nLoMuvFyL2-110" style="edgeStyle=orthogonalEdgeStyle;curved=1;rounded=0;orthogonalLoop=1;jettySize=auto;html=1;exitX=0;exitY=0.5;exitDx=0;exitDy=0;entryX=1;entryY=0.5;entryDx=0;entryDy=0;dashed=1;startArrow=none;startFill=0;endArrow=open;endFill=0;strokeColor=#66B2FF;" edge="1" parent="1" source="475mnNqVJ4nLoMuvFyL2-111" target="475mnNqVJ4nLoMuvFyL2-93">
          <mxGeometry relative="1" as="geometry" />
        </mxCell>
        <mxCell id="475mnNqVJ4nLoMuvFyL2-111" value="n / 2 - 1" style="text;html=1;strokeColor=none;fillColor=none;align=center;verticalAlign=middle;whiteSpace=wrap;rounded=0;" vertex="1" parent="1">
          <mxGeometry x="461.25" y="1360" width="50" height="20" as="geometry" />
        </mxCell>
        <mxCell id="475mnNqVJ4nLoMuvFyL2-112" value="i" style="text;html=1;strokeColor=none;fillColor=none;align=center;verticalAlign=middle;whiteSpace=wrap;rounded=0;" vertex="1" parent="1">
          <mxGeometry x="381.25" y="1260" width="20" height="20" as="geometry" />
        </mxCell>
        <mxCell id="475mnNqVJ4nLoMuvFyL2-113" value="Init" style="text;html=1;strokeColor=none;fillColor=none;align=center;verticalAlign=middle;whiteSpace=wrap;rounded=0;" vertex="1" parent="1">
          <mxGeometry x="121.25" y="980" width="40" height="20" as="geometry" />
        </mxCell>
        <mxCell id="475mnNqVJ4nLoMuvFyL2-114" value="swap" style="text;html=1;strokeColor=none;fillColor=none;align=center;verticalAlign=middle;whiteSpace=wrap;rounded=0;" vertex="1" parent="1">
          <mxGeometry x="375.86" y="790" width="40" height="20" as="geometry" />
        </mxCell>
      </root>
    </mxGraphModel>
  </diagram>
  <diagram id="9y8pQcC_HaOO2VXp6gFD" name="Push">
    <mxGraphModel dx="1350" dy="-1574" grid="1" gridSize="10" guides="1" tooltips="1" connect="1" arrows="1" fold="1" page="1" pageScale="1" pageWidth="827" pageHeight="1169" math="0" shadow="0">
      <root>
        <mxCell id="0" />
        <mxCell id="1" parent="0" />
        <mxCell id="sfxFpEP0mDs3BY-3rmmW-1" value="" style="rounded=0;whiteSpace=wrap;html=1;strokeColor=#6c8ebf;fillColor=none;" vertex="1" parent="1">
          <mxGeometry x="420" y="2620" width="100" height="200" as="geometry" />
        </mxCell>
        <mxCell id="sfxFpEP0mDs3BY-3rmmW-2" style="edgeStyle=none;rounded=0;orthogonalLoop=1;jettySize=auto;html=1;entryX=0.5;entryY=0;entryDx=0;entryDy=0;dashed=1;startArrow=none;startFill=0;endArrow=open;endFill=0;strokeColor=#1A1A1A;" edge="1" parent="1" source="sfxFpEP0mDs3BY-3rmmW-4" target="sfxFpEP0mDs3BY-3rmmW-13">
          <mxGeometry relative="1" as="geometry" />
        </mxCell>
        <mxCell id="sfxFpEP0mDs3BY-3rmmW-3" style="edgeStyle=none;rounded=0;orthogonalLoop=1;jettySize=auto;html=1;dashed=1;startArrow=none;startFill=0;endArrow=open;endFill=0;strokeColor=#1A1A1A;entryX=0.5;entryY=0;entryDx=0;entryDy=0;" edge="1" parent="1" source="sfxFpEP0mDs3BY-3rmmW-4" target="sfxFpEP0mDs3BY-3rmmW-18">
          <mxGeometry relative="1" as="geometry" />
        </mxCell>
        <mxCell id="sfxFpEP0mDs3BY-3rmmW-4" value="3" style="ellipse;whiteSpace=wrap;html=1;aspect=fixed;strokeColor=#1A1A1A;" vertex="1" parent="1">
          <mxGeometry x="260" y="2520" width="40" height="40" as="geometry" />
        </mxCell>
        <mxCell id="sfxFpEP0mDs3BY-3rmmW-5" style="edgeStyle=none;rounded=0;orthogonalLoop=1;jettySize=auto;html=1;dashed=1;startArrow=none;startFill=0;endArrow=open;endFill=0;strokeColor=#1A1A1A;entryX=0.5;entryY=0;entryDx=0;entryDy=0;" edge="1" parent="1" source="sfxFpEP0mDs3BY-3rmmW-7" target="sfxFpEP0mDs3BY-3rmmW-15">
          <mxGeometry relative="1" as="geometry">
            <mxPoint x="440" y="2640" as="targetPoint" />
          </mxGeometry>
        </mxCell>
        <mxCell id="sfxFpEP0mDs3BY-3rmmW-6" style="edgeStyle=none;rounded=0;orthogonalLoop=1;jettySize=auto;html=1;dashed=1;startArrow=none;startFill=0;endArrow=open;endFill=0;strokeColor=#1A1A1A;entryX=0.5;entryY=0;entryDx=0;entryDy=0;" edge="1" parent="1" source="sfxFpEP0mDs3BY-3rmmW-7" target="sfxFpEP0mDs3BY-3rmmW-19">
          <mxGeometry relative="1" as="geometry" />
        </mxCell>
        <mxCell id="sfxFpEP0mDs3BY-3rmmW-7" value="2" style="ellipse;whiteSpace=wrap;html=1;aspect=fixed;" vertex="1" parent="1">
          <mxGeometry x="540" y="2520" width="40" height="40" as="geometry" />
        </mxCell>
        <mxCell id="sfxFpEP0mDs3BY-3rmmW-8" style="rounded=0;orthogonalLoop=1;jettySize=auto;html=1;entryX=0.5;entryY=0;entryDx=0;entryDy=0;dashed=1;startArrow=none;startFill=0;endArrow=open;endFill=0;strokeColor=#1A1A1A;" edge="1" parent="1" source="sfxFpEP0mDs3BY-3rmmW-10" target="sfxFpEP0mDs3BY-3rmmW-4">
          <mxGeometry relative="1" as="geometry" />
        </mxCell>
        <mxCell id="sfxFpEP0mDs3BY-3rmmW-9" style="edgeStyle=none;rounded=0;orthogonalLoop=1;jettySize=auto;html=1;entryX=0.5;entryY=0;entryDx=0;entryDy=0;dashed=1;startArrow=none;startFill=0;endArrow=open;endFill=0;strokeColor=#1A1A1A;" edge="1" parent="1" source="sfxFpEP0mDs3BY-3rmmW-10" target="sfxFpEP0mDs3BY-3rmmW-7">
          <mxGeometry relative="1" as="geometry" />
        </mxCell>
        <mxCell id="sfxFpEP0mDs3BY-3rmmW-10" value="1" style="ellipse;whiteSpace=wrap;html=1;aspect=fixed;" vertex="1" parent="1">
          <mxGeometry x="400" y="2400" width="40" height="40" as="geometry" />
        </mxCell>
        <mxCell id="sfxFpEP0mDs3BY-3rmmW-11" style="rounded=0;orthogonalLoop=1;jettySize=auto;html=1;entryX=0.5;entryY=0;entryDx=0;entryDy=0;dashed=1;startArrow=none;startFill=0;endArrow=open;endFill=0;strokeColor=#1A1A1A;" edge="1" parent="1" source="sfxFpEP0mDs3BY-3rmmW-13" target="sfxFpEP0mDs3BY-3rmmW-20">
          <mxGeometry relative="1" as="geometry" />
        </mxCell>
        <mxCell id="sfxFpEP0mDs3BY-3rmmW-12" style="edgeStyle=none;rounded=0;orthogonalLoop=1;jettySize=auto;html=1;dashed=1;startArrow=none;startFill=0;endArrow=open;endFill=0;strokeColor=#1A1A1A;entryX=0.5;entryY=0;entryDx=0;entryDy=0;" edge="1" parent="1" source="sfxFpEP0mDs3BY-3rmmW-13" target="sfxFpEP0mDs3BY-3rmmW-21">
          <mxGeometry relative="1" as="geometry">
            <mxPoint x="280" y="2760" as="targetPoint" />
          </mxGeometry>
        </mxCell>
        <mxCell id="sfxFpEP0mDs3BY-3rmmW-13" value="7" style="ellipse;whiteSpace=wrap;html=1;aspect=fixed;fillColor=default;strokeColor=default;" vertex="1" parent="1">
          <mxGeometry x="180" y="2640" width="40" height="40" as="geometry" />
        </mxCell>
        <mxCell id="sfxFpEP0mDs3BY-3rmmW-14" style="rounded=0;orthogonalLoop=1;jettySize=auto;html=1;exitX=0.5;exitY=1;exitDx=0;exitDy=0;dashed=1;startArrow=none;startFill=0;endArrow=open;endFill=0;strokeColor=#1A1A1A;entryX=0.5;entryY=0;entryDx=0;entryDy=0;" edge="1" parent="1" source="sfxFpEP0mDs3BY-3rmmW-15" target="sfxFpEP0mDs3BY-3rmmW-36">
          <mxGeometry relative="1" as="geometry" />
        </mxCell>
        <mxCell id="sfxFpEP0mDs3BY-3rmmW-15" value="5" style="ellipse;whiteSpace=wrap;html=1;aspect=fixed;" vertex="1" parent="1">
          <mxGeometry x="460" y="2640" width="40" height="40" as="geometry" />
        </mxCell>
        <mxCell id="sfxFpEP0mDs3BY-3rmmW-16" style="edgeStyle=none;rounded=0;orthogonalLoop=1;jettySize=auto;html=1;exitX=0.5;exitY=1;exitDx=0;exitDy=0;dashed=1;startArrow=none;startFill=0;endArrow=open;endFill=0;strokeColor=#1A1A1A;" edge="1" parent="1" source="sfxFpEP0mDs3BY-3rmmW-18">
          <mxGeometry relative="1" as="geometry">
            <mxPoint x="320" y="2760" as="targetPoint" />
          </mxGeometry>
        </mxCell>
        <mxCell id="sfxFpEP0mDs3BY-3rmmW-17" style="edgeStyle=none;rounded=0;orthogonalLoop=1;jettySize=auto;html=1;exitX=0.5;exitY=1;exitDx=0;exitDy=0;entryX=0.5;entryY=0;entryDx=0;entryDy=0;dashed=1;startArrow=none;startFill=0;endArrow=open;endFill=0;strokeColor=#1A1A1A;" edge="1" parent="1" source="sfxFpEP0mDs3BY-3rmmW-18" target="sfxFpEP0mDs3BY-3rmmW-23">
          <mxGeometry relative="1" as="geometry" />
        </mxCell>
        <mxCell id="sfxFpEP0mDs3BY-3rmmW-18" value="4" style="ellipse;whiteSpace=wrap;html=1;aspect=fixed;" vertex="1" parent="1">
          <mxGeometry x="340" y="2640" width="40" height="40" as="geometry" />
        </mxCell>
        <mxCell id="sfxFpEP0mDs3BY-3rmmW-19" value="11" style="ellipse;whiteSpace=wrap;html=1;aspect=fixed;" vertex="1" parent="1">
          <mxGeometry x="620" y="2640" width="40" height="40" as="geometry" />
        </mxCell>
        <mxCell id="sfxFpEP0mDs3BY-3rmmW-20" value="10" style="ellipse;whiteSpace=wrap;html=1;aspect=fixed;fillColor=default;strokeColor=default;" vertex="1" parent="1">
          <mxGeometry x="140" y="2760" width="40" height="40" as="geometry" />
        </mxCell>
        <mxCell id="sfxFpEP0mDs3BY-3rmmW-21" value="12" style="ellipse;whiteSpace=wrap;html=1;aspect=fixed;" vertex="1" parent="1">
          <mxGeometry x="220" y="2760" width="40" height="40" as="geometry" />
        </mxCell>
        <mxCell id="sfxFpEP0mDs3BY-3rmmW-22" value="6" style="ellipse;whiteSpace=wrap;html=1;aspect=fixed;fillColor=default;strokeColor=default;" vertex="1" parent="1">
          <mxGeometry x="300" y="2760" width="40" height="40" as="geometry" />
        </mxCell>
        <mxCell id="sfxFpEP0mDs3BY-3rmmW-23" value="8" style="ellipse;whiteSpace=wrap;html=1;aspect=fixed;" vertex="1" parent="1">
          <mxGeometry x="380" y="2760" width="40" height="40" as="geometry" />
        </mxCell>
        <mxCell id="sfxFpEP0mDs3BY-3rmmW-24" value="0" style="text;html=1;strokeColor=none;fillColor=none;align=center;verticalAlign=middle;whiteSpace=wrap;rounded=0;" vertex="1" parent="1">
          <mxGeometry x="410" y="2380" width="20" height="20" as="geometry" />
        </mxCell>
        <mxCell id="sfxFpEP0mDs3BY-3rmmW-25" value="1" style="text;html=1;strokeColor=none;fillColor=none;align=center;verticalAlign=middle;whiteSpace=wrap;rounded=0;" vertex="1" parent="1">
          <mxGeometry x="240" y="2530" width="20" height="20" as="geometry" />
        </mxCell>
        <mxCell id="sfxFpEP0mDs3BY-3rmmW-26" value="3" style="text;html=1;strokeColor=none;fillColor=none;align=center;verticalAlign=middle;whiteSpace=wrap;rounded=0;" vertex="1" parent="1">
          <mxGeometry x="160" y="2650" width="20" height="20" as="geometry" />
        </mxCell>
        <mxCell id="sfxFpEP0mDs3BY-3rmmW-27" value="4" style="text;html=1;strokeColor=none;fillColor=none;align=center;verticalAlign=middle;whiteSpace=wrap;rounded=0;" vertex="1" parent="1">
          <mxGeometry x="320" y="2650" width="20" height="20" as="geometry" />
        </mxCell>
        <mxCell id="sfxFpEP0mDs3BY-3rmmW-28" value="7" style="text;html=1;strokeColor=none;fillColor=none;align=center;verticalAlign=middle;whiteSpace=wrap;rounded=0;" vertex="1" parent="1">
          <mxGeometry x="120" y="2770" width="20" height="20" as="geometry" />
        </mxCell>
        <mxCell id="sfxFpEP0mDs3BY-3rmmW-29" value="8" style="text;html=1;strokeColor=none;fillColor=none;align=center;verticalAlign=middle;whiteSpace=wrap;rounded=0;" vertex="1" parent="1">
          <mxGeometry x="200" y="2770" width="20" height="20" as="geometry" />
        </mxCell>
        <mxCell id="sfxFpEP0mDs3BY-3rmmW-30" value="9" style="text;html=1;strokeColor=none;fillColor=none;align=center;verticalAlign=middle;whiteSpace=wrap;rounded=0;" vertex="1" parent="1">
          <mxGeometry x="280" y="2770" width="20" height="20" as="geometry" />
        </mxCell>
        <mxCell id="sfxFpEP0mDs3BY-3rmmW-31" value="10" style="text;html=1;strokeColor=none;fillColor=none;align=center;verticalAlign=middle;whiteSpace=wrap;rounded=0;" vertex="1" parent="1">
          <mxGeometry x="360" y="2770" width="20" height="20" as="geometry" />
        </mxCell>
        <mxCell id="sfxFpEP0mDs3BY-3rmmW-32" value="5" style="text;html=1;strokeColor=none;fillColor=none;align=center;verticalAlign=middle;whiteSpace=wrap;rounded=0;" vertex="1" parent="1">
          <mxGeometry x="500" y="2650" width="20" height="20" as="geometry" />
        </mxCell>
        <mxCell id="sfxFpEP0mDs3BY-3rmmW-33" value="6" style="text;html=1;strokeColor=none;fillColor=none;align=center;verticalAlign=middle;whiteSpace=wrap;rounded=0;" vertex="1" parent="1">
          <mxGeometry x="660" y="2650" width="20" height="20" as="geometry" />
        </mxCell>
        <mxCell id="sfxFpEP0mDs3BY-3rmmW-34" value="2" style="text;html=1;strokeColor=none;fillColor=none;align=center;verticalAlign=middle;whiteSpace=wrap;rounded=0;" vertex="1" parent="1">
          <mxGeometry x="580" y="2530" width="20" height="20" as="geometry" />
        </mxCell>
        <mxCell id="sfxFpEP0mDs3BY-3rmmW-35" value="i" style="text;html=1;strokeColor=none;fillColor=none;align=center;verticalAlign=middle;whiteSpace=wrap;rounded=0;" vertex="1" parent="1">
          <mxGeometry x="380" y="2640" width="20" height="20" as="geometry" />
        </mxCell>
        <mxCell id="sfxFpEP0mDs3BY-3rmmW-36" value="4" style="ellipse;whiteSpace=wrap;html=1;aspect=fixed;fillColor=default;strokeColor=default;" vertex="1" parent="1">
          <mxGeometry x="420" y="2760" width="40" height="40" as="geometry" />
        </mxCell>
        <mxCell id="sfxFpEP0mDs3BY-3rmmW-37" value="11" style="text;html=1;strokeColor=none;fillColor=none;align=center;verticalAlign=middle;whiteSpace=wrap;rounded=0;" vertex="1" parent="1">
          <mxGeometry x="460" y="2770" width="20" height="20" as="geometry" />
        </mxCell>
        <mxCell id="sfxFpEP0mDs3BY-3rmmW-38" value="" style="curved=1;endArrow=open;html=1;rounded=0;dashed=1;strokeColor=#6c8ebf;entryX=0.5;entryY=1;entryDx=0;entryDy=0;endFill=0;fillColor=#dae8fc;" edge="1" parent="1" target="sfxFpEP0mDs3BY-3rmmW-36">
          <mxGeometry width="50" height="50" relative="1" as="geometry">
            <mxPoint x="490" y="2840" as="sourcePoint" />
            <mxPoint x="495" y="2830" as="targetPoint" />
            <Array as="points">
              <mxPoint x="460" y="2810" />
              <mxPoint x="500" y="2820" />
              <mxPoint x="445" y="2830" />
            </Array>
          </mxGeometry>
        </mxCell>
        <mxCell id="sfxFpEP0mDs3BY-3rmmW-39" value="Push" style="text;html=1;strokeColor=none;fillColor=none;align=center;verticalAlign=middle;whiteSpace=wrap;rounded=0;" vertex="1" parent="1">
          <mxGeometry x="490" y="2833" width="30" height="20" as="geometry" />
        </mxCell>
        <mxCell id="sfxFpEP0mDs3BY-3rmmW-40" value="up" style="text;html=1;strokeColor=none;fillColor=none;align=center;verticalAlign=middle;whiteSpace=wrap;rounded=0;" vertex="1" parent="1">
          <mxGeometry x="420" y="2620" width="20" height="20" as="geometry" />
        </mxCell>
        <mxCell id="sfxFpEP0mDs3BY-3rmmW-41" style="edgeStyle=none;rounded=0;orthogonalLoop=1;jettySize=auto;html=1;entryX=0.5;entryY=0;entryDx=0;entryDy=0;dashed=1;startArrow=none;startFill=0;endArrow=open;endFill=0;strokeColor=#1A1A1A;" edge="1" parent="1" source="sfxFpEP0mDs3BY-3rmmW-43" target="sfxFpEP0mDs3BY-3rmmW-52">
          <mxGeometry relative="1" as="geometry" />
        </mxCell>
        <mxCell id="sfxFpEP0mDs3BY-3rmmW-42" style="edgeStyle=none;rounded=0;orthogonalLoop=1;jettySize=auto;html=1;dashed=1;startArrow=none;startFill=0;endArrow=open;endFill=0;strokeColor=#1A1A1A;entryX=0.5;entryY=0;entryDx=0;entryDy=0;" edge="1" parent="1" source="sfxFpEP0mDs3BY-3rmmW-43" target="sfxFpEP0mDs3BY-3rmmW-58">
          <mxGeometry relative="1" as="geometry" />
        </mxCell>
        <mxCell id="sfxFpEP0mDs3BY-3rmmW-43" value="3" style="ellipse;whiteSpace=wrap;html=1;aspect=fixed;strokeColor=#1A1A1A;" vertex="1" parent="1">
          <mxGeometry x="260" y="3040" width="40" height="40" as="geometry" />
        </mxCell>
        <mxCell id="sfxFpEP0mDs3BY-3rmmW-44" style="edgeStyle=none;rounded=0;orthogonalLoop=1;jettySize=auto;html=1;dashed=1;startArrow=none;startFill=0;endArrow=open;endFill=0;strokeColor=#1A1A1A;entryX=0.5;entryY=0;entryDx=0;entryDy=0;" edge="1" parent="1" source="sfxFpEP0mDs3BY-3rmmW-46" target="sfxFpEP0mDs3BY-3rmmW-55">
          <mxGeometry relative="1" as="geometry">
            <mxPoint x="440" y="3160" as="targetPoint" />
          </mxGeometry>
        </mxCell>
        <mxCell id="sfxFpEP0mDs3BY-3rmmW-45" style="edgeStyle=none;rounded=0;orthogonalLoop=1;jettySize=auto;html=1;dashed=1;startArrow=none;startFill=0;endArrow=open;endFill=0;strokeColor=#1A1A1A;entryX=0.5;entryY=0;entryDx=0;entryDy=0;" edge="1" parent="1" source="sfxFpEP0mDs3BY-3rmmW-46" target="sfxFpEP0mDs3BY-3rmmW-59">
          <mxGeometry relative="1" as="geometry" />
        </mxCell>
        <mxCell id="sfxFpEP0mDs3BY-3rmmW-46" value="2" style="ellipse;whiteSpace=wrap;html=1;aspect=fixed;" vertex="1" parent="1">
          <mxGeometry x="540" y="3040" width="40" height="40" as="geometry" />
        </mxCell>
        <mxCell id="sfxFpEP0mDs3BY-3rmmW-47" style="rounded=0;orthogonalLoop=1;jettySize=auto;html=1;entryX=0.5;entryY=0;entryDx=0;entryDy=0;dashed=1;startArrow=none;startFill=0;endArrow=open;endFill=0;strokeColor=#1A1A1A;" edge="1" parent="1" source="sfxFpEP0mDs3BY-3rmmW-49" target="sfxFpEP0mDs3BY-3rmmW-43">
          <mxGeometry relative="1" as="geometry" />
        </mxCell>
        <mxCell id="sfxFpEP0mDs3BY-3rmmW-48" style="edgeStyle=none;rounded=0;orthogonalLoop=1;jettySize=auto;html=1;entryX=0.5;entryY=0;entryDx=0;entryDy=0;dashed=1;startArrow=none;startFill=0;endArrow=open;endFill=0;strokeColor=#1A1A1A;" edge="1" parent="1" source="sfxFpEP0mDs3BY-3rmmW-49" target="sfxFpEP0mDs3BY-3rmmW-46">
          <mxGeometry relative="1" as="geometry" />
        </mxCell>
        <mxCell id="sfxFpEP0mDs3BY-3rmmW-49" value="1" style="ellipse;whiteSpace=wrap;html=1;aspect=fixed;" vertex="1" parent="1">
          <mxGeometry x="400" y="2920" width="40" height="40" as="geometry" />
        </mxCell>
        <mxCell id="sfxFpEP0mDs3BY-3rmmW-50" style="rounded=0;orthogonalLoop=1;jettySize=auto;html=1;entryX=0.5;entryY=0;entryDx=0;entryDy=0;dashed=1;startArrow=none;startFill=0;endArrow=open;endFill=0;strokeColor=#1A1A1A;" edge="1" parent="1" source="sfxFpEP0mDs3BY-3rmmW-52" target="sfxFpEP0mDs3BY-3rmmW-60">
          <mxGeometry relative="1" as="geometry" />
        </mxCell>
        <mxCell id="sfxFpEP0mDs3BY-3rmmW-51" style="edgeStyle=none;rounded=0;orthogonalLoop=1;jettySize=auto;html=1;dashed=1;startArrow=none;startFill=0;endArrow=open;endFill=0;strokeColor=#1A1A1A;entryX=0.5;entryY=0;entryDx=0;entryDy=0;" edge="1" parent="1" source="sfxFpEP0mDs3BY-3rmmW-52" target="sfxFpEP0mDs3BY-3rmmW-61">
          <mxGeometry relative="1" as="geometry">
            <mxPoint x="280" y="3280" as="targetPoint" />
          </mxGeometry>
        </mxCell>
        <mxCell id="sfxFpEP0mDs3BY-3rmmW-52" value="7" style="ellipse;whiteSpace=wrap;html=1;aspect=fixed;fillColor=default;strokeColor=default;" vertex="1" parent="1">
          <mxGeometry x="180" y="3160" width="40" height="40" as="geometry" />
        </mxCell>
        <mxCell id="sfxFpEP0mDs3BY-3rmmW-53" style="rounded=0;orthogonalLoop=1;jettySize=auto;html=1;exitX=0.5;exitY=1;exitDx=0;exitDy=0;dashed=1;startArrow=none;startFill=0;endArrow=open;endFill=0;strokeColor=#1A1A1A;entryX=0.5;entryY=0;entryDx=0;entryDy=0;" edge="1" parent="1" source="sfxFpEP0mDs3BY-3rmmW-55" target="sfxFpEP0mDs3BY-3rmmW-76">
          <mxGeometry relative="1" as="geometry" />
        </mxCell>
        <mxCell id="sfxFpEP0mDs3BY-3rmmW-54" style="edgeStyle=orthogonalEdgeStyle;curved=1;rounded=0;orthogonalLoop=1;jettySize=auto;html=1;exitX=1;exitY=0;exitDx=0;exitDy=0;entryX=0.5;entryY=1;entryDx=0;entryDy=0;dashed=1;startArrow=none;startFill=0;endArrow=open;endFill=0;strokeColor=#FF3333;" edge="1" parent="1" source="sfxFpEP0mDs3BY-3rmmW-55" target="sfxFpEP0mDs3BY-3rmmW-46">
          <mxGeometry relative="1" as="geometry" />
        </mxCell>
        <mxCell id="sfxFpEP0mDs3BY-3rmmW-55" value="4" style="ellipse;whiteSpace=wrap;html=1;aspect=fixed;" vertex="1" parent="1">
          <mxGeometry x="460" y="3160" width="40" height="40" as="geometry" />
        </mxCell>
        <mxCell id="sfxFpEP0mDs3BY-3rmmW-56" style="edgeStyle=none;rounded=0;orthogonalLoop=1;jettySize=auto;html=1;exitX=0.5;exitY=1;exitDx=0;exitDy=0;dashed=1;startArrow=none;startFill=0;endArrow=open;endFill=0;strokeColor=#1A1A1A;" edge="1" parent="1" source="sfxFpEP0mDs3BY-3rmmW-58">
          <mxGeometry relative="1" as="geometry">
            <mxPoint x="320" y="3280" as="targetPoint" />
          </mxGeometry>
        </mxCell>
        <mxCell id="sfxFpEP0mDs3BY-3rmmW-57" style="edgeStyle=none;rounded=0;orthogonalLoop=1;jettySize=auto;html=1;exitX=0.5;exitY=1;exitDx=0;exitDy=0;entryX=0.5;entryY=0;entryDx=0;entryDy=0;dashed=1;startArrow=none;startFill=0;endArrow=open;endFill=0;strokeColor=#1A1A1A;" edge="1" parent="1" source="sfxFpEP0mDs3BY-3rmmW-58" target="sfxFpEP0mDs3BY-3rmmW-63">
          <mxGeometry relative="1" as="geometry" />
        </mxCell>
        <mxCell id="sfxFpEP0mDs3BY-3rmmW-58" value="4" style="ellipse;whiteSpace=wrap;html=1;aspect=fixed;" vertex="1" parent="1">
          <mxGeometry x="340" y="3160" width="40" height="40" as="geometry" />
        </mxCell>
        <mxCell id="sfxFpEP0mDs3BY-3rmmW-59" value="11" style="ellipse;whiteSpace=wrap;html=1;aspect=fixed;" vertex="1" parent="1">
          <mxGeometry x="620" y="3160" width="40" height="40" as="geometry" />
        </mxCell>
        <mxCell id="sfxFpEP0mDs3BY-3rmmW-60" value="10" style="ellipse;whiteSpace=wrap;html=1;aspect=fixed;fillColor=default;strokeColor=default;" vertex="1" parent="1">
          <mxGeometry x="140" y="3280" width="40" height="40" as="geometry" />
        </mxCell>
        <mxCell id="sfxFpEP0mDs3BY-3rmmW-61" value="12" style="ellipse;whiteSpace=wrap;html=1;aspect=fixed;" vertex="1" parent="1">
          <mxGeometry x="220" y="3280" width="40" height="40" as="geometry" />
        </mxCell>
        <mxCell id="sfxFpEP0mDs3BY-3rmmW-62" value="6" style="ellipse;whiteSpace=wrap;html=1;aspect=fixed;fillColor=default;strokeColor=default;" vertex="1" parent="1">
          <mxGeometry x="300" y="3280" width="40" height="40" as="geometry" />
        </mxCell>
        <mxCell id="sfxFpEP0mDs3BY-3rmmW-63" value="8" style="ellipse;whiteSpace=wrap;html=1;aspect=fixed;" vertex="1" parent="1">
          <mxGeometry x="380" y="3280" width="40" height="40" as="geometry" />
        </mxCell>
        <mxCell id="sfxFpEP0mDs3BY-3rmmW-64" value="0" style="text;html=1;strokeColor=none;fillColor=none;align=center;verticalAlign=middle;whiteSpace=wrap;rounded=0;" vertex="1" parent="1">
          <mxGeometry x="410" y="2900" width="20" height="20" as="geometry" />
        </mxCell>
        <mxCell id="sfxFpEP0mDs3BY-3rmmW-65" value="1" style="text;html=1;strokeColor=none;fillColor=none;align=center;verticalAlign=middle;whiteSpace=wrap;rounded=0;" vertex="1" parent="1">
          <mxGeometry x="240" y="3050" width="20" height="20" as="geometry" />
        </mxCell>
        <mxCell id="sfxFpEP0mDs3BY-3rmmW-66" value="3" style="text;html=1;strokeColor=none;fillColor=none;align=center;verticalAlign=middle;whiteSpace=wrap;rounded=0;" vertex="1" parent="1">
          <mxGeometry x="160" y="3170" width="20" height="20" as="geometry" />
        </mxCell>
        <mxCell id="sfxFpEP0mDs3BY-3rmmW-67" value="4" style="text;html=1;strokeColor=none;fillColor=none;align=center;verticalAlign=middle;whiteSpace=wrap;rounded=0;" vertex="1" parent="1">
          <mxGeometry x="320" y="3170" width="20" height="20" as="geometry" />
        </mxCell>
        <mxCell id="sfxFpEP0mDs3BY-3rmmW-68" value="7" style="text;html=1;strokeColor=none;fillColor=none;align=center;verticalAlign=middle;whiteSpace=wrap;rounded=0;" vertex="1" parent="1">
          <mxGeometry x="120" y="3290" width="20" height="20" as="geometry" />
        </mxCell>
        <mxCell id="sfxFpEP0mDs3BY-3rmmW-69" value="8" style="text;html=1;strokeColor=none;fillColor=none;align=center;verticalAlign=middle;whiteSpace=wrap;rounded=0;" vertex="1" parent="1">
          <mxGeometry x="200" y="3290" width="20" height="20" as="geometry" />
        </mxCell>
        <mxCell id="sfxFpEP0mDs3BY-3rmmW-70" value="9" style="text;html=1;strokeColor=none;fillColor=none;align=center;verticalAlign=middle;whiteSpace=wrap;rounded=0;" vertex="1" parent="1">
          <mxGeometry x="280" y="3290" width="20" height="20" as="geometry" />
        </mxCell>
        <mxCell id="sfxFpEP0mDs3BY-3rmmW-71" value="10" style="text;html=1;strokeColor=none;fillColor=none;align=center;verticalAlign=middle;whiteSpace=wrap;rounded=0;" vertex="1" parent="1">
          <mxGeometry x="360" y="3290" width="20" height="20" as="geometry" />
        </mxCell>
        <mxCell id="sfxFpEP0mDs3BY-3rmmW-72" value="5" style="text;html=1;strokeColor=none;fillColor=none;align=center;verticalAlign=middle;whiteSpace=wrap;rounded=0;" vertex="1" parent="1">
          <mxGeometry x="500" y="3170" width="20" height="20" as="geometry" />
        </mxCell>
        <mxCell id="sfxFpEP0mDs3BY-3rmmW-73" value="6" style="text;html=1;strokeColor=none;fillColor=none;align=center;verticalAlign=middle;whiteSpace=wrap;rounded=0;" vertex="1" parent="1">
          <mxGeometry x="660" y="3170" width="20" height="20" as="geometry" />
        </mxCell>
        <mxCell id="sfxFpEP0mDs3BY-3rmmW-74" value="2" style="text;html=1;strokeColor=none;fillColor=none;align=center;verticalAlign=middle;whiteSpace=wrap;rounded=0;" vertex="1" parent="1">
          <mxGeometry x="580" y="3050" width="20" height="20" as="geometry" />
        </mxCell>
        <mxCell id="sfxFpEP0mDs3BY-3rmmW-75" style="edgeStyle=orthogonalEdgeStyle;curved=1;rounded=0;orthogonalLoop=1;jettySize=auto;html=1;exitX=1;exitY=0;exitDx=0;exitDy=0;entryX=1;entryY=1;entryDx=0;entryDy=0;dashed=1;startArrow=none;startFill=0;endArrow=open;endFill=0;strokeColor=#FF3333;" edge="1" parent="1" source="sfxFpEP0mDs3BY-3rmmW-76" target="sfxFpEP0mDs3BY-3rmmW-55">
          <mxGeometry relative="1" as="geometry">
            <Array as="points">
              <mxPoint x="460" y="3286" />
              <mxPoint x="460" y="3240" />
              <mxPoint x="494" y="3240" />
            </Array>
          </mxGeometry>
        </mxCell>
        <mxCell id="sfxFpEP0mDs3BY-3rmmW-76" value="5" style="ellipse;whiteSpace=wrap;html=1;aspect=fixed;fillColor=default;strokeColor=default;" vertex="1" parent="1">
          <mxGeometry x="420" y="3280" width="40" height="40" as="geometry" />
        </mxCell>
        <mxCell id="sfxFpEP0mDs3BY-3rmmW-77" value="11" style="text;html=1;strokeColor=none;fillColor=none;align=center;verticalAlign=middle;whiteSpace=wrap;rounded=0;" vertex="1" parent="1">
          <mxGeometry x="460" y="3290" width="20" height="20" as="geometry" />
        </mxCell>
        <mxCell id="sfxFpEP0mDs3BY-3rmmW-78" value="" style="curved=1;endArrow=open;html=1;rounded=0;dashed=1;strokeColor=#6c8ebf;entryX=0.5;entryY=1;entryDx=0;entryDy=0;endFill=0;fillColor=#dae8fc;" edge="1" parent="1" target="sfxFpEP0mDs3BY-3rmmW-76">
          <mxGeometry width="50" height="50" relative="1" as="geometry">
            <mxPoint x="490" y="3360" as="sourcePoint" />
            <mxPoint x="495" y="3350" as="targetPoint" />
            <Array as="points">
              <mxPoint x="460" y="3330" />
              <mxPoint x="500" y="3340" />
              <mxPoint x="445" y="3350" />
            </Array>
          </mxGeometry>
        </mxCell>
        <mxCell id="sfxFpEP0mDs3BY-3rmmW-79" value="j" style="text;html=1;strokeColor=none;fillColor=none;align=center;verticalAlign=middle;whiteSpace=wrap;rounded=0;" vertex="1" parent="1">
          <mxGeometry x="490" y="3350" width="20" height="20" as="geometry" />
        </mxCell>
      </root>
    </mxGraphModel>
  </diagram>
  <diagram id="20uYNbQfIUt5esToOSV6" name="Pop">
    <mxGraphModel dx="1350" dy="-2743" grid="1" gridSize="10" guides="1" tooltips="1" connect="1" arrows="1" fold="1" page="1" pageScale="1" pageWidth="827" pageHeight="1169" math="0" shadow="0">
      <root>
        <mxCell id="0" />
        <mxCell id="1" parent="0" />
        <mxCell id="xuIm1GyVL_1GEQc6mD7o-1" style="edgeStyle=none;rounded=0;orthogonalLoop=1;jettySize=auto;html=1;entryX=0.5;entryY=0;entryDx=0;entryDy=0;dashed=1;startArrow=none;startFill=0;endArrow=open;endFill=0;strokeColor=#1A1A1A;" edge="1" parent="1" source="xuIm1GyVL_1GEQc6mD7o-3" target="xuIm1GyVL_1GEQc6mD7o-12">
          <mxGeometry relative="1" as="geometry" />
        </mxCell>
        <mxCell id="xuIm1GyVL_1GEQc6mD7o-2" style="edgeStyle=none;rounded=0;orthogonalLoop=1;jettySize=auto;html=1;dashed=1;startArrow=none;startFill=0;endArrow=open;endFill=0;strokeColor=#1A1A1A;entryX=0.5;entryY=0;entryDx=0;entryDy=0;" edge="1" parent="1" source="xuIm1GyVL_1GEQc6mD7o-3" target="xuIm1GyVL_1GEQc6mD7o-17">
          <mxGeometry relative="1" as="geometry" />
        </mxCell>
        <mxCell id="xuIm1GyVL_1GEQc6mD7o-3" value="3" style="ellipse;whiteSpace=wrap;html=1;aspect=fixed;strokeColor=#1A1A1A;" vertex="1" parent="1">
          <mxGeometry x="260" y="3680" width="40" height="40" as="geometry" />
        </mxCell>
        <mxCell id="xuIm1GyVL_1GEQc6mD7o-4" style="edgeStyle=none;rounded=0;orthogonalLoop=1;jettySize=auto;html=1;dashed=1;startArrow=none;startFill=0;endArrow=open;endFill=0;strokeColor=#1A1A1A;entryX=0.5;entryY=0;entryDx=0;entryDy=0;" edge="1" parent="1" source="xuIm1GyVL_1GEQc6mD7o-6" target="xuIm1GyVL_1GEQc6mD7o-14">
          <mxGeometry relative="1" as="geometry">
            <mxPoint x="440" y="3800" as="targetPoint" />
          </mxGeometry>
        </mxCell>
        <mxCell id="xuIm1GyVL_1GEQc6mD7o-5" style="edgeStyle=none;rounded=0;orthogonalLoop=1;jettySize=auto;html=1;dashed=1;startArrow=none;startFill=0;endArrow=open;endFill=0;strokeColor=#1A1A1A;entryX=0.5;entryY=0;entryDx=0;entryDy=0;" edge="1" parent="1" source="xuIm1GyVL_1GEQc6mD7o-6" target="xuIm1GyVL_1GEQc6mD7o-18">
          <mxGeometry relative="1" as="geometry" />
        </mxCell>
        <mxCell id="xuIm1GyVL_1GEQc6mD7o-6" value="2" style="ellipse;whiteSpace=wrap;html=1;aspect=fixed;" vertex="1" parent="1">
          <mxGeometry x="540" y="3680" width="40" height="40" as="geometry" />
        </mxCell>
        <mxCell id="xuIm1GyVL_1GEQc6mD7o-7" style="rounded=0;orthogonalLoop=1;jettySize=auto;html=1;entryX=0.5;entryY=0;entryDx=0;entryDy=0;dashed=1;startArrow=none;startFill=0;endArrow=open;endFill=0;strokeColor=#1A1A1A;" edge="1" parent="1" source="xuIm1GyVL_1GEQc6mD7o-9" target="xuIm1GyVL_1GEQc6mD7o-3">
          <mxGeometry relative="1" as="geometry" />
        </mxCell>
        <mxCell id="xuIm1GyVL_1GEQc6mD7o-8" style="edgeStyle=none;rounded=0;orthogonalLoop=1;jettySize=auto;html=1;entryX=0.5;entryY=0;entryDx=0;entryDy=0;dashed=1;startArrow=none;startFill=0;endArrow=open;endFill=0;strokeColor=#1A1A1A;" edge="1" parent="1" source="xuIm1GyVL_1GEQc6mD7o-9" target="xuIm1GyVL_1GEQc6mD7o-6">
          <mxGeometry relative="1" as="geometry" />
        </mxCell>
        <mxCell id="xuIm1GyVL_1GEQc6mD7o-9" value="1" style="ellipse;whiteSpace=wrap;html=1;aspect=fixed;" vertex="1" parent="1">
          <mxGeometry x="400" y="3560" width="40" height="40" as="geometry" />
        </mxCell>
        <mxCell id="xuIm1GyVL_1GEQc6mD7o-10" style="rounded=0;orthogonalLoop=1;jettySize=auto;html=1;entryX=0.5;entryY=0;entryDx=0;entryDy=0;dashed=1;startArrow=none;startFill=0;endArrow=open;endFill=0;strokeColor=#1A1A1A;" edge="1" parent="1" source="xuIm1GyVL_1GEQc6mD7o-12" target="xuIm1GyVL_1GEQc6mD7o-19">
          <mxGeometry relative="1" as="geometry" />
        </mxCell>
        <mxCell id="xuIm1GyVL_1GEQc6mD7o-11" style="edgeStyle=none;rounded=0;orthogonalLoop=1;jettySize=auto;html=1;dashed=1;startArrow=none;startFill=0;endArrow=open;endFill=0;strokeColor=#1A1A1A;entryX=0.5;entryY=0;entryDx=0;entryDy=0;" edge="1" parent="1" source="xuIm1GyVL_1GEQc6mD7o-12" target="xuIm1GyVL_1GEQc6mD7o-20">
          <mxGeometry relative="1" as="geometry">
            <mxPoint x="280" y="3920" as="targetPoint" />
          </mxGeometry>
        </mxCell>
        <mxCell id="xuIm1GyVL_1GEQc6mD7o-12" value="7" style="ellipse;whiteSpace=wrap;html=1;aspect=fixed;fillColor=default;strokeColor=default;" vertex="1" parent="1">
          <mxGeometry x="180" y="3800" width="40" height="40" as="geometry" />
        </mxCell>
        <mxCell id="xuIm1GyVL_1GEQc6mD7o-13" style="rounded=0;orthogonalLoop=1;jettySize=auto;html=1;exitX=0.5;exitY=1;exitDx=0;exitDy=0;dashed=1;startArrow=none;startFill=0;endArrow=open;endFill=0;strokeColor=#1A1A1A;entryX=0.5;entryY=0;entryDx=0;entryDy=0;" edge="1" parent="1" source="xuIm1GyVL_1GEQc6mD7o-14" target="xuIm1GyVL_1GEQc6mD7o-34">
          <mxGeometry relative="1" as="geometry" />
        </mxCell>
        <mxCell id="xuIm1GyVL_1GEQc6mD7o-14" value="4" style="ellipse;whiteSpace=wrap;html=1;aspect=fixed;" vertex="1" parent="1">
          <mxGeometry x="460" y="3800" width="40" height="40" as="geometry" />
        </mxCell>
        <mxCell id="xuIm1GyVL_1GEQc6mD7o-15" style="edgeStyle=none;rounded=0;orthogonalLoop=1;jettySize=auto;html=1;exitX=0.5;exitY=1;exitDx=0;exitDy=0;dashed=1;startArrow=none;startFill=0;endArrow=open;endFill=0;strokeColor=#1A1A1A;" edge="1" parent="1" source="xuIm1GyVL_1GEQc6mD7o-17">
          <mxGeometry relative="1" as="geometry">
            <mxPoint x="320" y="3920" as="targetPoint" />
          </mxGeometry>
        </mxCell>
        <mxCell id="xuIm1GyVL_1GEQc6mD7o-16" style="edgeStyle=none;rounded=0;orthogonalLoop=1;jettySize=auto;html=1;exitX=0.5;exitY=1;exitDx=0;exitDy=0;entryX=0.5;entryY=0;entryDx=0;entryDy=0;dashed=1;startArrow=none;startFill=0;endArrow=open;endFill=0;strokeColor=#1A1A1A;" edge="1" parent="1" source="xuIm1GyVL_1GEQc6mD7o-17" target="xuIm1GyVL_1GEQc6mD7o-22">
          <mxGeometry relative="1" as="geometry" />
        </mxCell>
        <mxCell id="xuIm1GyVL_1GEQc6mD7o-17" value="4" style="ellipse;whiteSpace=wrap;html=1;aspect=fixed;" vertex="1" parent="1">
          <mxGeometry x="340" y="3800" width="40" height="40" as="geometry" />
        </mxCell>
        <mxCell id="xuIm1GyVL_1GEQc6mD7o-18" value="11" style="ellipse;whiteSpace=wrap;html=1;aspect=fixed;" vertex="1" parent="1">
          <mxGeometry x="620" y="3800" width="40" height="40" as="geometry" />
        </mxCell>
        <mxCell id="xuIm1GyVL_1GEQc6mD7o-19" value="10" style="ellipse;whiteSpace=wrap;html=1;aspect=fixed;fillColor=default;strokeColor=default;" vertex="1" parent="1">
          <mxGeometry x="140" y="3920" width="40" height="40" as="geometry" />
        </mxCell>
        <mxCell id="xuIm1GyVL_1GEQc6mD7o-20" value="12" style="ellipse;whiteSpace=wrap;html=1;aspect=fixed;" vertex="1" parent="1">
          <mxGeometry x="220" y="3920" width="40" height="40" as="geometry" />
        </mxCell>
        <mxCell id="xuIm1GyVL_1GEQc6mD7o-21" value="6" style="ellipse;whiteSpace=wrap;html=1;aspect=fixed;fillColor=default;strokeColor=default;" vertex="1" parent="1">
          <mxGeometry x="300" y="3920" width="40" height="40" as="geometry" />
        </mxCell>
        <mxCell id="xuIm1GyVL_1GEQc6mD7o-22" value="8" style="ellipse;whiteSpace=wrap;html=1;aspect=fixed;" vertex="1" parent="1">
          <mxGeometry x="380" y="3920" width="40" height="40" as="geometry" />
        </mxCell>
        <mxCell id="xuIm1GyVL_1GEQc6mD7o-23" value="0" style="text;html=1;strokeColor=none;fillColor=none;align=center;verticalAlign=middle;whiteSpace=wrap;rounded=0;" vertex="1" parent="1">
          <mxGeometry x="410" y="3540" width="20" height="20" as="geometry" />
        </mxCell>
        <mxCell id="xuIm1GyVL_1GEQc6mD7o-24" value="1" style="text;html=1;strokeColor=none;fillColor=none;align=center;verticalAlign=middle;whiteSpace=wrap;rounded=0;" vertex="1" parent="1">
          <mxGeometry x="240" y="3690" width="20" height="20" as="geometry" />
        </mxCell>
        <mxCell id="xuIm1GyVL_1GEQc6mD7o-25" value="3" style="text;html=1;strokeColor=none;fillColor=none;align=center;verticalAlign=middle;whiteSpace=wrap;rounded=0;" vertex="1" parent="1">
          <mxGeometry x="160" y="3810" width="20" height="20" as="geometry" />
        </mxCell>
        <mxCell id="xuIm1GyVL_1GEQc6mD7o-26" value="4" style="text;html=1;strokeColor=none;fillColor=none;align=center;verticalAlign=middle;whiteSpace=wrap;rounded=0;" vertex="1" parent="1">
          <mxGeometry x="320" y="3810" width="20" height="20" as="geometry" />
        </mxCell>
        <mxCell id="xuIm1GyVL_1GEQc6mD7o-27" value="7" style="text;html=1;strokeColor=none;fillColor=none;align=center;verticalAlign=middle;whiteSpace=wrap;rounded=0;" vertex="1" parent="1">
          <mxGeometry x="120" y="3930" width="20" height="20" as="geometry" />
        </mxCell>
        <mxCell id="xuIm1GyVL_1GEQc6mD7o-28" value="8" style="text;html=1;strokeColor=none;fillColor=none;align=center;verticalAlign=middle;whiteSpace=wrap;rounded=0;" vertex="1" parent="1">
          <mxGeometry x="200" y="3930" width="20" height="20" as="geometry" />
        </mxCell>
        <mxCell id="xuIm1GyVL_1GEQc6mD7o-29" value="9" style="text;html=1;strokeColor=none;fillColor=none;align=center;verticalAlign=middle;whiteSpace=wrap;rounded=0;" vertex="1" parent="1">
          <mxGeometry x="280" y="3930" width="20" height="20" as="geometry" />
        </mxCell>
        <mxCell id="xuIm1GyVL_1GEQc6mD7o-30" value="10" style="text;html=1;strokeColor=none;fillColor=none;align=center;verticalAlign=middle;whiteSpace=wrap;rounded=0;" vertex="1" parent="1">
          <mxGeometry x="360" y="3930" width="20" height="20" as="geometry" />
        </mxCell>
        <mxCell id="xuIm1GyVL_1GEQc6mD7o-31" value="5" style="text;html=1;strokeColor=none;fillColor=none;align=center;verticalAlign=middle;whiteSpace=wrap;rounded=0;" vertex="1" parent="1">
          <mxGeometry x="500" y="3810" width="20" height="20" as="geometry" />
        </mxCell>
        <mxCell id="xuIm1GyVL_1GEQc6mD7o-32" value="6" style="text;html=1;strokeColor=none;fillColor=none;align=center;verticalAlign=middle;whiteSpace=wrap;rounded=0;" vertex="1" parent="1">
          <mxGeometry x="660" y="3810" width="20" height="20" as="geometry" />
        </mxCell>
        <mxCell id="xuIm1GyVL_1GEQc6mD7o-33" value="2" style="text;html=1;strokeColor=none;fillColor=none;align=center;verticalAlign=middle;whiteSpace=wrap;rounded=0;" vertex="1" parent="1">
          <mxGeometry x="580" y="3690" width="20" height="20" as="geometry" />
        </mxCell>
        <mxCell id="xuIm1GyVL_1GEQc6mD7o-34" value="5" style="ellipse;whiteSpace=wrap;html=1;aspect=fixed;fillColor=default;strokeColor=default;" vertex="1" parent="1">
          <mxGeometry x="420" y="3920" width="40" height="40" as="geometry" />
        </mxCell>
        <mxCell id="xuIm1GyVL_1GEQc6mD7o-35" style="edgeStyle=orthogonalEdgeStyle;rounded=0;orthogonalLoop=1;jettySize=auto;html=1;exitX=1;exitY=0.5;exitDx=0;exitDy=0;entryX=1;entryY=0.5;entryDx=0;entryDy=0;dashed=1;startArrow=open;startFill=0;endArrow=open;endFill=0;strokeColor=#66B2FF;" edge="1" parent="1" source="xuIm1GyVL_1GEQc6mD7o-36" target="xuIm1GyVL_1GEQc6mD7o-9">
          <mxGeometry relative="1" as="geometry">
            <Array as="points">
              <mxPoint x="700" y="3940" />
              <mxPoint x="700" y="3580" />
            </Array>
          </mxGeometry>
        </mxCell>
        <mxCell id="xuIm1GyVL_1GEQc6mD7o-36" value="11" style="text;html=1;strokeColor=none;fillColor=none;align=center;verticalAlign=middle;whiteSpace=wrap;rounded=0;" vertex="1" parent="1">
          <mxGeometry x="460" y="3930" width="20" height="20" as="geometry" />
        </mxCell>
        <mxCell id="xuIm1GyVL_1GEQc6mD7o-37" value="swap" style="text;html=1;strokeColor=none;fillColor=none;align=center;verticalAlign=middle;whiteSpace=wrap;rounded=0;" vertex="1" parent="1">
          <mxGeometry x="704.5" y="3750" width="25.5" height="20" as="geometry" />
        </mxCell>
        <mxCell id="xuIm1GyVL_1GEQc6mD7o-38" style="edgeStyle=none;rounded=0;orthogonalLoop=1;jettySize=auto;html=1;entryX=0.5;entryY=0;entryDx=0;entryDy=0;dashed=1;startArrow=none;startFill=0;endArrow=open;endFill=0;strokeColor=#1A1A1A;" edge="1" parent="1" source="xuIm1GyVL_1GEQc6mD7o-40" target="xuIm1GyVL_1GEQc6mD7o-51">
          <mxGeometry relative="1" as="geometry" />
        </mxCell>
        <mxCell id="xuIm1GyVL_1GEQc6mD7o-39" style="edgeStyle=none;rounded=0;orthogonalLoop=1;jettySize=auto;html=1;dashed=1;startArrow=none;startFill=0;endArrow=open;endFill=0;strokeColor=#1A1A1A;entryX=0.5;entryY=0;entryDx=0;entryDy=0;" edge="1" parent="1" source="xuIm1GyVL_1GEQc6mD7o-40" target="xuIm1GyVL_1GEQc6mD7o-56">
          <mxGeometry relative="1" as="geometry" />
        </mxCell>
        <mxCell id="xuIm1GyVL_1GEQc6mD7o-40" value="3" style="ellipse;whiteSpace=wrap;html=1;aspect=fixed;strokeColor=#1A1A1A;" vertex="1" parent="1">
          <mxGeometry x="260" y="4160" width="40" height="40" as="geometry" />
        </mxCell>
        <mxCell id="xuIm1GyVL_1GEQc6mD7o-41" style="edgeStyle=none;rounded=0;orthogonalLoop=1;jettySize=auto;html=1;dashed=1;startArrow=none;startFill=0;endArrow=open;endFill=0;strokeColor=#1A1A1A;entryX=0.5;entryY=0;entryDx=0;entryDy=0;" edge="1" parent="1" source="xuIm1GyVL_1GEQc6mD7o-44" target="xuIm1GyVL_1GEQc6mD7o-53">
          <mxGeometry relative="1" as="geometry">
            <mxPoint x="440" y="4280" as="targetPoint" />
          </mxGeometry>
        </mxCell>
        <mxCell id="xuIm1GyVL_1GEQc6mD7o-42" style="edgeStyle=none;rounded=0;orthogonalLoop=1;jettySize=auto;html=1;dashed=1;startArrow=none;startFill=0;endArrow=open;endFill=0;strokeColor=#1A1A1A;entryX=0.5;entryY=0;entryDx=0;entryDy=0;" edge="1" parent="1" source="xuIm1GyVL_1GEQc6mD7o-44" target="xuIm1GyVL_1GEQc6mD7o-57">
          <mxGeometry relative="1" as="geometry" />
        </mxCell>
        <mxCell id="xuIm1GyVL_1GEQc6mD7o-43" style="edgeStyle=orthogonalEdgeStyle;curved=1;rounded=0;orthogonalLoop=1;jettySize=auto;html=1;exitX=0;exitY=0.5;exitDx=0;exitDy=0;entryX=0;entryY=0.5;entryDx=0;entryDy=0;dashed=1;startArrow=none;startFill=0;endArrow=open;endFill=0;strokeColor=#66B2FF;" edge="1" parent="1" source="xuIm1GyVL_1GEQc6mD7o-44" target="xuIm1GyVL_1GEQc6mD7o-53">
          <mxGeometry relative="1" as="geometry">
            <Array as="points">
              <mxPoint x="430" y="4180" />
              <mxPoint x="430" y="4300" />
            </Array>
          </mxGeometry>
        </mxCell>
        <mxCell id="xuIm1GyVL_1GEQc6mD7o-44" value="2" style="ellipse;whiteSpace=wrap;html=1;aspect=fixed;" vertex="1" parent="1">
          <mxGeometry x="540" y="4160" width="40" height="40" as="geometry" />
        </mxCell>
        <mxCell id="xuIm1GyVL_1GEQc6mD7o-45" style="rounded=0;orthogonalLoop=1;jettySize=auto;html=1;entryX=0.5;entryY=0;entryDx=0;entryDy=0;dashed=1;startArrow=none;startFill=0;endArrow=open;endFill=0;strokeColor=#1A1A1A;" edge="1" parent="1" source="xuIm1GyVL_1GEQc6mD7o-48" target="xuIm1GyVL_1GEQc6mD7o-40">
          <mxGeometry relative="1" as="geometry" />
        </mxCell>
        <mxCell id="xuIm1GyVL_1GEQc6mD7o-46" style="edgeStyle=none;rounded=0;orthogonalLoop=1;jettySize=auto;html=1;entryX=0.5;entryY=0;entryDx=0;entryDy=0;dashed=1;startArrow=none;startFill=0;endArrow=open;endFill=0;strokeColor=#1A1A1A;" edge="1" parent="1" source="xuIm1GyVL_1GEQc6mD7o-48" target="xuIm1GyVL_1GEQc6mD7o-44">
          <mxGeometry relative="1" as="geometry" />
        </mxCell>
        <mxCell id="xuIm1GyVL_1GEQc6mD7o-47" style="edgeStyle=orthogonalEdgeStyle;rounded=0;orthogonalLoop=1;jettySize=auto;html=1;exitX=0.5;exitY=1;exitDx=0;exitDy=0;entryX=0;entryY=0.5;entryDx=0;entryDy=0;dashed=1;startArrow=none;startFill=0;endArrow=open;endFill=0;strokeColor=#66B2FF;curved=1;" edge="1" parent="1" source="xuIm1GyVL_1GEQc6mD7o-48" target="xuIm1GyVL_1GEQc6mD7o-44">
          <mxGeometry relative="1" as="geometry" />
        </mxCell>
        <mxCell id="xuIm1GyVL_1GEQc6mD7o-48" value="5" style="ellipse;whiteSpace=wrap;html=1;aspect=fixed;" vertex="1" parent="1">
          <mxGeometry x="400" y="4040" width="40" height="40" as="geometry" />
        </mxCell>
        <mxCell id="xuIm1GyVL_1GEQc6mD7o-49" style="rounded=0;orthogonalLoop=1;jettySize=auto;html=1;entryX=0.5;entryY=0;entryDx=0;entryDy=0;dashed=1;startArrow=none;startFill=0;endArrow=open;endFill=0;strokeColor=#1A1A1A;" edge="1" parent="1" source="xuIm1GyVL_1GEQc6mD7o-51" target="xuIm1GyVL_1GEQc6mD7o-58">
          <mxGeometry relative="1" as="geometry" />
        </mxCell>
        <mxCell id="xuIm1GyVL_1GEQc6mD7o-50" style="edgeStyle=none;rounded=0;orthogonalLoop=1;jettySize=auto;html=1;dashed=1;startArrow=none;startFill=0;endArrow=open;endFill=0;strokeColor=#1A1A1A;entryX=0.5;entryY=0;entryDx=0;entryDy=0;" edge="1" parent="1" source="xuIm1GyVL_1GEQc6mD7o-51" target="xuIm1GyVL_1GEQc6mD7o-59">
          <mxGeometry relative="1" as="geometry">
            <mxPoint x="280" y="4400" as="targetPoint" />
          </mxGeometry>
        </mxCell>
        <mxCell id="xuIm1GyVL_1GEQc6mD7o-51" value="7" style="ellipse;whiteSpace=wrap;html=1;aspect=fixed;fillColor=default;strokeColor=default;" vertex="1" parent="1">
          <mxGeometry x="180" y="4280" width="40" height="40" as="geometry" />
        </mxCell>
        <mxCell id="xuIm1GyVL_1GEQc6mD7o-52" style="rounded=0;orthogonalLoop=1;jettySize=auto;html=1;exitX=0.5;exitY=1;exitDx=0;exitDy=0;dashed=1;startArrow=none;startFill=0;endArrow=open;endFill=0;strokeColor=#1A1A1A;entryX=0.5;entryY=0;entryDx=0;entryDy=0;" edge="1" parent="1" source="xuIm1GyVL_1GEQc6mD7o-53" target="xuIm1GyVL_1GEQc6mD7o-73">
          <mxGeometry relative="1" as="geometry" />
        </mxCell>
        <mxCell id="xuIm1GyVL_1GEQc6mD7o-53" value="4" style="ellipse;whiteSpace=wrap;html=1;aspect=fixed;" vertex="1" parent="1">
          <mxGeometry x="460" y="4280" width="40" height="40" as="geometry" />
        </mxCell>
        <mxCell id="xuIm1GyVL_1GEQc6mD7o-54" style="edgeStyle=none;rounded=0;orthogonalLoop=1;jettySize=auto;html=1;exitX=0.5;exitY=1;exitDx=0;exitDy=0;dashed=1;startArrow=none;startFill=0;endArrow=open;endFill=0;strokeColor=#1A1A1A;" edge="1" parent="1" source="xuIm1GyVL_1GEQc6mD7o-56">
          <mxGeometry relative="1" as="geometry">
            <mxPoint x="320" y="4400" as="targetPoint" />
          </mxGeometry>
        </mxCell>
        <mxCell id="xuIm1GyVL_1GEQc6mD7o-55" style="edgeStyle=none;rounded=0;orthogonalLoop=1;jettySize=auto;html=1;exitX=0.5;exitY=1;exitDx=0;exitDy=0;entryX=0.5;entryY=0;entryDx=0;entryDy=0;dashed=1;startArrow=none;startFill=0;endArrow=open;endFill=0;strokeColor=#1A1A1A;" edge="1" parent="1" source="xuIm1GyVL_1GEQc6mD7o-56" target="xuIm1GyVL_1GEQc6mD7o-61">
          <mxGeometry relative="1" as="geometry" />
        </mxCell>
        <mxCell id="xuIm1GyVL_1GEQc6mD7o-56" value="4" style="ellipse;whiteSpace=wrap;html=1;aspect=fixed;" vertex="1" parent="1">
          <mxGeometry x="340" y="4280" width="40" height="40" as="geometry" />
        </mxCell>
        <mxCell id="xuIm1GyVL_1GEQc6mD7o-57" value="11" style="ellipse;whiteSpace=wrap;html=1;aspect=fixed;" vertex="1" parent="1">
          <mxGeometry x="620" y="4280" width="40" height="40" as="geometry" />
        </mxCell>
        <mxCell id="xuIm1GyVL_1GEQc6mD7o-58" value="10" style="ellipse;whiteSpace=wrap;html=1;aspect=fixed;fillColor=default;strokeColor=default;" vertex="1" parent="1">
          <mxGeometry x="140" y="4400" width="40" height="40" as="geometry" />
        </mxCell>
        <mxCell id="xuIm1GyVL_1GEQc6mD7o-59" value="12" style="ellipse;whiteSpace=wrap;html=1;aspect=fixed;" vertex="1" parent="1">
          <mxGeometry x="220" y="4400" width="40" height="40" as="geometry" />
        </mxCell>
        <mxCell id="xuIm1GyVL_1GEQc6mD7o-60" value="6" style="ellipse;whiteSpace=wrap;html=1;aspect=fixed;fillColor=default;strokeColor=default;" vertex="1" parent="1">
          <mxGeometry x="300" y="4400" width="40" height="40" as="geometry" />
        </mxCell>
        <mxCell id="xuIm1GyVL_1GEQc6mD7o-61" value="8" style="ellipse;whiteSpace=wrap;html=1;aspect=fixed;" vertex="1" parent="1">
          <mxGeometry x="380" y="4400" width="40" height="40" as="geometry" />
        </mxCell>
        <mxCell id="xuIm1GyVL_1GEQc6mD7o-62" value="0" style="text;html=1;strokeColor=none;fillColor=none;align=center;verticalAlign=middle;whiteSpace=wrap;rounded=0;" vertex="1" parent="1">
          <mxGeometry x="410" y="4020" width="20" height="20" as="geometry" />
        </mxCell>
        <mxCell id="xuIm1GyVL_1GEQc6mD7o-63" value="1" style="text;html=1;strokeColor=none;fillColor=none;align=center;verticalAlign=middle;whiteSpace=wrap;rounded=0;" vertex="1" parent="1">
          <mxGeometry x="240" y="4170" width="20" height="20" as="geometry" />
        </mxCell>
        <mxCell id="xuIm1GyVL_1GEQc6mD7o-64" value="3" style="text;html=1;strokeColor=none;fillColor=none;align=center;verticalAlign=middle;whiteSpace=wrap;rounded=0;" vertex="1" parent="1">
          <mxGeometry x="160" y="4290" width="20" height="20" as="geometry" />
        </mxCell>
        <mxCell id="xuIm1GyVL_1GEQc6mD7o-65" value="4" style="text;html=1;strokeColor=none;fillColor=none;align=center;verticalAlign=middle;whiteSpace=wrap;rounded=0;" vertex="1" parent="1">
          <mxGeometry x="320" y="4290" width="20" height="20" as="geometry" />
        </mxCell>
        <mxCell id="xuIm1GyVL_1GEQc6mD7o-66" value="7" style="text;html=1;strokeColor=none;fillColor=none;align=center;verticalAlign=middle;whiteSpace=wrap;rounded=0;" vertex="1" parent="1">
          <mxGeometry x="120" y="4410" width="20" height="20" as="geometry" />
        </mxCell>
        <mxCell id="xuIm1GyVL_1GEQc6mD7o-67" value="8" style="text;html=1;strokeColor=none;fillColor=none;align=center;verticalAlign=middle;whiteSpace=wrap;rounded=0;" vertex="1" parent="1">
          <mxGeometry x="200" y="4410" width="20" height="20" as="geometry" />
        </mxCell>
        <mxCell id="xuIm1GyVL_1GEQc6mD7o-68" value="9" style="text;html=1;strokeColor=none;fillColor=none;align=center;verticalAlign=middle;whiteSpace=wrap;rounded=0;" vertex="1" parent="1">
          <mxGeometry x="280" y="4410" width="20" height="20" as="geometry" />
        </mxCell>
        <mxCell id="xuIm1GyVL_1GEQc6mD7o-69" value="10" style="text;html=1;strokeColor=none;fillColor=none;align=center;verticalAlign=middle;whiteSpace=wrap;rounded=0;" vertex="1" parent="1">
          <mxGeometry x="360" y="4410" width="20" height="20" as="geometry" />
        </mxCell>
        <mxCell id="xuIm1GyVL_1GEQc6mD7o-70" value="5" style="text;html=1;strokeColor=none;fillColor=none;align=center;verticalAlign=middle;whiteSpace=wrap;rounded=0;" vertex="1" parent="1">
          <mxGeometry x="500" y="4290" width="20" height="20" as="geometry" />
        </mxCell>
        <mxCell id="xuIm1GyVL_1GEQc6mD7o-71" value="6" style="text;html=1;strokeColor=none;fillColor=none;align=center;verticalAlign=middle;whiteSpace=wrap;rounded=0;" vertex="1" parent="1">
          <mxGeometry x="660" y="4290" width="20" height="20" as="geometry" />
        </mxCell>
        <mxCell id="xuIm1GyVL_1GEQc6mD7o-72" value="2" style="text;html=1;strokeColor=none;fillColor=none;align=center;verticalAlign=middle;whiteSpace=wrap;rounded=0;" vertex="1" parent="1">
          <mxGeometry x="580" y="4170" width="20" height="20" as="geometry" />
        </mxCell>
        <mxCell id="xuIm1GyVL_1GEQc6mD7o-73" value="1" style="ellipse;whiteSpace=wrap;html=1;aspect=fixed;fillColor=default;strokeColor=default;" vertex="1" parent="1">
          <mxGeometry x="420" y="4400" width="40" height="40" as="geometry" />
        </mxCell>
        <mxCell id="xuIm1GyVL_1GEQc6mD7o-74" value="11" style="text;html=1;strokeColor=none;fillColor=none;align=center;verticalAlign=middle;whiteSpace=wrap;rounded=0;" vertex="1" parent="1">
          <mxGeometry x="460" y="4410" width="20" height="20" as="geometry" />
        </mxCell>
        <mxCell id="xuIm1GyVL_1GEQc6mD7o-75" value="" style="curved=1;endArrow=open;html=1;rounded=0;dashed=1;strokeColor=#6c8ebf;entryX=1;entryY=0.5;entryDx=0;entryDy=0;endFill=0;fillColor=#dae8fc;" edge="1" parent="1" target="xuIm1GyVL_1GEQc6mD7o-48">
          <mxGeometry width="50" height="50" relative="1" as="geometry">
            <mxPoint x="520" y="4050" as="sourcePoint" />
            <mxPoint x="460" y="4030" as="targetPoint" />
            <Array as="points">
              <mxPoint x="460" y="4040" />
              <mxPoint x="500" y="4030" />
              <mxPoint x="465" y="4060" />
            </Array>
          </mxGeometry>
        </mxCell>
        <mxCell id="xuIm1GyVL_1GEQc6mD7o-76" value="down" style="text;html=1;strokeColor=none;fillColor=none;align=center;verticalAlign=middle;whiteSpace=wrap;rounded=0;" vertex="1" parent="1">
          <mxGeometry x="520" y="4040" width="40" height="20" as="geometry" />
        </mxCell>
        <mxCell id="xuIm1GyVL_1GEQc6mD7o-77" value="" style="curved=1;endArrow=open;html=1;rounded=0;dashed=1;strokeColor=#FF3333;endFill=0;fillColor=#dae8fc;exitX=1;exitY=1;exitDx=0;exitDy=0;" edge="1" parent="1" source="xuIm1GyVL_1GEQc6mD7o-73">
          <mxGeometry width="50" height="50" relative="1" as="geometry">
            <mxPoint x="559.5000000000002" y="4450" as="sourcePoint" />
            <mxPoint x="530" y="4460" as="targetPoint" />
            <Array as="points">
              <mxPoint x="520" y="4440" />
              <mxPoint x="470" y="4450" />
              <mxPoint x="490" y="4420" />
            </Array>
          </mxGeometry>
        </mxCell>
        <mxCell id="xuIm1GyVL_1GEQc6mD7o-78" value="Pop" style="text;html=1;strokeColor=none;fillColor=none;align=center;verticalAlign=middle;whiteSpace=wrap;rounded=0;" vertex="1" parent="1">
          <mxGeometry x="530" y="4450" width="30" height="20" as="geometry" />
        </mxCell>
        <mxCell id="xuIm1GyVL_1GEQc6mD7o-79" style="edgeStyle=none;rounded=0;orthogonalLoop=1;jettySize=auto;html=1;entryX=0.5;entryY=0;entryDx=0;entryDy=0;dashed=1;startArrow=none;startFill=0;endArrow=open;endFill=0;strokeColor=#1A1A1A;" edge="1" parent="1" source="xuIm1GyVL_1GEQc6mD7o-81" target="xuIm1GyVL_1GEQc6mD7o-90">
          <mxGeometry relative="1" as="geometry" />
        </mxCell>
        <mxCell id="xuIm1GyVL_1GEQc6mD7o-80" style="edgeStyle=none;rounded=0;orthogonalLoop=1;jettySize=auto;html=1;dashed=1;startArrow=none;startFill=0;endArrow=open;endFill=0;strokeColor=#1A1A1A;entryX=0.5;entryY=0;entryDx=0;entryDy=0;" edge="1" parent="1" source="xuIm1GyVL_1GEQc6mD7o-81" target="xuIm1GyVL_1GEQc6mD7o-94">
          <mxGeometry relative="1" as="geometry" />
        </mxCell>
        <mxCell id="xuIm1GyVL_1GEQc6mD7o-81" value="3" style="ellipse;whiteSpace=wrap;html=1;aspect=fixed;strokeColor=#1A1A1A;" vertex="1" parent="1">
          <mxGeometry x="261.25" y="4640" width="40" height="40" as="geometry" />
        </mxCell>
        <mxCell id="xuIm1GyVL_1GEQc6mD7o-82" style="edgeStyle=none;rounded=0;orthogonalLoop=1;jettySize=auto;html=1;dashed=1;startArrow=none;startFill=0;endArrow=open;endFill=0;strokeColor=#1A1A1A;entryX=0.5;entryY=0;entryDx=0;entryDy=0;" edge="1" parent="1" source="xuIm1GyVL_1GEQc6mD7o-84" target="xuIm1GyVL_1GEQc6mD7o-91">
          <mxGeometry relative="1" as="geometry">
            <mxPoint x="441.25" y="4760" as="targetPoint" />
          </mxGeometry>
        </mxCell>
        <mxCell id="xuIm1GyVL_1GEQc6mD7o-83" style="edgeStyle=none;rounded=0;orthogonalLoop=1;jettySize=auto;html=1;dashed=1;startArrow=none;startFill=0;endArrow=open;endFill=0;strokeColor=#1A1A1A;entryX=0.5;entryY=0;entryDx=0;entryDy=0;" edge="1" parent="1" source="xuIm1GyVL_1GEQc6mD7o-84" target="xuIm1GyVL_1GEQc6mD7o-95">
          <mxGeometry relative="1" as="geometry" />
        </mxCell>
        <mxCell id="xuIm1GyVL_1GEQc6mD7o-84" value="4" style="ellipse;whiteSpace=wrap;html=1;aspect=fixed;" vertex="1" parent="1">
          <mxGeometry x="541.25" y="4640" width="40" height="40" as="geometry" />
        </mxCell>
        <mxCell id="xuIm1GyVL_1GEQc6mD7o-85" style="rounded=0;orthogonalLoop=1;jettySize=auto;html=1;entryX=0.5;entryY=0;entryDx=0;entryDy=0;dashed=1;startArrow=none;startFill=0;endArrow=open;endFill=0;strokeColor=#1A1A1A;" edge="1" parent="1" source="xuIm1GyVL_1GEQc6mD7o-87" target="xuIm1GyVL_1GEQc6mD7o-81">
          <mxGeometry relative="1" as="geometry" />
        </mxCell>
        <mxCell id="xuIm1GyVL_1GEQc6mD7o-86" style="edgeStyle=none;rounded=0;orthogonalLoop=1;jettySize=auto;html=1;entryX=0.5;entryY=0;entryDx=0;entryDy=0;dashed=1;startArrow=none;startFill=0;endArrow=open;endFill=0;strokeColor=#1A1A1A;" edge="1" parent="1" source="xuIm1GyVL_1GEQc6mD7o-87" target="xuIm1GyVL_1GEQc6mD7o-84">
          <mxGeometry relative="1" as="geometry" />
        </mxCell>
        <mxCell id="xuIm1GyVL_1GEQc6mD7o-87" value="2" style="ellipse;whiteSpace=wrap;html=1;aspect=fixed;" vertex="1" parent="1">
          <mxGeometry x="401.25" y="4520" width="40" height="40" as="geometry" />
        </mxCell>
        <mxCell id="xuIm1GyVL_1GEQc6mD7o-88" style="rounded=0;orthogonalLoop=1;jettySize=auto;html=1;entryX=0.5;entryY=0;entryDx=0;entryDy=0;dashed=1;startArrow=none;startFill=0;endArrow=open;endFill=0;strokeColor=#1A1A1A;" edge="1" parent="1" source="xuIm1GyVL_1GEQc6mD7o-90" target="xuIm1GyVL_1GEQc6mD7o-96">
          <mxGeometry relative="1" as="geometry" />
        </mxCell>
        <mxCell id="xuIm1GyVL_1GEQc6mD7o-89" style="edgeStyle=none;rounded=0;orthogonalLoop=1;jettySize=auto;html=1;dashed=1;startArrow=none;startFill=0;endArrow=open;endFill=0;strokeColor=#1A1A1A;entryX=0.5;entryY=0;entryDx=0;entryDy=0;" edge="1" parent="1" source="xuIm1GyVL_1GEQc6mD7o-90" target="xuIm1GyVL_1GEQc6mD7o-97">
          <mxGeometry relative="1" as="geometry">
            <mxPoint x="281.25" y="4880" as="targetPoint" />
          </mxGeometry>
        </mxCell>
        <mxCell id="xuIm1GyVL_1GEQc6mD7o-90" value="7" style="ellipse;whiteSpace=wrap;html=1;aspect=fixed;fillColor=default;strokeColor=default;" vertex="1" parent="1">
          <mxGeometry x="181.25" y="4760" width="40" height="40" as="geometry" />
        </mxCell>
        <mxCell id="xuIm1GyVL_1GEQc6mD7o-91" value="5" style="ellipse;whiteSpace=wrap;html=1;aspect=fixed;" vertex="1" parent="1">
          <mxGeometry x="461.25" y="4760" width="40" height="40" as="geometry" />
        </mxCell>
        <mxCell id="xuIm1GyVL_1GEQc6mD7o-92" style="edgeStyle=none;rounded=0;orthogonalLoop=1;jettySize=auto;html=1;exitX=0.5;exitY=1;exitDx=0;exitDy=0;dashed=1;startArrow=none;startFill=0;endArrow=open;endFill=0;strokeColor=#1A1A1A;" edge="1" parent="1" source="xuIm1GyVL_1GEQc6mD7o-94">
          <mxGeometry relative="1" as="geometry">
            <mxPoint x="321.25" y="4880" as="targetPoint" />
          </mxGeometry>
        </mxCell>
        <mxCell id="xuIm1GyVL_1GEQc6mD7o-93" style="edgeStyle=none;rounded=0;orthogonalLoop=1;jettySize=auto;html=1;exitX=0.5;exitY=1;exitDx=0;exitDy=0;entryX=0.5;entryY=0;entryDx=0;entryDy=0;dashed=1;startArrow=none;startFill=0;endArrow=open;endFill=0;strokeColor=#1A1A1A;" edge="1" parent="1" source="xuIm1GyVL_1GEQc6mD7o-94" target="xuIm1GyVL_1GEQc6mD7o-99">
          <mxGeometry relative="1" as="geometry" />
        </mxCell>
        <mxCell id="xuIm1GyVL_1GEQc6mD7o-94" value="4" style="ellipse;whiteSpace=wrap;html=1;aspect=fixed;" vertex="1" parent="1">
          <mxGeometry x="341.25" y="4760" width="40" height="40" as="geometry" />
        </mxCell>
        <mxCell id="xuIm1GyVL_1GEQc6mD7o-95" value="11" style="ellipse;whiteSpace=wrap;html=1;aspect=fixed;" vertex="1" parent="1">
          <mxGeometry x="621.25" y="4760" width="40" height="40" as="geometry" />
        </mxCell>
        <mxCell id="xuIm1GyVL_1GEQc6mD7o-96" value="10" style="ellipse;whiteSpace=wrap;html=1;aspect=fixed;fillColor=default;strokeColor=default;" vertex="1" parent="1">
          <mxGeometry x="141.25" y="4880" width="40" height="40" as="geometry" />
        </mxCell>
        <mxCell id="xuIm1GyVL_1GEQc6mD7o-97" value="12" style="ellipse;whiteSpace=wrap;html=1;aspect=fixed;" vertex="1" parent="1">
          <mxGeometry x="221.25" y="4880" width="40" height="40" as="geometry" />
        </mxCell>
        <mxCell id="xuIm1GyVL_1GEQc6mD7o-98" value="6" style="ellipse;whiteSpace=wrap;html=1;aspect=fixed;fillColor=default;strokeColor=default;" vertex="1" parent="1">
          <mxGeometry x="301.25" y="4880" width="40" height="40" as="geometry" />
        </mxCell>
        <mxCell id="xuIm1GyVL_1GEQc6mD7o-99" value="8" style="ellipse;whiteSpace=wrap;html=1;aspect=fixed;" vertex="1" parent="1">
          <mxGeometry x="381.25" y="4880" width="40" height="40" as="geometry" />
        </mxCell>
        <mxCell id="xuIm1GyVL_1GEQc6mD7o-100" value="0" style="text;html=1;strokeColor=none;fillColor=none;align=center;verticalAlign=middle;whiteSpace=wrap;rounded=0;" vertex="1" parent="1">
          <mxGeometry x="411.25" y="4500" width="20" height="20" as="geometry" />
        </mxCell>
        <mxCell id="xuIm1GyVL_1GEQc6mD7o-101" value="1" style="text;html=1;strokeColor=none;fillColor=none;align=center;verticalAlign=middle;whiteSpace=wrap;rounded=0;" vertex="1" parent="1">
          <mxGeometry x="241.25" y="4650" width="20" height="20" as="geometry" />
        </mxCell>
        <mxCell id="xuIm1GyVL_1GEQc6mD7o-102" value="3" style="text;html=1;strokeColor=none;fillColor=none;align=center;verticalAlign=middle;whiteSpace=wrap;rounded=0;" vertex="1" parent="1">
          <mxGeometry x="161.25" y="4770" width="20" height="20" as="geometry" />
        </mxCell>
        <mxCell id="xuIm1GyVL_1GEQc6mD7o-103" value="4" style="text;html=1;strokeColor=none;fillColor=none;align=center;verticalAlign=middle;whiteSpace=wrap;rounded=0;" vertex="1" parent="1">
          <mxGeometry x="321.25" y="4770" width="20" height="20" as="geometry" />
        </mxCell>
        <mxCell id="xuIm1GyVL_1GEQc6mD7o-104" value="7" style="text;html=1;strokeColor=none;fillColor=none;align=center;verticalAlign=middle;whiteSpace=wrap;rounded=0;" vertex="1" parent="1">
          <mxGeometry x="121.25" y="4890" width="20" height="20" as="geometry" />
        </mxCell>
        <mxCell id="xuIm1GyVL_1GEQc6mD7o-105" value="8" style="text;html=1;strokeColor=none;fillColor=none;align=center;verticalAlign=middle;whiteSpace=wrap;rounded=0;" vertex="1" parent="1">
          <mxGeometry x="201.25" y="4890" width="20" height="20" as="geometry" />
        </mxCell>
        <mxCell id="xuIm1GyVL_1GEQc6mD7o-106" value="9" style="text;html=1;strokeColor=none;fillColor=none;align=center;verticalAlign=middle;whiteSpace=wrap;rounded=0;" vertex="1" parent="1">
          <mxGeometry x="281.25" y="4890" width="20" height="20" as="geometry" />
        </mxCell>
        <mxCell id="xuIm1GyVL_1GEQc6mD7o-107" value="10" style="text;html=1;strokeColor=none;fillColor=none;align=center;verticalAlign=middle;whiteSpace=wrap;rounded=0;" vertex="1" parent="1">
          <mxGeometry x="361.25" y="4890" width="20" height="20" as="geometry" />
        </mxCell>
        <mxCell id="xuIm1GyVL_1GEQc6mD7o-108" value="5" style="text;html=1;strokeColor=none;fillColor=none;align=center;verticalAlign=middle;whiteSpace=wrap;rounded=0;" vertex="1" parent="1">
          <mxGeometry x="501.25" y="4770" width="20" height="20" as="geometry" />
        </mxCell>
        <mxCell id="xuIm1GyVL_1GEQc6mD7o-109" value="6" style="text;html=1;strokeColor=none;fillColor=none;align=center;verticalAlign=middle;whiteSpace=wrap;rounded=0;" vertex="1" parent="1">
          <mxGeometry x="661.25" y="4770" width="20" height="20" as="geometry" />
        </mxCell>
        <mxCell id="xuIm1GyVL_1GEQc6mD7o-110" value="2" style="text;html=1;strokeColor=none;fillColor=none;align=center;verticalAlign=middle;whiteSpace=wrap;rounded=0;" vertex="1" parent="1">
          <mxGeometry x="581.25" y="4650" width="20" height="20" as="geometry" />
        </mxCell>
      </root>
    </mxGraphModel>
  </diagram>
  <diagram id="PCwlk-VQlQ60BJLU6C6A" name="Remove">
    <mxGraphModel dx="1350" dy="-3912" grid="1" gridSize="10" guides="1" tooltips="1" connect="1" arrows="1" fold="1" page="1" pageScale="1" pageWidth="827" pageHeight="1169" math="0" shadow="0">
      <root>
        <mxCell id="0" />
        <mxCell id="1" parent="0" />
        <mxCell id="45YRR1c24DKUCsaneUCk-1" style="edgeStyle=none;rounded=0;orthogonalLoop=1;jettySize=auto;html=1;entryX=0.5;entryY=0;entryDx=0;entryDy=0;dashed=1;startArrow=none;startFill=0;endArrow=open;endFill=0;strokeColor=#1A1A1A;" edge="1" parent="1" source="45YRR1c24DKUCsaneUCk-3" target="45YRR1c24DKUCsaneUCk-12">
          <mxGeometry relative="1" as="geometry" />
        </mxCell>
        <mxCell id="45YRR1c24DKUCsaneUCk-2" style="edgeStyle=none;rounded=0;orthogonalLoop=1;jettySize=auto;html=1;dashed=1;startArrow=none;startFill=0;endArrow=open;endFill=0;strokeColor=#1A1A1A;entryX=0.5;entryY=0;entryDx=0;entryDy=0;" edge="1" parent="1" source="45YRR1c24DKUCsaneUCk-3" target="45YRR1c24DKUCsaneUCk-16">
          <mxGeometry relative="1" as="geometry" />
        </mxCell>
        <mxCell id="45YRR1c24DKUCsaneUCk-3" value="3" style="ellipse;whiteSpace=wrap;html=1;aspect=fixed;strokeColor=#1A1A1A;" vertex="1" parent="1">
          <mxGeometry x="260" y="4840" width="40" height="40" as="geometry" />
        </mxCell>
        <mxCell id="45YRR1c24DKUCsaneUCk-4" style="edgeStyle=none;rounded=0;orthogonalLoop=1;jettySize=auto;html=1;dashed=1;startArrow=none;startFill=0;endArrow=open;endFill=0;strokeColor=#1A1A1A;entryX=0.5;entryY=0;entryDx=0;entryDy=0;" edge="1" parent="1" source="45YRR1c24DKUCsaneUCk-6" target="45YRR1c24DKUCsaneUCk-13">
          <mxGeometry relative="1" as="geometry">
            <mxPoint x="440" y="4960" as="targetPoint" />
          </mxGeometry>
        </mxCell>
        <mxCell id="45YRR1c24DKUCsaneUCk-5" style="edgeStyle=none;rounded=0;orthogonalLoop=1;jettySize=auto;html=1;dashed=1;startArrow=none;startFill=0;endArrow=open;endFill=0;strokeColor=#1A1A1A;entryX=0.5;entryY=0;entryDx=0;entryDy=0;" edge="1" parent="1" source="45YRR1c24DKUCsaneUCk-6" target="45YRR1c24DKUCsaneUCk-17">
          <mxGeometry relative="1" as="geometry" />
        </mxCell>
        <mxCell id="45YRR1c24DKUCsaneUCk-6" value="4" style="ellipse;whiteSpace=wrap;html=1;aspect=fixed;" vertex="1" parent="1">
          <mxGeometry x="540" y="4840" width="40" height="40" as="geometry" />
        </mxCell>
        <mxCell id="45YRR1c24DKUCsaneUCk-7" style="rounded=0;orthogonalLoop=1;jettySize=auto;html=1;entryX=0.5;entryY=0;entryDx=0;entryDy=0;dashed=1;startArrow=none;startFill=0;endArrow=open;endFill=0;strokeColor=#1A1A1A;" edge="1" parent="1" source="45YRR1c24DKUCsaneUCk-9" target="45YRR1c24DKUCsaneUCk-3">
          <mxGeometry relative="1" as="geometry" />
        </mxCell>
        <mxCell id="45YRR1c24DKUCsaneUCk-8" style="edgeStyle=none;rounded=0;orthogonalLoop=1;jettySize=auto;html=1;entryX=0.5;entryY=0;entryDx=0;entryDy=0;dashed=1;startArrow=none;startFill=0;endArrow=open;endFill=0;strokeColor=#1A1A1A;" edge="1" parent="1" source="45YRR1c24DKUCsaneUCk-9" target="45YRR1c24DKUCsaneUCk-6">
          <mxGeometry relative="1" as="geometry" />
        </mxCell>
        <mxCell id="45YRR1c24DKUCsaneUCk-9" value="2" style="ellipse;whiteSpace=wrap;html=1;aspect=fixed;" vertex="1" parent="1">
          <mxGeometry x="400" y="4720" width="40" height="40" as="geometry" />
        </mxCell>
        <mxCell id="45YRR1c24DKUCsaneUCk-10" style="rounded=0;orthogonalLoop=1;jettySize=auto;html=1;entryX=0.5;entryY=0;entryDx=0;entryDy=0;dashed=1;startArrow=none;startFill=0;endArrow=open;endFill=0;strokeColor=#1A1A1A;" edge="1" parent="1" source="45YRR1c24DKUCsaneUCk-12" target="45YRR1c24DKUCsaneUCk-18">
          <mxGeometry relative="1" as="geometry" />
        </mxCell>
        <mxCell id="45YRR1c24DKUCsaneUCk-11" style="edgeStyle=none;rounded=0;orthogonalLoop=1;jettySize=auto;html=1;dashed=1;startArrow=none;startFill=0;endArrow=open;endFill=0;strokeColor=#1A1A1A;entryX=0.5;entryY=0;entryDx=0;entryDy=0;" edge="1" parent="1" source="45YRR1c24DKUCsaneUCk-12" target="45YRR1c24DKUCsaneUCk-19">
          <mxGeometry relative="1" as="geometry">
            <mxPoint x="280" y="5080" as="targetPoint" />
          </mxGeometry>
        </mxCell>
        <mxCell id="45YRR1c24DKUCsaneUCk-12" value="7" style="ellipse;whiteSpace=wrap;html=1;aspect=fixed;fillColor=default;strokeColor=default;" vertex="1" parent="1">
          <mxGeometry x="180" y="4960" width="40" height="40" as="geometry" />
        </mxCell>
        <mxCell id="45YRR1c24DKUCsaneUCk-13" value="5" style="ellipse;whiteSpace=wrap;html=1;aspect=fixed;" vertex="1" parent="1">
          <mxGeometry x="460" y="4960" width="40" height="40" as="geometry" />
        </mxCell>
        <mxCell id="45YRR1c24DKUCsaneUCk-14" style="edgeStyle=none;rounded=0;orthogonalLoop=1;jettySize=auto;html=1;exitX=0.5;exitY=1;exitDx=0;exitDy=0;dashed=1;startArrow=none;startFill=0;endArrow=open;endFill=0;strokeColor=#1A1A1A;" edge="1" parent="1" source="45YRR1c24DKUCsaneUCk-16">
          <mxGeometry relative="1" as="geometry">
            <mxPoint x="320" y="5080" as="targetPoint" />
          </mxGeometry>
        </mxCell>
        <mxCell id="45YRR1c24DKUCsaneUCk-15" style="edgeStyle=none;rounded=0;orthogonalLoop=1;jettySize=auto;html=1;exitX=0.5;exitY=1;exitDx=0;exitDy=0;entryX=0.5;entryY=0;entryDx=0;entryDy=0;dashed=1;startArrow=none;startFill=0;endArrow=open;endFill=0;strokeColor=#1A1A1A;" edge="1" parent="1" source="45YRR1c24DKUCsaneUCk-16" target="45YRR1c24DKUCsaneUCk-21">
          <mxGeometry relative="1" as="geometry" />
        </mxCell>
        <mxCell id="45YRR1c24DKUCsaneUCk-16" value="4" style="ellipse;whiteSpace=wrap;html=1;aspect=fixed;" vertex="1" parent="1">
          <mxGeometry x="340" y="4960" width="40" height="40" as="geometry" />
        </mxCell>
        <mxCell id="45YRR1c24DKUCsaneUCk-17" value="11" style="ellipse;whiteSpace=wrap;html=1;aspect=fixed;" vertex="1" parent="1">
          <mxGeometry x="620" y="4960" width="40" height="40" as="geometry" />
        </mxCell>
        <mxCell id="45YRR1c24DKUCsaneUCk-18" value="10" style="ellipse;whiteSpace=wrap;html=1;aspect=fixed;fillColor=default;strokeColor=default;" vertex="1" parent="1">
          <mxGeometry x="140" y="5080" width="40" height="40" as="geometry" />
        </mxCell>
        <mxCell id="45YRR1c24DKUCsaneUCk-19" value="12" style="ellipse;whiteSpace=wrap;html=1;aspect=fixed;" vertex="1" parent="1">
          <mxGeometry x="220" y="5080" width="40" height="40" as="geometry" />
        </mxCell>
        <mxCell id="45YRR1c24DKUCsaneUCk-20" value="6" style="ellipse;whiteSpace=wrap;html=1;aspect=fixed;fillColor=default;strokeColor=default;" vertex="1" parent="1">
          <mxGeometry x="300" y="5080" width="40" height="40" as="geometry" />
        </mxCell>
        <mxCell id="45YRR1c24DKUCsaneUCk-21" value="8" style="ellipse;whiteSpace=wrap;html=1;aspect=fixed;" vertex="1" parent="1">
          <mxGeometry x="380" y="5080" width="40" height="40" as="geometry" />
        </mxCell>
        <mxCell id="45YRR1c24DKUCsaneUCk-22" value="0" style="text;html=1;strokeColor=none;fillColor=none;align=center;verticalAlign=middle;whiteSpace=wrap;rounded=0;" vertex="1" parent="1">
          <mxGeometry x="410" y="4700" width="20" height="20" as="geometry" />
        </mxCell>
        <mxCell id="45YRR1c24DKUCsaneUCk-23" style="edgeStyle=orthogonalEdgeStyle;rounded=0;orthogonalLoop=1;jettySize=auto;html=1;exitX=0;exitY=0.5;exitDx=0;exitDy=0;entryX=0.5;entryY=1;entryDx=0;entryDy=0;dashed=1;startArrow=open;startFill=0;endArrow=open;endFill=0;strokeColor=#66B2FF;" edge="1" parent="1" source="45YRR1c24DKUCsaneUCk-24" target="45YRR1c24DKUCsaneUCk-21">
          <mxGeometry relative="1" as="geometry">
            <Array as="points">
              <mxPoint x="120" y="4860" />
              <mxPoint x="120" y="5140" />
              <mxPoint x="400" y="5140" />
            </Array>
          </mxGeometry>
        </mxCell>
        <mxCell id="45YRR1c24DKUCsaneUCk-24" value="1" style="text;html=1;strokeColor=none;fillColor=none;align=center;verticalAlign=middle;whiteSpace=wrap;rounded=0;" vertex="1" parent="1">
          <mxGeometry x="240" y="4850" width="20" height="20" as="geometry" />
        </mxCell>
        <mxCell id="45YRR1c24DKUCsaneUCk-25" value="3" style="text;html=1;strokeColor=none;fillColor=none;align=center;verticalAlign=middle;whiteSpace=wrap;rounded=0;" vertex="1" parent="1">
          <mxGeometry x="160" y="4970" width="20" height="20" as="geometry" />
        </mxCell>
        <mxCell id="45YRR1c24DKUCsaneUCk-26" value="4" style="text;html=1;strokeColor=none;fillColor=none;align=center;verticalAlign=middle;whiteSpace=wrap;rounded=0;" vertex="1" parent="1">
          <mxGeometry x="320" y="4970" width="20" height="20" as="geometry" />
        </mxCell>
        <mxCell id="45YRR1c24DKUCsaneUCk-27" value="7" style="text;html=1;strokeColor=none;fillColor=none;align=center;verticalAlign=middle;whiteSpace=wrap;rounded=0;" vertex="1" parent="1">
          <mxGeometry x="120" y="5090" width="20" height="20" as="geometry" />
        </mxCell>
        <mxCell id="45YRR1c24DKUCsaneUCk-28" value="8" style="text;html=1;strokeColor=none;fillColor=none;align=center;verticalAlign=middle;whiteSpace=wrap;rounded=0;" vertex="1" parent="1">
          <mxGeometry x="200" y="5090" width="20" height="20" as="geometry" />
        </mxCell>
        <mxCell id="45YRR1c24DKUCsaneUCk-29" value="9" style="text;html=1;strokeColor=none;fillColor=none;align=center;verticalAlign=middle;whiteSpace=wrap;rounded=0;" vertex="1" parent="1">
          <mxGeometry x="280" y="5090" width="20" height="20" as="geometry" />
        </mxCell>
        <mxCell id="45YRR1c24DKUCsaneUCk-30" value="10" style="text;html=1;strokeColor=none;fillColor=none;align=center;verticalAlign=middle;whiteSpace=wrap;rounded=0;" vertex="1" parent="1">
          <mxGeometry x="360" y="5090" width="20" height="20" as="geometry" />
        </mxCell>
        <mxCell id="45YRR1c24DKUCsaneUCk-31" value="5" style="text;html=1;strokeColor=none;fillColor=none;align=center;verticalAlign=middle;whiteSpace=wrap;rounded=0;" vertex="1" parent="1">
          <mxGeometry x="500" y="4970" width="20" height="20" as="geometry" />
        </mxCell>
        <mxCell id="45YRR1c24DKUCsaneUCk-32" value="6" style="text;html=1;strokeColor=none;fillColor=none;align=center;verticalAlign=middle;whiteSpace=wrap;rounded=0;" vertex="1" parent="1">
          <mxGeometry x="660" y="4970" width="20" height="20" as="geometry" />
        </mxCell>
        <mxCell id="45YRR1c24DKUCsaneUCk-33" value="2" style="text;html=1;strokeColor=none;fillColor=none;align=center;verticalAlign=middle;whiteSpace=wrap;rounded=0;" vertex="1" parent="1">
          <mxGeometry x="580" y="4850" width="20" height="20" as="geometry" />
        </mxCell>
        <mxCell id="45YRR1c24DKUCsaneUCk-34" style="edgeStyle=none;rounded=0;orthogonalLoop=1;jettySize=auto;html=1;entryX=0.5;entryY=0;entryDx=0;entryDy=0;dashed=1;startArrow=none;startFill=0;endArrow=open;endFill=0;strokeColor=#1A1A1A;" edge="1" parent="1" source="45YRR1c24DKUCsaneUCk-37" target="45YRR1c24DKUCsaneUCk-46">
          <mxGeometry relative="1" as="geometry" />
        </mxCell>
        <mxCell id="45YRR1c24DKUCsaneUCk-35" style="edgeStyle=none;rounded=0;orthogonalLoop=1;jettySize=auto;html=1;dashed=1;startArrow=none;startFill=0;endArrow=open;endFill=0;strokeColor=#1A1A1A;entryX=0.5;entryY=0;entryDx=0;entryDy=0;" edge="1" parent="1" source="45YRR1c24DKUCsaneUCk-37" target="45YRR1c24DKUCsaneUCk-51">
          <mxGeometry relative="1" as="geometry" />
        </mxCell>
        <mxCell id="45YRR1c24DKUCsaneUCk-36" style="edgeStyle=orthogonalEdgeStyle;rounded=0;orthogonalLoop=1;jettySize=auto;html=1;exitX=1;exitY=0.5;exitDx=0;exitDy=0;entryX=1;entryY=0;entryDx=0;entryDy=0;dashed=1;startArrow=none;startFill=0;endArrow=open;endFill=0;strokeColor=#66B2FF;curved=1;" edge="1" parent="1" source="45YRR1c24DKUCsaneUCk-37" target="45YRR1c24DKUCsaneUCk-51">
          <mxGeometry relative="1" as="geometry" />
        </mxCell>
        <mxCell id="45YRR1c24DKUCsaneUCk-37" value="8" style="ellipse;whiteSpace=wrap;html=1;aspect=fixed;strokeColor=#1A1A1A;" vertex="1" parent="1">
          <mxGeometry x="260" y="5320" width="40" height="40" as="geometry" />
        </mxCell>
        <mxCell id="45YRR1c24DKUCsaneUCk-38" style="edgeStyle=none;rounded=0;orthogonalLoop=1;jettySize=auto;html=1;dashed=1;startArrow=none;startFill=0;endArrow=open;endFill=0;strokeColor=#1A1A1A;entryX=0.5;entryY=0;entryDx=0;entryDy=0;" edge="1" parent="1" source="45YRR1c24DKUCsaneUCk-40" target="45YRR1c24DKUCsaneUCk-47">
          <mxGeometry relative="1" as="geometry">
            <mxPoint x="440" y="5440" as="targetPoint" />
          </mxGeometry>
        </mxCell>
        <mxCell id="45YRR1c24DKUCsaneUCk-39" style="edgeStyle=none;rounded=0;orthogonalLoop=1;jettySize=auto;html=1;dashed=1;startArrow=none;startFill=0;endArrow=open;endFill=0;strokeColor=#1A1A1A;entryX=0.5;entryY=0;entryDx=0;entryDy=0;" edge="1" parent="1" source="45YRR1c24DKUCsaneUCk-40" target="45YRR1c24DKUCsaneUCk-52">
          <mxGeometry relative="1" as="geometry" />
        </mxCell>
        <mxCell id="45YRR1c24DKUCsaneUCk-40" value="4" style="ellipse;whiteSpace=wrap;html=1;aspect=fixed;" vertex="1" parent="1">
          <mxGeometry x="540" y="5320" width="40" height="40" as="geometry" />
        </mxCell>
        <mxCell id="45YRR1c24DKUCsaneUCk-41" style="rounded=0;orthogonalLoop=1;jettySize=auto;html=1;entryX=0.5;entryY=0;entryDx=0;entryDy=0;dashed=1;startArrow=none;startFill=0;endArrow=open;endFill=0;strokeColor=#1A1A1A;" edge="1" parent="1" source="45YRR1c24DKUCsaneUCk-43" target="45YRR1c24DKUCsaneUCk-37">
          <mxGeometry relative="1" as="geometry" />
        </mxCell>
        <mxCell id="45YRR1c24DKUCsaneUCk-42" style="edgeStyle=none;rounded=0;orthogonalLoop=1;jettySize=auto;html=1;entryX=0.5;entryY=0;entryDx=0;entryDy=0;dashed=1;startArrow=none;startFill=0;endArrow=open;endFill=0;strokeColor=#1A1A1A;" edge="1" parent="1" source="45YRR1c24DKUCsaneUCk-43" target="45YRR1c24DKUCsaneUCk-40">
          <mxGeometry relative="1" as="geometry" />
        </mxCell>
        <mxCell id="45YRR1c24DKUCsaneUCk-43" value="2" style="ellipse;whiteSpace=wrap;html=1;aspect=fixed;" vertex="1" parent="1">
          <mxGeometry x="400" y="5200" width="40" height="40" as="geometry" />
        </mxCell>
        <mxCell id="45YRR1c24DKUCsaneUCk-44" style="rounded=0;orthogonalLoop=1;jettySize=auto;html=1;entryX=0.5;entryY=0;entryDx=0;entryDy=0;dashed=1;startArrow=none;startFill=0;endArrow=open;endFill=0;strokeColor=#1A1A1A;" edge="1" parent="1" source="45YRR1c24DKUCsaneUCk-46" target="45YRR1c24DKUCsaneUCk-53">
          <mxGeometry relative="1" as="geometry" />
        </mxCell>
        <mxCell id="45YRR1c24DKUCsaneUCk-45" style="edgeStyle=none;rounded=0;orthogonalLoop=1;jettySize=auto;html=1;dashed=1;startArrow=none;startFill=0;endArrow=open;endFill=0;strokeColor=#1A1A1A;entryX=0.5;entryY=0;entryDx=0;entryDy=0;" edge="1" parent="1" source="45YRR1c24DKUCsaneUCk-46" target="45YRR1c24DKUCsaneUCk-54">
          <mxGeometry relative="1" as="geometry">
            <mxPoint x="280" y="5560" as="targetPoint" />
          </mxGeometry>
        </mxCell>
        <mxCell id="45YRR1c24DKUCsaneUCk-46" value="7" style="ellipse;whiteSpace=wrap;html=1;aspect=fixed;fillColor=default;strokeColor=default;" vertex="1" parent="1">
          <mxGeometry x="180" y="5440" width="40" height="40" as="geometry" />
        </mxCell>
        <mxCell id="45YRR1c24DKUCsaneUCk-47" value="5" style="ellipse;whiteSpace=wrap;html=1;aspect=fixed;" vertex="1" parent="1">
          <mxGeometry x="460" y="5440" width="40" height="40" as="geometry" />
        </mxCell>
        <mxCell id="45YRR1c24DKUCsaneUCk-48" style="edgeStyle=none;rounded=0;orthogonalLoop=1;jettySize=auto;html=1;exitX=0.5;exitY=1;exitDx=0;exitDy=0;dashed=1;startArrow=none;startFill=0;endArrow=open;endFill=0;strokeColor=#1A1A1A;" edge="1" parent="1" source="45YRR1c24DKUCsaneUCk-51">
          <mxGeometry relative="1" as="geometry">
            <mxPoint x="320" y="5560" as="targetPoint" />
          </mxGeometry>
        </mxCell>
        <mxCell id="45YRR1c24DKUCsaneUCk-49" style="edgeStyle=none;rounded=0;orthogonalLoop=1;jettySize=auto;html=1;exitX=0.5;exitY=1;exitDx=0;exitDy=0;entryX=0.5;entryY=0;entryDx=0;entryDy=0;dashed=1;startArrow=none;startFill=0;endArrow=open;endFill=0;strokeColor=#1A1A1A;" edge="1" parent="1" source="45YRR1c24DKUCsaneUCk-51" target="45YRR1c24DKUCsaneUCk-57">
          <mxGeometry relative="1" as="geometry" />
        </mxCell>
        <mxCell id="45YRR1c24DKUCsaneUCk-50" style="edgeStyle=orthogonalEdgeStyle;curved=1;rounded=0;orthogonalLoop=1;jettySize=auto;html=1;exitX=0;exitY=1;exitDx=0;exitDy=0;entryX=0;entryY=0;entryDx=0;entryDy=0;dashed=1;startArrow=none;startFill=0;endArrow=open;endFill=0;strokeColor=#66B2FF;" edge="1" parent="1" source="45YRR1c24DKUCsaneUCk-51" target="45YRR1c24DKUCsaneUCk-56">
          <mxGeometry relative="1" as="geometry" />
        </mxCell>
        <mxCell id="45YRR1c24DKUCsaneUCk-51" value="4" style="ellipse;whiteSpace=wrap;html=1;aspect=fixed;" vertex="1" parent="1">
          <mxGeometry x="340" y="5440" width="40" height="40" as="geometry" />
        </mxCell>
        <mxCell id="45YRR1c24DKUCsaneUCk-52" value="11" style="ellipse;whiteSpace=wrap;html=1;aspect=fixed;" vertex="1" parent="1">
          <mxGeometry x="620" y="5440" width="40" height="40" as="geometry" />
        </mxCell>
        <mxCell id="45YRR1c24DKUCsaneUCk-53" value="10" style="ellipse;whiteSpace=wrap;html=1;aspect=fixed;fillColor=default;strokeColor=default;" vertex="1" parent="1">
          <mxGeometry x="140" y="5560" width="40" height="40" as="geometry" />
        </mxCell>
        <mxCell id="45YRR1c24DKUCsaneUCk-54" value="12" style="ellipse;whiteSpace=wrap;html=1;aspect=fixed;" vertex="1" parent="1">
          <mxGeometry x="220" y="5560" width="40" height="40" as="geometry" />
        </mxCell>
        <mxCell id="45YRR1c24DKUCsaneUCk-55" style="edgeStyle=orthogonalEdgeStyle;curved=1;rounded=0;orthogonalLoop=1;jettySize=auto;html=1;exitX=0.5;exitY=1;exitDx=0;exitDy=0;entryX=0.5;entryY=1;entryDx=0;entryDy=0;dashed=1;startArrow=none;startFill=0;endArrow=cross;endFill=0;strokeColor=#FF3333;" edge="1" parent="1" source="45YRR1c24DKUCsaneUCk-56" target="45YRR1c24DKUCsaneUCk-57">
          <mxGeometry relative="1" as="geometry" />
        </mxCell>
        <mxCell id="45YRR1c24DKUCsaneUCk-56" value="6" style="ellipse;whiteSpace=wrap;html=1;aspect=fixed;fillColor=default;strokeColor=default;" vertex="1" parent="1">
          <mxGeometry x="300" y="5560" width="40" height="40" as="geometry" />
        </mxCell>
        <mxCell id="45YRR1c24DKUCsaneUCk-57" value="3" style="ellipse;whiteSpace=wrap;html=1;aspect=fixed;" vertex="1" parent="1">
          <mxGeometry x="380" y="5560" width="40" height="40" as="geometry" />
        </mxCell>
        <mxCell id="45YRR1c24DKUCsaneUCk-58" value="0" style="text;html=1;strokeColor=none;fillColor=none;align=center;verticalAlign=middle;whiteSpace=wrap;rounded=0;" vertex="1" parent="1">
          <mxGeometry x="410" y="5180" width="20" height="20" as="geometry" />
        </mxCell>
        <mxCell id="45YRR1c24DKUCsaneUCk-59" value="1" style="text;html=1;strokeColor=none;fillColor=none;align=center;verticalAlign=middle;whiteSpace=wrap;rounded=0;" vertex="1" parent="1">
          <mxGeometry x="240" y="5330" width="20" height="20" as="geometry" />
        </mxCell>
        <mxCell id="45YRR1c24DKUCsaneUCk-60" value="3" style="text;html=1;strokeColor=none;fillColor=none;align=center;verticalAlign=middle;whiteSpace=wrap;rounded=0;" vertex="1" parent="1">
          <mxGeometry x="160" y="5450" width="20" height="20" as="geometry" />
        </mxCell>
        <mxCell id="45YRR1c24DKUCsaneUCk-61" value="4" style="text;html=1;strokeColor=none;fillColor=none;align=center;verticalAlign=middle;whiteSpace=wrap;rounded=0;" vertex="1" parent="1">
          <mxGeometry x="320" y="5450" width="20" height="20" as="geometry" />
        </mxCell>
        <mxCell id="45YRR1c24DKUCsaneUCk-62" value="7" style="text;html=1;strokeColor=none;fillColor=none;align=center;verticalAlign=middle;whiteSpace=wrap;rounded=0;" vertex="1" parent="1">
          <mxGeometry x="120" y="5570" width="20" height="20" as="geometry" />
        </mxCell>
        <mxCell id="45YRR1c24DKUCsaneUCk-63" value="8" style="text;html=1;strokeColor=none;fillColor=none;align=center;verticalAlign=middle;whiteSpace=wrap;rounded=0;" vertex="1" parent="1">
          <mxGeometry x="200" y="5570" width="20" height="20" as="geometry" />
        </mxCell>
        <mxCell id="45YRR1c24DKUCsaneUCk-64" value="9" style="text;html=1;strokeColor=none;fillColor=none;align=center;verticalAlign=middle;whiteSpace=wrap;rounded=0;" vertex="1" parent="1">
          <mxGeometry x="280" y="5570" width="20" height="20" as="geometry" />
        </mxCell>
        <mxCell id="45YRR1c24DKUCsaneUCk-65" value="10" style="text;html=1;strokeColor=none;fillColor=none;align=center;verticalAlign=middle;whiteSpace=wrap;rounded=0;" vertex="1" parent="1">
          <mxGeometry x="360" y="5570" width="20" height="20" as="geometry" />
        </mxCell>
        <mxCell id="45YRR1c24DKUCsaneUCk-66" value="5" style="text;html=1;strokeColor=none;fillColor=none;align=center;verticalAlign=middle;whiteSpace=wrap;rounded=0;" vertex="1" parent="1">
          <mxGeometry x="500" y="5450" width="20" height="20" as="geometry" />
        </mxCell>
        <mxCell id="45YRR1c24DKUCsaneUCk-67" value="6" style="text;html=1;strokeColor=none;fillColor=none;align=center;verticalAlign=middle;whiteSpace=wrap;rounded=0;" vertex="1" parent="1">
          <mxGeometry x="660" y="5450" width="20" height="20" as="geometry" />
        </mxCell>
        <mxCell id="45YRR1c24DKUCsaneUCk-68" value="2" style="text;html=1;strokeColor=none;fillColor=none;align=center;verticalAlign=middle;whiteSpace=wrap;rounded=0;" vertex="1" parent="1">
          <mxGeometry x="580" y="5330" width="20" height="20" as="geometry" />
        </mxCell>
        <mxCell id="45YRR1c24DKUCsaneUCk-69" value="Remove" style="text;html=1;strokeColor=none;fillColor=none;align=center;verticalAlign=middle;whiteSpace=wrap;rounded=0;" vertex="1" parent="1">
          <mxGeometry x="150" y="4800" width="40" height="20" as="geometry" />
        </mxCell>
        <mxCell id="45YRR1c24DKUCsaneUCk-70" value="" style="curved=1;endArrow=open;html=1;rounded=0;dashed=1;strokeColor=#FF3333;endFill=0;fillColor=#dae8fc;exitX=1;exitY=1;exitDx=0;exitDy=0;startArrow=none;startFill=0;" edge="1" parent="1">
          <mxGeometry width="50" height="50" relative="1" as="geometry">
            <mxPoint x="195.0021356237312" y="4814.1421356237315" as="sourcePoint" />
            <mxPoint x="270.8600000000001" y="4840" as="targetPoint" />
            <Array as="points">
              <mxPoint x="260.86" y="4820" />
              <mxPoint x="210.86" y="4830" />
              <mxPoint x="230.86" y="4800" />
            </Array>
          </mxGeometry>
        </mxCell>
        <mxCell id="45YRR1c24DKUCsaneUCk-71" value="swap" style="text;html=1;strokeColor=none;fillColor=none;align=center;verticalAlign=middle;whiteSpace=wrap;rounded=0;" vertex="1" parent="1">
          <mxGeometry x="80" y="4980" width="30" height="20" as="geometry" />
        </mxCell>
        <mxCell id="45YRR1c24DKUCsaneUCk-72" value="" style="curved=1;endArrow=open;html=1;rounded=0;dashed=1;strokeColor=#66B2FF;endFill=0;fillColor=#dae8fc;exitX=1;exitY=1;exitDx=0;exitDy=0;startArrow=none;startFill=0;" edge="1" parent="1">
          <mxGeometry width="50" height="50" relative="1" as="geometry">
            <mxPoint x="188.0021356237312" y="5302.1421356237315" as="sourcePoint" />
            <mxPoint x="263.8600000000001" y="5328" as="targetPoint" />
            <Array as="points">
              <mxPoint x="253.86" y="5308" />
              <mxPoint x="203.86" y="5318" />
              <mxPoint x="223.86" y="5288" />
            </Array>
          </mxGeometry>
        </mxCell>
        <mxCell id="45YRR1c24DKUCsaneUCk-73" value="down" style="text;html=1;strokeColor=none;fillColor=none;align=center;verticalAlign=middle;whiteSpace=wrap;rounded=0;" vertex="1" parent="1">
          <mxGeometry x="150" y="5289" width="40" height="20" as="geometry" />
        </mxCell>
        <mxCell id="45YRR1c24DKUCsaneUCk-74" style="edgeStyle=orthogonalEdgeStyle;curved=1;rounded=0;orthogonalLoop=1;jettySize=auto;html=1;exitX=0.5;exitY=0;exitDx=0;exitDy=0;entryX=0.5;entryY=1;entryDx=0;entryDy=0;dashed=1;startArrow=none;startFill=0;endArrow=open;endFill=0;strokeColor=#66B2FF;" edge="1" parent="1" source="45YRR1c24DKUCsaneUCk-75" target="45YRR1c24DKUCsaneUCk-56">
          <mxGeometry relative="1" as="geometry" />
        </mxCell>
        <mxCell id="45YRR1c24DKUCsaneUCk-75" value="j" style="text;html=1;strokeColor=none;fillColor=none;align=center;verticalAlign=middle;whiteSpace=wrap;rounded=0;" vertex="1" parent="1">
          <mxGeometry x="309.75" y="5649" width="20.5" height="20" as="geometry" />
        </mxCell>
        <mxCell id="45YRR1c24DKUCsaneUCk-76" value="j2 == n" style="text;html=1;strokeColor=none;fillColor=none;align=center;verticalAlign=middle;whiteSpace=wrap;rounded=0;" vertex="1" parent="1">
          <mxGeometry x="380" y="5619" width="40" height="20" as="geometry" />
        </mxCell>
        <mxCell id="45YRR1c24DKUCsaneUCk-77" value="" style="curved=1;endArrow=open;html=1;rounded=0;dashed=1;strokeColor=#FF3333;endFill=0;fillColor=#dae8fc;exitX=1;exitY=1;exitDx=0;exitDy=0;" edge="1" parent="1">
          <mxGeometry width="50" height="50" relative="1" as="geometry">
            <mxPoint x="420.00213562374256" y="5584.142135623743" as="sourcePoint" />
            <mxPoint x="495.8600000000001" y="5610" as="targetPoint" />
            <Array as="points">
              <mxPoint x="460" y="5590" />
              <mxPoint x="470" y="5599" />
              <mxPoint x="435.86" y="5600" />
              <mxPoint x="455.86" y="5570" />
            </Array>
          </mxGeometry>
        </mxCell>
        <mxCell id="45YRR1c24DKUCsaneUCk-78" value="Pop" style="text;html=1;strokeColor=none;fillColor=none;align=center;verticalAlign=middle;whiteSpace=wrap;rounded=0;" vertex="1" parent="1">
          <mxGeometry x="495.86" y="5600" width="30" height="20" as="geometry" />
        </mxCell>
        <mxCell id="45YRR1c24DKUCsaneUCk-79" style="edgeStyle=none;rounded=0;orthogonalLoop=1;jettySize=auto;html=1;entryX=0.5;entryY=0;entryDx=0;entryDy=0;dashed=1;startArrow=none;startFill=0;endArrow=open;endFill=0;strokeColor=#1A1A1A;" edge="1" parent="1" source="45YRR1c24DKUCsaneUCk-81" target="45YRR1c24DKUCsaneUCk-90">
          <mxGeometry relative="1" as="geometry" />
        </mxCell>
        <mxCell id="45YRR1c24DKUCsaneUCk-80" style="edgeStyle=none;rounded=0;orthogonalLoop=1;jettySize=auto;html=1;dashed=1;startArrow=none;startFill=0;endArrow=open;endFill=0;strokeColor=#1A1A1A;entryX=0.5;entryY=0;entryDx=0;entryDy=0;" edge="1" parent="1" source="45YRR1c24DKUCsaneUCk-81" target="45YRR1c24DKUCsaneUCk-93">
          <mxGeometry relative="1" as="geometry" />
        </mxCell>
        <mxCell id="45YRR1c24DKUCsaneUCk-81" value="4" style="ellipse;whiteSpace=wrap;html=1;aspect=fixed;strokeColor=#1A1A1A;" vertex="1" parent="1">
          <mxGeometry x="260" y="5839" width="40" height="40" as="geometry" />
        </mxCell>
        <mxCell id="45YRR1c24DKUCsaneUCk-82" style="edgeStyle=none;rounded=0;orthogonalLoop=1;jettySize=auto;html=1;dashed=1;startArrow=none;startFill=0;endArrow=open;endFill=0;strokeColor=#1A1A1A;entryX=0.5;entryY=0;entryDx=0;entryDy=0;" edge="1" parent="1" source="45YRR1c24DKUCsaneUCk-84" target="45YRR1c24DKUCsaneUCk-91">
          <mxGeometry relative="1" as="geometry">
            <mxPoint x="440" y="5959" as="targetPoint" />
          </mxGeometry>
        </mxCell>
        <mxCell id="45YRR1c24DKUCsaneUCk-83" style="edgeStyle=none;rounded=0;orthogonalLoop=1;jettySize=auto;html=1;dashed=1;startArrow=none;startFill=0;endArrow=open;endFill=0;strokeColor=#1A1A1A;entryX=0.5;entryY=0;entryDx=0;entryDy=0;" edge="1" parent="1" source="45YRR1c24DKUCsaneUCk-84" target="45YRR1c24DKUCsaneUCk-94">
          <mxGeometry relative="1" as="geometry" />
        </mxCell>
        <mxCell id="45YRR1c24DKUCsaneUCk-84" value="4" style="ellipse;whiteSpace=wrap;html=1;aspect=fixed;" vertex="1" parent="1">
          <mxGeometry x="540" y="5839" width="40" height="40" as="geometry" />
        </mxCell>
        <mxCell id="45YRR1c24DKUCsaneUCk-85" style="rounded=0;orthogonalLoop=1;jettySize=auto;html=1;entryX=0.5;entryY=0;entryDx=0;entryDy=0;dashed=1;startArrow=none;startFill=0;endArrow=open;endFill=0;strokeColor=#1A1A1A;" edge="1" parent="1" source="45YRR1c24DKUCsaneUCk-87" target="45YRR1c24DKUCsaneUCk-81">
          <mxGeometry relative="1" as="geometry" />
        </mxCell>
        <mxCell id="45YRR1c24DKUCsaneUCk-86" style="edgeStyle=none;rounded=0;orthogonalLoop=1;jettySize=auto;html=1;entryX=0.5;entryY=0;entryDx=0;entryDy=0;dashed=1;startArrow=none;startFill=0;endArrow=open;endFill=0;strokeColor=#1A1A1A;" edge="1" parent="1" source="45YRR1c24DKUCsaneUCk-87" target="45YRR1c24DKUCsaneUCk-84">
          <mxGeometry relative="1" as="geometry" />
        </mxCell>
        <mxCell id="45YRR1c24DKUCsaneUCk-87" value="2" style="ellipse;whiteSpace=wrap;html=1;aspect=fixed;" vertex="1" parent="1">
          <mxGeometry x="400" y="5719" width="40" height="40" as="geometry" />
        </mxCell>
        <mxCell id="45YRR1c24DKUCsaneUCk-88" style="rounded=0;orthogonalLoop=1;jettySize=auto;html=1;entryX=0.5;entryY=0;entryDx=0;entryDy=0;dashed=1;startArrow=none;startFill=0;endArrow=open;endFill=0;strokeColor=#1A1A1A;" edge="1" parent="1" source="45YRR1c24DKUCsaneUCk-90" target="45YRR1c24DKUCsaneUCk-96">
          <mxGeometry relative="1" as="geometry" />
        </mxCell>
        <mxCell id="45YRR1c24DKUCsaneUCk-89" style="edgeStyle=none;rounded=0;orthogonalLoop=1;jettySize=auto;html=1;dashed=1;startArrow=none;startFill=0;endArrow=open;endFill=0;strokeColor=#1A1A1A;entryX=0.5;entryY=0;entryDx=0;entryDy=0;" edge="1" parent="1" source="45YRR1c24DKUCsaneUCk-90" target="45YRR1c24DKUCsaneUCk-97">
          <mxGeometry relative="1" as="geometry">
            <mxPoint x="280" y="6079" as="targetPoint" />
          </mxGeometry>
        </mxCell>
        <mxCell id="45YRR1c24DKUCsaneUCk-90" value="7" style="ellipse;whiteSpace=wrap;html=1;aspect=fixed;fillColor=default;strokeColor=default;" vertex="1" parent="1">
          <mxGeometry x="180" y="5959" width="40" height="40" as="geometry" />
        </mxCell>
        <mxCell id="45YRR1c24DKUCsaneUCk-91" value="5" style="ellipse;whiteSpace=wrap;html=1;aspect=fixed;" vertex="1" parent="1">
          <mxGeometry x="460" y="5959" width="40" height="40" as="geometry" />
        </mxCell>
        <mxCell id="45YRR1c24DKUCsaneUCk-92" style="edgeStyle=none;rounded=0;orthogonalLoop=1;jettySize=auto;html=1;exitX=0.5;exitY=1;exitDx=0;exitDy=0;dashed=1;startArrow=none;startFill=0;endArrow=open;endFill=0;strokeColor=#1A1A1A;" edge="1" parent="1" source="45YRR1c24DKUCsaneUCk-93">
          <mxGeometry relative="1" as="geometry">
            <mxPoint x="320" y="6079" as="targetPoint" />
          </mxGeometry>
        </mxCell>
        <mxCell id="45YRR1c24DKUCsaneUCk-93" value="6" style="ellipse;whiteSpace=wrap;html=1;aspect=fixed;" vertex="1" parent="1">
          <mxGeometry x="340" y="5959" width="40" height="40" as="geometry" />
        </mxCell>
        <mxCell id="45YRR1c24DKUCsaneUCk-94" value="11" style="ellipse;whiteSpace=wrap;html=1;aspect=fixed;" vertex="1" parent="1">
          <mxGeometry x="620" y="5959" width="40" height="40" as="geometry" />
        </mxCell>
        <mxCell id="45YRR1c24DKUCsaneUCk-95" style="edgeStyle=orthogonalEdgeStyle;rounded=0;orthogonalLoop=1;jettySize=auto;html=1;exitX=0.5;exitY=1;exitDx=0;exitDy=0;entryX=0.5;entryY=1;entryDx=0;entryDy=0;dashed=1;startArrow=open;startFill=0;endArrow=open;endFill=0;strokeColor=#66B2FF;" edge="1" parent="1" source="45YRR1c24DKUCsaneUCk-96" target="45YRR1c24DKUCsaneUCk-98">
          <mxGeometry relative="1" as="geometry" />
        </mxCell>
        <mxCell id="45YRR1c24DKUCsaneUCk-96" value="10" style="ellipse;whiteSpace=wrap;html=1;aspect=fixed;fillColor=default;strokeColor=default;" vertex="1" parent="1">
          <mxGeometry x="140" y="6079" width="40" height="40" as="geometry" />
        </mxCell>
        <mxCell id="45YRR1c24DKUCsaneUCk-97" value="12" style="ellipse;whiteSpace=wrap;html=1;aspect=fixed;" vertex="1" parent="1">
          <mxGeometry x="220" y="6079" width="40" height="40" as="geometry" />
        </mxCell>
        <mxCell id="45YRR1c24DKUCsaneUCk-98" value="8" style="ellipse;whiteSpace=wrap;html=1;aspect=fixed;fillColor=default;strokeColor=default;" vertex="1" parent="1">
          <mxGeometry x="300" y="6079" width="40" height="40" as="geometry" />
        </mxCell>
        <mxCell id="45YRR1c24DKUCsaneUCk-99" value="0" style="text;html=1;strokeColor=none;fillColor=none;align=center;verticalAlign=middle;whiteSpace=wrap;rounded=0;" vertex="1" parent="1">
          <mxGeometry x="410" y="5699" width="20" height="20" as="geometry" />
        </mxCell>
        <mxCell id="45YRR1c24DKUCsaneUCk-100" value="1" style="text;html=1;strokeColor=none;fillColor=none;align=center;verticalAlign=middle;whiteSpace=wrap;rounded=0;" vertex="1" parent="1">
          <mxGeometry x="240" y="5849" width="20" height="20" as="geometry" />
        </mxCell>
        <mxCell id="45YRR1c24DKUCsaneUCk-101" value="3" style="text;html=1;strokeColor=none;fillColor=none;align=center;verticalAlign=middle;whiteSpace=wrap;rounded=0;" vertex="1" parent="1">
          <mxGeometry x="160" y="5969" width="20" height="20" as="geometry" />
        </mxCell>
        <mxCell id="45YRR1c24DKUCsaneUCk-102" value="4" style="text;html=1;strokeColor=none;fillColor=none;align=center;verticalAlign=middle;whiteSpace=wrap;rounded=0;" vertex="1" parent="1">
          <mxGeometry x="320" y="5969" width="20" height="20" as="geometry" />
        </mxCell>
        <mxCell id="45YRR1c24DKUCsaneUCk-103" value="7" style="text;html=1;strokeColor=none;fillColor=none;align=center;verticalAlign=middle;whiteSpace=wrap;rounded=0;" vertex="1" parent="1">
          <mxGeometry x="120" y="6089" width="20" height="20" as="geometry" />
        </mxCell>
        <mxCell id="45YRR1c24DKUCsaneUCk-104" value="8" style="text;html=1;strokeColor=none;fillColor=none;align=center;verticalAlign=middle;whiteSpace=wrap;rounded=0;" vertex="1" parent="1">
          <mxGeometry x="200" y="6089" width="20" height="20" as="geometry" />
        </mxCell>
        <mxCell id="45YRR1c24DKUCsaneUCk-105" value="9" style="text;html=1;strokeColor=none;fillColor=none;align=center;verticalAlign=middle;whiteSpace=wrap;rounded=0;" vertex="1" parent="1">
          <mxGeometry x="280" y="6089" width="20" height="20" as="geometry" />
        </mxCell>
        <mxCell id="45YRR1c24DKUCsaneUCk-106" value="5" style="text;html=1;strokeColor=none;fillColor=none;align=center;verticalAlign=middle;whiteSpace=wrap;rounded=0;" vertex="1" parent="1">
          <mxGeometry x="500" y="5969" width="20" height="20" as="geometry" />
        </mxCell>
        <mxCell id="45YRR1c24DKUCsaneUCk-107" value="6" style="text;html=1;strokeColor=none;fillColor=none;align=center;verticalAlign=middle;whiteSpace=wrap;rounded=0;" vertex="1" parent="1">
          <mxGeometry x="660" y="5969" width="20" height="20" as="geometry" />
        </mxCell>
        <mxCell id="45YRR1c24DKUCsaneUCk-108" value="2" style="text;html=1;strokeColor=none;fillColor=none;align=center;verticalAlign=middle;whiteSpace=wrap;rounded=0;" vertex="1" parent="1">
          <mxGeometry x="580" y="5849" width="20" height="20" as="geometry" />
        </mxCell>
        <mxCell id="45YRR1c24DKUCsaneUCk-109" value="Remove" style="text;html=1;strokeColor=none;fillColor=none;align=center;verticalAlign=middle;whiteSpace=wrap;rounded=0;" vertex="1" parent="1">
          <mxGeometry x="81.24999999999999" y="6019" width="40" height="20" as="geometry" />
        </mxCell>
        <mxCell id="45YRR1c24DKUCsaneUCk-110" value="" style="curved=1;endArrow=open;html=1;rounded=0;dashed=1;strokeColor=#FF3333;endFill=0;fillColor=#dae8fc;exitX=0.5;exitY=1;exitDx=0;exitDy=0;startArrow=none;startFill=0;" edge="1" parent="1" source="45YRR1c24DKUCsaneUCk-109">
          <mxGeometry width="50" height="50" relative="1" as="geometry">
            <mxPoint x="69.14213562373118" y="6060.1421356237315" as="sourcePoint" />
            <mxPoint x="145" y="6086" as="targetPoint" />
            <Array as="points">
              <mxPoint x="135" y="6066" />
              <mxPoint x="85" y="6076" />
              <mxPoint x="105" y="6046" />
            </Array>
          </mxGeometry>
        </mxCell>
        <mxCell id="45YRR1c24DKUCsaneUCk-111" value="swap" style="text;html=1;strokeColor=none;fillColor=none;align=center;verticalAlign=middle;whiteSpace=wrap;rounded=0;" vertex="1" parent="1">
          <mxGeometry x="220" y="6139" width="40" height="20" as="geometry" />
        </mxCell>
        <mxCell id="45YRR1c24DKUCsaneUCk-112" style="edgeStyle=none;rounded=0;orthogonalLoop=1;jettySize=auto;html=1;entryX=0.5;entryY=0;entryDx=0;entryDy=0;dashed=1;startArrow=none;startFill=0;endArrow=open;endFill=0;strokeColor=#1A1A1A;" edge="1" parent="1" source="45YRR1c24DKUCsaneUCk-114" target="45YRR1c24DKUCsaneUCk-123">
          <mxGeometry relative="1" as="geometry" />
        </mxCell>
        <mxCell id="45YRR1c24DKUCsaneUCk-113" style="edgeStyle=none;rounded=0;orthogonalLoop=1;jettySize=auto;html=1;dashed=1;startArrow=none;startFill=0;endArrow=open;endFill=0;strokeColor=#1A1A1A;entryX=0.5;entryY=0;entryDx=0;entryDy=0;" edge="1" parent="1" source="45YRR1c24DKUCsaneUCk-114" target="45YRR1c24DKUCsaneUCk-126">
          <mxGeometry relative="1" as="geometry" />
        </mxCell>
        <mxCell id="45YRR1c24DKUCsaneUCk-114" value="4" style="ellipse;whiteSpace=wrap;html=1;aspect=fixed;strokeColor=#1A1A1A;" vertex="1" parent="1">
          <mxGeometry x="261.25" y="6320" width="40" height="40" as="geometry" />
        </mxCell>
        <mxCell id="45YRR1c24DKUCsaneUCk-115" style="edgeStyle=none;rounded=0;orthogonalLoop=1;jettySize=auto;html=1;dashed=1;startArrow=none;startFill=0;endArrow=open;endFill=0;strokeColor=#1A1A1A;entryX=0.5;entryY=0;entryDx=0;entryDy=0;" edge="1" parent="1" source="45YRR1c24DKUCsaneUCk-117" target="45YRR1c24DKUCsaneUCk-124">
          <mxGeometry relative="1" as="geometry">
            <mxPoint x="441.25" y="6440" as="targetPoint" />
          </mxGeometry>
        </mxCell>
        <mxCell id="45YRR1c24DKUCsaneUCk-116" style="edgeStyle=none;rounded=0;orthogonalLoop=1;jettySize=auto;html=1;dashed=1;startArrow=none;startFill=0;endArrow=open;endFill=0;strokeColor=#1A1A1A;entryX=0.5;entryY=0;entryDx=0;entryDy=0;" edge="1" parent="1" source="45YRR1c24DKUCsaneUCk-117" target="45YRR1c24DKUCsaneUCk-127">
          <mxGeometry relative="1" as="geometry" />
        </mxCell>
        <mxCell id="45YRR1c24DKUCsaneUCk-117" value="4" style="ellipse;whiteSpace=wrap;html=1;aspect=fixed;" vertex="1" parent="1">
          <mxGeometry x="541.25" y="6320" width="40" height="40" as="geometry" />
        </mxCell>
        <mxCell id="45YRR1c24DKUCsaneUCk-118" style="rounded=0;orthogonalLoop=1;jettySize=auto;html=1;entryX=0.5;entryY=0;entryDx=0;entryDy=0;dashed=1;startArrow=none;startFill=0;endArrow=open;endFill=0;strokeColor=#1A1A1A;" edge="1" parent="1" source="45YRR1c24DKUCsaneUCk-120" target="45YRR1c24DKUCsaneUCk-114">
          <mxGeometry relative="1" as="geometry" />
        </mxCell>
        <mxCell id="45YRR1c24DKUCsaneUCk-119" style="edgeStyle=none;rounded=0;orthogonalLoop=1;jettySize=auto;html=1;entryX=0.5;entryY=0;entryDx=0;entryDy=0;dashed=1;startArrow=none;startFill=0;endArrow=open;endFill=0;strokeColor=#1A1A1A;" edge="1" parent="1" source="45YRR1c24DKUCsaneUCk-120" target="45YRR1c24DKUCsaneUCk-117">
          <mxGeometry relative="1" as="geometry" />
        </mxCell>
        <mxCell id="45YRR1c24DKUCsaneUCk-120" value="2" style="ellipse;whiteSpace=wrap;html=1;aspect=fixed;" vertex="1" parent="1">
          <mxGeometry x="401.25" y="6200" width="40" height="40" as="geometry" />
        </mxCell>
        <mxCell id="45YRR1c24DKUCsaneUCk-121" style="rounded=0;orthogonalLoop=1;jettySize=auto;html=1;entryX=0.5;entryY=0;entryDx=0;entryDy=0;dashed=1;startArrow=none;startFill=0;endArrow=open;endFill=0;strokeColor=#1A1A1A;" edge="1" parent="1" source="45YRR1c24DKUCsaneUCk-123" target="45YRR1c24DKUCsaneUCk-129">
          <mxGeometry relative="1" as="geometry" />
        </mxCell>
        <mxCell id="45YRR1c24DKUCsaneUCk-122" style="edgeStyle=none;rounded=0;orthogonalLoop=1;jettySize=auto;html=1;dashed=1;startArrow=none;startFill=0;endArrow=open;endFill=0;strokeColor=#1A1A1A;entryX=0.5;entryY=0;entryDx=0;entryDy=0;" edge="1" parent="1" source="45YRR1c24DKUCsaneUCk-123" target="45YRR1c24DKUCsaneUCk-130">
          <mxGeometry relative="1" as="geometry">
            <mxPoint x="281.25" y="6560" as="targetPoint" />
          </mxGeometry>
        </mxCell>
        <mxCell id="45YRR1c24DKUCsaneUCk-123" value="7" style="ellipse;whiteSpace=wrap;html=1;aspect=fixed;fillColor=default;strokeColor=default;" vertex="1" parent="1">
          <mxGeometry x="181.25" y="6440" width="40" height="40" as="geometry" />
        </mxCell>
        <mxCell id="45YRR1c24DKUCsaneUCk-124" value="5" style="ellipse;whiteSpace=wrap;html=1;aspect=fixed;" vertex="1" parent="1">
          <mxGeometry x="461.25" y="6440" width="40" height="40" as="geometry" />
        </mxCell>
        <mxCell id="45YRR1c24DKUCsaneUCk-125" style="edgeStyle=none;rounded=0;orthogonalLoop=1;jettySize=auto;html=1;exitX=0.5;exitY=1;exitDx=0;exitDy=0;dashed=1;startArrow=none;startFill=0;endArrow=open;endFill=0;strokeColor=#1A1A1A;" edge="1" parent="1" source="45YRR1c24DKUCsaneUCk-126">
          <mxGeometry relative="1" as="geometry">
            <mxPoint x="321.25" y="6560.000000000001" as="targetPoint" />
          </mxGeometry>
        </mxCell>
        <mxCell id="45YRR1c24DKUCsaneUCk-126" value="6" style="ellipse;whiteSpace=wrap;html=1;aspect=fixed;" vertex="1" parent="1">
          <mxGeometry x="341.25" y="6440" width="40" height="40" as="geometry" />
        </mxCell>
        <mxCell id="45YRR1c24DKUCsaneUCk-127" value="11" style="ellipse;whiteSpace=wrap;html=1;aspect=fixed;" vertex="1" parent="1">
          <mxGeometry x="621.25" y="6440" width="40" height="40" as="geometry" />
        </mxCell>
        <mxCell id="45YRR1c24DKUCsaneUCk-128" style="edgeStyle=orthogonalEdgeStyle;rounded=0;orthogonalLoop=1;jettySize=auto;html=1;exitX=0;exitY=0;exitDx=0;exitDy=0;entryX=0;entryY=1;entryDx=0;entryDy=0;dashed=1;startArrow=none;startFill=0;endArrow=open;endFill=0;strokeColor=#66B2FF;curved=1;" edge="1" parent="1" source="45YRR1c24DKUCsaneUCk-129" target="45YRR1c24DKUCsaneUCk-123">
          <mxGeometry relative="1" as="geometry">
            <Array as="points">
              <mxPoint x="121.25" y="6566" />
              <mxPoint x="121.25" y="6510" />
              <mxPoint x="161.25" y="6510" />
              <mxPoint x="161.25" y="6474" />
            </Array>
          </mxGeometry>
        </mxCell>
        <mxCell id="45YRR1c24DKUCsaneUCk-129" value="8" style="ellipse;whiteSpace=wrap;html=1;aspect=fixed;fillColor=default;strokeColor=default;" vertex="1" parent="1">
          <mxGeometry x="141.25" y="6560" width="40" height="40" as="geometry" />
        </mxCell>
        <mxCell id="45YRR1c24DKUCsaneUCk-130" value="12" style="ellipse;whiteSpace=wrap;html=1;aspect=fixed;" vertex="1" parent="1">
          <mxGeometry x="221.25" y="6560" width="40" height="40" as="geometry" />
        </mxCell>
        <mxCell id="45YRR1c24DKUCsaneUCk-131" value="10" style="ellipse;whiteSpace=wrap;html=1;aspect=fixed;fillColor=default;strokeColor=default;" vertex="1" parent="1">
          <mxGeometry x="301.25" y="6560" width="40" height="40" as="geometry" />
        </mxCell>
        <mxCell id="45YRR1c24DKUCsaneUCk-132" value="0" style="text;html=1;strokeColor=none;fillColor=none;align=center;verticalAlign=middle;whiteSpace=wrap;rounded=0;" vertex="1" parent="1">
          <mxGeometry x="411.25" y="6180" width="20" height="20" as="geometry" />
        </mxCell>
        <mxCell id="45YRR1c24DKUCsaneUCk-133" value="1" style="text;html=1;strokeColor=none;fillColor=none;align=center;verticalAlign=middle;whiteSpace=wrap;rounded=0;" vertex="1" parent="1">
          <mxGeometry x="241.25" y="6330" width="20" height="20" as="geometry" />
        </mxCell>
        <mxCell id="45YRR1c24DKUCsaneUCk-134" value="3" style="text;html=1;strokeColor=none;fillColor=none;align=center;verticalAlign=middle;whiteSpace=wrap;rounded=0;" vertex="1" parent="1">
          <mxGeometry x="161.25" y="6450" width="20" height="20" as="geometry" />
        </mxCell>
        <mxCell id="45YRR1c24DKUCsaneUCk-135" value="4" style="text;html=1;strokeColor=none;fillColor=none;align=center;verticalAlign=middle;whiteSpace=wrap;rounded=0;" vertex="1" parent="1">
          <mxGeometry x="321.25" y="6450" width="20" height="20" as="geometry" />
        </mxCell>
        <mxCell id="45YRR1c24DKUCsaneUCk-136" value="7" style="text;html=1;strokeColor=none;fillColor=none;align=center;verticalAlign=middle;whiteSpace=wrap;rounded=0;" vertex="1" parent="1">
          <mxGeometry x="121.25" y="6570" width="20" height="20" as="geometry" />
        </mxCell>
        <mxCell id="45YRR1c24DKUCsaneUCk-137" value="8" style="text;html=1;strokeColor=none;fillColor=none;align=center;verticalAlign=middle;whiteSpace=wrap;rounded=0;" vertex="1" parent="1">
          <mxGeometry x="201.25" y="6570" width="20" height="20" as="geometry" />
        </mxCell>
        <mxCell id="45YRR1c24DKUCsaneUCk-138" value="9" style="text;html=1;strokeColor=none;fillColor=none;align=center;verticalAlign=middle;whiteSpace=wrap;rounded=0;" vertex="1" parent="1">
          <mxGeometry x="281.25" y="6570" width="20" height="20" as="geometry" />
        </mxCell>
        <mxCell id="45YRR1c24DKUCsaneUCk-139" value="5" style="text;html=1;strokeColor=none;fillColor=none;align=center;verticalAlign=middle;whiteSpace=wrap;rounded=0;" vertex="1" parent="1">
          <mxGeometry x="501.25" y="6450" width="20" height="20" as="geometry" />
        </mxCell>
        <mxCell id="45YRR1c24DKUCsaneUCk-140" value="6" style="text;html=1;strokeColor=none;fillColor=none;align=center;verticalAlign=middle;whiteSpace=wrap;rounded=0;" vertex="1" parent="1">
          <mxGeometry x="661.25" y="6450" width="20" height="20" as="geometry" />
        </mxCell>
        <mxCell id="45YRR1c24DKUCsaneUCk-141" value="2" style="text;html=1;strokeColor=none;fillColor=none;align=center;verticalAlign=middle;whiteSpace=wrap;rounded=0;" vertex="1" parent="1">
          <mxGeometry x="581.25" y="6330" width="20" height="20" as="geometry" />
        </mxCell>
        <mxCell id="45YRR1c24DKUCsaneUCk-142" value="up" style="text;html=1;strokeColor=none;fillColor=none;align=center;verticalAlign=middle;whiteSpace=wrap;rounded=0;" vertex="1" parent="1">
          <mxGeometry x="191.25" y="6630" width="40" height="20" as="geometry" />
        </mxCell>
        <mxCell id="45YRR1c24DKUCsaneUCk-143" value="" style="curved=1;endArrow=open;html=1;rounded=0;dashed=1;strokeColor=#66B2FF;endFill=0;fillColor=#dae8fc;startArrow=none;startFill=0;entryX=1;entryY=1;entryDx=0;entryDy=0;" edge="1" parent="1" target="45YRR1c24DKUCsaneUCk-129">
          <mxGeometry width="50" height="50" relative="1" as="geometry">
            <mxPoint x="211.25" y="6630" as="sourcePoint" />
            <mxPoint x="176.25" y="6650" as="targetPoint" />
            <Array as="points">
              <mxPoint x="191.25" y="6600" />
              <mxPoint x="221.25" y="6610" />
              <mxPoint x="191.25" y="6610" />
            </Array>
          </mxGeometry>
        </mxCell>
        <mxCell id="45YRR1c24DKUCsaneUCk-144" value="" style="curved=1;endArrow=open;html=1;rounded=0;dashed=1;strokeColor=#FF3333;endFill=0;fillColor=#dae8fc;exitX=1;exitY=1;exitDx=0;exitDy=0;" edge="1" parent="1">
          <mxGeometry width="50" height="50" relative="1" as="geometry">
            <mxPoint x="341.25213562374256" y="6584.142135623743" as="sourcePoint" />
            <mxPoint x="417.1100000000001" y="6610" as="targetPoint" />
            <Array as="points">
              <mxPoint x="381.25" y="6590" />
              <mxPoint x="391.25" y="6599" />
              <mxPoint x="357.11" y="6600" />
              <mxPoint x="377.11" y="6570" />
            </Array>
          </mxGeometry>
        </mxCell>
        <mxCell id="45YRR1c24DKUCsaneUCk-145" value="Pop" style="text;html=1;strokeColor=none;fillColor=none;align=center;verticalAlign=middle;whiteSpace=wrap;rounded=0;" vertex="1" parent="1">
          <mxGeometry x="417.11" y="6600" width="30" height="20" as="geometry" />
        </mxCell>
        <mxCell id="45YRR1c24DKUCsaneUCk-146" style="edgeStyle=none;rounded=0;orthogonalLoop=1;jettySize=auto;html=1;entryX=0.5;entryY=0;entryDx=0;entryDy=0;dashed=1;startArrow=none;startFill=0;endArrow=open;endFill=0;strokeColor=#1A1A1A;" edge="1" parent="1" source="45YRR1c24DKUCsaneUCk-148" target="45YRR1c24DKUCsaneUCk-157">
          <mxGeometry relative="1" as="geometry" />
        </mxCell>
        <mxCell id="45YRR1c24DKUCsaneUCk-147" style="edgeStyle=none;rounded=0;orthogonalLoop=1;jettySize=auto;html=1;dashed=1;startArrow=none;startFill=0;endArrow=open;endFill=0;strokeColor=#1A1A1A;entryX=0.5;entryY=0;entryDx=0;entryDy=0;" edge="1" parent="1" source="45YRR1c24DKUCsaneUCk-148" target="45YRR1c24DKUCsaneUCk-159">
          <mxGeometry relative="1" as="geometry" />
        </mxCell>
        <mxCell id="45YRR1c24DKUCsaneUCk-148" value="4" style="ellipse;whiteSpace=wrap;html=1;aspect=fixed;strokeColor=#1A1A1A;" vertex="1" parent="1">
          <mxGeometry x="256.25" y="6820" width="40" height="40" as="geometry" />
        </mxCell>
        <mxCell id="45YRR1c24DKUCsaneUCk-149" style="edgeStyle=none;rounded=0;orthogonalLoop=1;jettySize=auto;html=1;dashed=1;startArrow=none;startFill=0;endArrow=open;endFill=0;strokeColor=#1A1A1A;entryX=0.5;entryY=0;entryDx=0;entryDy=0;" edge="1" parent="1" source="45YRR1c24DKUCsaneUCk-151" target="45YRR1c24DKUCsaneUCk-158">
          <mxGeometry relative="1" as="geometry">
            <mxPoint x="436.25" y="6940" as="targetPoint" />
          </mxGeometry>
        </mxCell>
        <mxCell id="45YRR1c24DKUCsaneUCk-150" style="edgeStyle=none;rounded=0;orthogonalLoop=1;jettySize=auto;html=1;dashed=1;startArrow=none;startFill=0;endArrow=open;endFill=0;strokeColor=#1A1A1A;entryX=0.5;entryY=0;entryDx=0;entryDy=0;" edge="1" parent="1" source="45YRR1c24DKUCsaneUCk-151" target="45YRR1c24DKUCsaneUCk-160">
          <mxGeometry relative="1" as="geometry" />
        </mxCell>
        <mxCell id="45YRR1c24DKUCsaneUCk-151" value="4" style="ellipse;whiteSpace=wrap;html=1;aspect=fixed;" vertex="1" parent="1">
          <mxGeometry x="536.25" y="6820" width="40" height="40" as="geometry" />
        </mxCell>
        <mxCell id="45YRR1c24DKUCsaneUCk-152" style="rounded=0;orthogonalLoop=1;jettySize=auto;html=1;entryX=0.5;entryY=0;entryDx=0;entryDy=0;dashed=1;startArrow=none;startFill=0;endArrow=open;endFill=0;strokeColor=#1A1A1A;" edge="1" parent="1" source="45YRR1c24DKUCsaneUCk-154" target="45YRR1c24DKUCsaneUCk-148">
          <mxGeometry relative="1" as="geometry" />
        </mxCell>
        <mxCell id="45YRR1c24DKUCsaneUCk-153" style="edgeStyle=none;rounded=0;orthogonalLoop=1;jettySize=auto;html=1;entryX=0.5;entryY=0;entryDx=0;entryDy=0;dashed=1;startArrow=none;startFill=0;endArrow=open;endFill=0;strokeColor=#1A1A1A;" edge="1" parent="1" source="45YRR1c24DKUCsaneUCk-154" target="45YRR1c24DKUCsaneUCk-151">
          <mxGeometry relative="1" as="geometry" />
        </mxCell>
        <mxCell id="45YRR1c24DKUCsaneUCk-154" value="2" style="ellipse;whiteSpace=wrap;html=1;aspect=fixed;" vertex="1" parent="1">
          <mxGeometry x="396.25" y="6700" width="40" height="40" as="geometry" />
        </mxCell>
        <mxCell id="45YRR1c24DKUCsaneUCk-155" style="rounded=0;orthogonalLoop=1;jettySize=auto;html=1;entryX=0.5;entryY=0;entryDx=0;entryDy=0;dashed=1;startArrow=none;startFill=0;endArrow=open;endFill=0;strokeColor=#1A1A1A;" edge="1" parent="1" source="45YRR1c24DKUCsaneUCk-157" target="45YRR1c24DKUCsaneUCk-161">
          <mxGeometry relative="1" as="geometry" />
        </mxCell>
        <mxCell id="45YRR1c24DKUCsaneUCk-156" style="edgeStyle=none;rounded=0;orthogonalLoop=1;jettySize=auto;html=1;dashed=1;startArrow=none;startFill=0;endArrow=open;endFill=0;strokeColor=#1A1A1A;entryX=0.5;entryY=0;entryDx=0;entryDy=0;" edge="1" parent="1" source="45YRR1c24DKUCsaneUCk-157" target="45YRR1c24DKUCsaneUCk-162">
          <mxGeometry relative="1" as="geometry">
            <mxPoint x="276.25" y="7060" as="targetPoint" />
          </mxGeometry>
        </mxCell>
        <mxCell id="45YRR1c24DKUCsaneUCk-157" value="7" style="ellipse;whiteSpace=wrap;html=1;aspect=fixed;fillColor=default;strokeColor=default;" vertex="1" parent="1">
          <mxGeometry x="176.25" y="6940" width="40" height="40" as="geometry" />
        </mxCell>
        <mxCell id="45YRR1c24DKUCsaneUCk-158" value="5" style="ellipse;whiteSpace=wrap;html=1;aspect=fixed;" vertex="1" parent="1">
          <mxGeometry x="456.25" y="6940" width="40" height="40" as="geometry" />
        </mxCell>
        <mxCell id="45YRR1c24DKUCsaneUCk-159" value="6" style="ellipse;whiteSpace=wrap;html=1;aspect=fixed;" vertex="1" parent="1">
          <mxGeometry x="336.25" y="6940" width="40" height="40" as="geometry" />
        </mxCell>
        <mxCell id="45YRR1c24DKUCsaneUCk-160" value="11" style="ellipse;whiteSpace=wrap;html=1;aspect=fixed;" vertex="1" parent="1">
          <mxGeometry x="616.25" y="6940" width="40" height="40" as="geometry" />
        </mxCell>
        <mxCell id="45YRR1c24DKUCsaneUCk-161" value="8" style="ellipse;whiteSpace=wrap;html=1;aspect=fixed;fillColor=default;strokeColor=default;" vertex="1" parent="1">
          <mxGeometry x="136.25" y="7060" width="40" height="40" as="geometry" />
        </mxCell>
        <mxCell id="45YRR1c24DKUCsaneUCk-162" value="12" style="ellipse;whiteSpace=wrap;html=1;aspect=fixed;" vertex="1" parent="1">
          <mxGeometry x="216.25" y="7060" width="40" height="40" as="geometry" />
        </mxCell>
        <mxCell id="45YRR1c24DKUCsaneUCk-163" value="0" style="text;html=1;strokeColor=none;fillColor=none;align=center;verticalAlign=middle;whiteSpace=wrap;rounded=0;" vertex="1" parent="1">
          <mxGeometry x="406.25" y="6680" width="20" height="20" as="geometry" />
        </mxCell>
        <mxCell id="45YRR1c24DKUCsaneUCk-164" value="1" style="text;html=1;strokeColor=none;fillColor=none;align=center;verticalAlign=middle;whiteSpace=wrap;rounded=0;" vertex="1" parent="1">
          <mxGeometry x="236.25" y="6830" width="20" height="20" as="geometry" />
        </mxCell>
        <mxCell id="45YRR1c24DKUCsaneUCk-165" value="3" style="text;html=1;strokeColor=none;fillColor=none;align=center;verticalAlign=middle;whiteSpace=wrap;rounded=0;" vertex="1" parent="1">
          <mxGeometry x="156.25" y="6950" width="20" height="20" as="geometry" />
        </mxCell>
        <mxCell id="45YRR1c24DKUCsaneUCk-166" value="4" style="text;html=1;strokeColor=none;fillColor=none;align=center;verticalAlign=middle;whiteSpace=wrap;rounded=0;" vertex="1" parent="1">
          <mxGeometry x="316.25" y="6950" width="20" height="20" as="geometry" />
        </mxCell>
        <mxCell id="45YRR1c24DKUCsaneUCk-167" value="7" style="text;html=1;strokeColor=none;fillColor=none;align=center;verticalAlign=middle;whiteSpace=wrap;rounded=0;" vertex="1" parent="1">
          <mxGeometry x="116.25" y="7070" width="20" height="20" as="geometry" />
        </mxCell>
        <mxCell id="45YRR1c24DKUCsaneUCk-168" value="8" style="text;html=1;strokeColor=none;fillColor=none;align=center;verticalAlign=middle;whiteSpace=wrap;rounded=0;" vertex="1" parent="1">
          <mxGeometry x="196.25" y="7070" width="20" height="20" as="geometry" />
        </mxCell>
        <mxCell id="45YRR1c24DKUCsaneUCk-169" value="5" style="text;html=1;strokeColor=none;fillColor=none;align=center;verticalAlign=middle;whiteSpace=wrap;rounded=0;" vertex="1" parent="1">
          <mxGeometry x="496.25" y="6950" width="20" height="20" as="geometry" />
        </mxCell>
        <mxCell id="45YRR1c24DKUCsaneUCk-170" value="6" style="text;html=1;strokeColor=none;fillColor=none;align=center;verticalAlign=middle;whiteSpace=wrap;rounded=0;" vertex="1" parent="1">
          <mxGeometry x="656.25" y="6950" width="20" height="20" as="geometry" />
        </mxCell>
        <mxCell id="45YRR1c24DKUCsaneUCk-171" value="2" style="text;html=1;strokeColor=none;fillColor=none;align=center;verticalAlign=middle;whiteSpace=wrap;rounded=0;" vertex="1" parent="1">
          <mxGeometry x="576.25" y="6830" width="20" height="20" as="geometry" />
        </mxCell>
      </root>
    </mxGraphModel>
  </diagram>
  <diagram id="QyCx1CndoIvkBSUaJpLr" name="第 8 页">
    <mxGraphModel dx="1350" dy="764" grid="1" gridSize="10" guides="1" tooltips="1" connect="1" arrows="1" fold="1" page="1" pageScale="1" pageWidth="827" pageHeight="1169" math="0" shadow="0">
      <root>
        <mxCell id="0" />
        <mxCell id="1" parent="0" />
      </root>
    </mxGraphModel>
  </diagram>
</mxfile>
